%TF.GenerationSoftware,KiCad,Pcbnew,7.0.7*%
%TF.CreationDate,2024-06-01T16:44:26-07:00*%
%TF.ProjectId,Impedance Selector,496d7065-6461-46e6-9365-2053656c6563,rev?*%
%TF.SameCoordinates,Original*%
%TF.FileFunction,Soldermask,Top*%
%TF.FilePolarity,Negative*%
%FSLAX46Y46*%
G04 Gerber Fmt 4.6, Leading zero omitted, Abs format (unit mm)*
G04 Created by KiCad (PCBNEW 7.0.7) date 2024-06-01 16:44:26*
%MOMM*%
%LPD*%
G01*
G04 APERTURE LIST*
%ADD10C,3.200000*%
%ADD11C,3.000000*%
%ADD12O,1.600000X1.600000*%
%ADD13C,1.600000*%
%ADD14C,1.200000*%
%ADD15O,1.200000X2.200000*%
%ADD16O,2.200000X1.200000*%
G04 APERTURE END LIST*
D10*
%TO.C,REF\u002A\u002A*%
X125000000Y-78000000D03*
%TD*%
%TO.C,REF\u002A\u002A*%
X175000000Y-78000000D03*
%TD*%
%TO.C,REF\u002A\u002A*%
X125000000Y-122000000D03*
%TD*%
%TO.C,REF\u002A\u002A*%
X175000000Y-122000000D03*
%TD*%
D11*
%TO.C,SW1*%
X152670000Y-90310000D03*
X157100000Y-92890000D03*
X159680000Y-97300000D03*
X159680000Y-102700000D03*
X157100000Y-107110000D03*
X152670000Y-109690000D03*
X147300000Y-109680000D03*
X142890000Y-107100000D03*
X140320000Y-102700000D03*
X140320000Y-97300000D03*
X142900000Y-92890000D03*
X147300000Y-90320000D03*
X155650000Y-100000000D03*
X144350000Y-100000000D03*
%TD*%
D12*
%TO.C,R2 L*%
X165920000Y-94000000D03*
D13*
X176080000Y-94000000D03*
%TD*%
D12*
%TO.C,R4 L*%
X165920000Y-106000000D03*
D13*
X176080000Y-106000000D03*
%TD*%
%TO.C,R3 R*%
X134000000Y-100000000D03*
D12*
X123840000Y-100000000D03*
%TD*%
D14*
%TO.C,J2*%
X155000000Y-125000000D03*
X155000000Y-122500000D03*
X150000000Y-117500000D03*
X145000000Y-125000000D03*
X145000000Y-122500000D03*
D15*
X155000000Y-117500000D03*
D16*
X150000000Y-122500000D03*
D15*
X145000000Y-117500000D03*
%TD*%
D13*
%TO.C,R4 R*%
X134080000Y-94000000D03*
D12*
X123920000Y-94000000D03*
%TD*%
D14*
%TO.C,J1*%
X145000000Y-75000000D03*
X145000000Y-77500000D03*
X150000000Y-82500000D03*
X155000000Y-75000000D03*
X155000000Y-77500000D03*
D15*
X145000000Y-82500000D03*
D16*
X150000000Y-77500000D03*
D15*
X155000000Y-82500000D03*
%TD*%
D12*
%TO.C,R2 R*%
X123920000Y-106000000D03*
D13*
X134080000Y-106000000D03*
%TD*%
%TO.C,R1 L*%
X176000000Y-88000000D03*
D12*
X165840000Y-88000000D03*
%TD*%
%TO.C,R5 L*%
X165920000Y-112000000D03*
D13*
X176080000Y-112000000D03*
%TD*%
%TO.C,R5 R*%
X134000000Y-88000000D03*
D12*
X123840000Y-88000000D03*
%TD*%
%TO.C,R3 L*%
X165920000Y-100000000D03*
D13*
X176080000Y-100000000D03*
%TD*%
D12*
%TO.C,R1 R*%
X123920000Y-112000000D03*
D13*
X134080000Y-112000000D03*
%TD*%
M02*
