%TF.GenerationSoftware,KiCad,Pcbnew,7.0.7*%
%TF.CreationDate,2024-06-01T16:44:26-07:00*%
%TF.ProjectId,Impedance Selector,496d7065-6461-46e6-9365-2053656c6563,rev?*%
%TF.SameCoordinates,Original*%
%TF.FileFunction,Legend,Bot*%
%TF.FilePolarity,Positive*%
%FSLAX46Y46*%
G04 Gerber Fmt 4.6, Leading zero omitted, Abs format (unit mm)*
G04 Created by KiCad (PCBNEW 7.0.7) date 2024-06-01 16:44:26*
%MOMM*%
%LPD*%
G01*
G04 APERTURE LIST*
%ADD10C,0.125000*%
%ADD11C,0.187500*%
%ADD12C,0.150000*%
%ADD13C,0.120000*%
G04 APERTURE END LIST*
D10*
X165285714Y-120346119D02*
X165285714Y-119346119D01*
X165285714Y-119822309D02*
X164714286Y-119822309D01*
X164714286Y-120346119D02*
X164714286Y-119346119D01*
X164380952Y-119346119D02*
X163809524Y-119346119D01*
X164095238Y-120346119D02*
X164095238Y-119346119D01*
X163047619Y-120346119D02*
X163047619Y-119822309D01*
X163047619Y-119822309D02*
X163095238Y-119727071D01*
X163095238Y-119727071D02*
X163190476Y-119679452D01*
X163190476Y-119679452D02*
X163380952Y-119679452D01*
X163380952Y-119679452D02*
X163476190Y-119727071D01*
X163047619Y-120298500D02*
X163142857Y-120346119D01*
X163142857Y-120346119D02*
X163380952Y-120346119D01*
X163380952Y-120346119D02*
X163476190Y-120298500D01*
X163476190Y-120298500D02*
X163523809Y-120203261D01*
X163523809Y-120203261D02*
X163523809Y-120108023D01*
X163523809Y-120108023D02*
X163476190Y-120012785D01*
X163476190Y-120012785D02*
X163380952Y-119965166D01*
X163380952Y-119965166D02*
X163142857Y-119965166D01*
X163142857Y-119965166D02*
X163047619Y-119917547D01*
X162571428Y-119679452D02*
X162571428Y-120346119D01*
X162571428Y-119774690D02*
X162523809Y-119727071D01*
X162523809Y-119727071D02*
X162428571Y-119679452D01*
X162428571Y-119679452D02*
X162285714Y-119679452D01*
X162285714Y-119679452D02*
X162190476Y-119727071D01*
X162190476Y-119727071D02*
X162142857Y-119822309D01*
X162142857Y-119822309D02*
X162142857Y-120346119D01*
X161238095Y-119679452D02*
X161238095Y-120488976D01*
X161238095Y-120488976D02*
X161285714Y-120584214D01*
X161285714Y-120584214D02*
X161333333Y-120631833D01*
X161333333Y-120631833D02*
X161428571Y-120679452D01*
X161428571Y-120679452D02*
X161571428Y-120679452D01*
X161571428Y-120679452D02*
X161666666Y-120631833D01*
X161238095Y-120298500D02*
X161333333Y-120346119D01*
X161333333Y-120346119D02*
X161523809Y-120346119D01*
X161523809Y-120346119D02*
X161619047Y-120298500D01*
X161619047Y-120298500D02*
X161666666Y-120250880D01*
X161666666Y-120250880D02*
X161714285Y-120155642D01*
X161714285Y-120155642D02*
X161714285Y-119869928D01*
X161714285Y-119869928D02*
X161666666Y-119774690D01*
X161666666Y-119774690D02*
X161619047Y-119727071D01*
X161619047Y-119727071D02*
X161523809Y-119679452D01*
X161523809Y-119679452D02*
X161333333Y-119679452D01*
X161333333Y-119679452D02*
X161238095Y-119727071D01*
X160619047Y-120346119D02*
X160714285Y-120298500D01*
X160714285Y-120298500D02*
X160761904Y-120203261D01*
X160761904Y-120203261D02*
X160761904Y-119346119D01*
X164547618Y-121956119D02*
X164547618Y-120956119D01*
X164071428Y-121956119D02*
X164071428Y-120956119D01*
X164071428Y-120956119D02*
X163738095Y-121670404D01*
X163738095Y-121670404D02*
X163404762Y-120956119D01*
X163404762Y-120956119D02*
X163404762Y-121956119D01*
X162928571Y-121956119D02*
X162928571Y-120956119D01*
X162928571Y-120956119D02*
X162547619Y-120956119D01*
X162547619Y-120956119D02*
X162452381Y-121003738D01*
X162452381Y-121003738D02*
X162404762Y-121051357D01*
X162404762Y-121051357D02*
X162357143Y-121146595D01*
X162357143Y-121146595D02*
X162357143Y-121289452D01*
X162357143Y-121289452D02*
X162404762Y-121384690D01*
X162404762Y-121384690D02*
X162452381Y-121432309D01*
X162452381Y-121432309D02*
X162547619Y-121479928D01*
X162547619Y-121479928D02*
X162928571Y-121479928D01*
X161976190Y-121908500D02*
X161833333Y-121956119D01*
X161833333Y-121956119D02*
X161595238Y-121956119D01*
X161595238Y-121956119D02*
X161500000Y-121908500D01*
X161500000Y-121908500D02*
X161452381Y-121860880D01*
X161452381Y-121860880D02*
X161404762Y-121765642D01*
X161404762Y-121765642D02*
X161404762Y-121670404D01*
X161404762Y-121670404D02*
X161452381Y-121575166D01*
X161452381Y-121575166D02*
X161500000Y-121527547D01*
X161500000Y-121527547D02*
X161595238Y-121479928D01*
X161595238Y-121479928D02*
X161785714Y-121432309D01*
X161785714Y-121432309D02*
X161880952Y-121384690D01*
X161880952Y-121384690D02*
X161928571Y-121337071D01*
X161928571Y-121337071D02*
X161976190Y-121241833D01*
X161976190Y-121241833D02*
X161976190Y-121146595D01*
X161976190Y-121146595D02*
X161928571Y-121051357D01*
X161928571Y-121051357D02*
X161880952Y-121003738D01*
X161880952Y-121003738D02*
X161785714Y-120956119D01*
X161785714Y-120956119D02*
X161547619Y-120956119D01*
X161547619Y-120956119D02*
X161404762Y-121003738D01*
X163809523Y-122566119D02*
X163476190Y-123566119D01*
X163476190Y-123566119D02*
X163142857Y-122566119D01*
X162285714Y-123566119D02*
X162857142Y-123566119D01*
X162571428Y-123566119D02*
X162571428Y-122566119D01*
X162571428Y-122566119D02*
X162666666Y-122708976D01*
X162666666Y-122708976D02*
X162761904Y-122804214D01*
X162761904Y-122804214D02*
X162857142Y-122851833D01*
X171251097Y-125204452D02*
X171251097Y-126013976D01*
X171251097Y-126013976D02*
X171298716Y-126109214D01*
X171298716Y-126109214D02*
X171346335Y-126156833D01*
X171346335Y-126156833D02*
X171441573Y-126204452D01*
X171441573Y-126204452D02*
X171584430Y-126204452D01*
X171584430Y-126204452D02*
X171679668Y-126156833D01*
X171251097Y-125823500D02*
X171346335Y-125871119D01*
X171346335Y-125871119D02*
X171536811Y-125871119D01*
X171536811Y-125871119D02*
X171632049Y-125823500D01*
X171632049Y-125823500D02*
X171679668Y-125775880D01*
X171679668Y-125775880D02*
X171727287Y-125680642D01*
X171727287Y-125680642D02*
X171727287Y-125394928D01*
X171727287Y-125394928D02*
X171679668Y-125299690D01*
X171679668Y-125299690D02*
X171632049Y-125252071D01*
X171632049Y-125252071D02*
X171536811Y-125204452D01*
X171536811Y-125204452D02*
X171346335Y-125204452D01*
X171346335Y-125204452D02*
X171251097Y-125252071D01*
X170774906Y-125871119D02*
X170774906Y-125204452D01*
X170774906Y-124871119D02*
X170822525Y-124918738D01*
X170822525Y-124918738D02*
X170774906Y-124966357D01*
X170774906Y-124966357D02*
X170727287Y-124918738D01*
X170727287Y-124918738D02*
X170774906Y-124871119D01*
X170774906Y-124871119D02*
X170774906Y-124966357D01*
X170441573Y-125204452D02*
X170060621Y-125204452D01*
X170298716Y-124871119D02*
X170298716Y-125728261D01*
X170298716Y-125728261D02*
X170251097Y-125823500D01*
X170251097Y-125823500D02*
X170155859Y-125871119D01*
X170155859Y-125871119D02*
X170060621Y-125871119D01*
X169727287Y-125871119D02*
X169727287Y-124871119D01*
X169298716Y-125871119D02*
X169298716Y-125347309D01*
X169298716Y-125347309D02*
X169346335Y-125252071D01*
X169346335Y-125252071D02*
X169441573Y-125204452D01*
X169441573Y-125204452D02*
X169584430Y-125204452D01*
X169584430Y-125204452D02*
X169679668Y-125252071D01*
X169679668Y-125252071D02*
X169727287Y-125299690D01*
X168393954Y-125204452D02*
X168393954Y-125871119D01*
X168822525Y-125204452D02*
X168822525Y-125728261D01*
X168822525Y-125728261D02*
X168774906Y-125823500D01*
X168774906Y-125823500D02*
X168679668Y-125871119D01*
X168679668Y-125871119D02*
X168536811Y-125871119D01*
X168536811Y-125871119D02*
X168441573Y-125823500D01*
X168441573Y-125823500D02*
X168393954Y-125775880D01*
X167917763Y-125871119D02*
X167917763Y-124871119D01*
X167917763Y-125252071D02*
X167822525Y-125204452D01*
X167822525Y-125204452D02*
X167632049Y-125204452D01*
X167632049Y-125204452D02*
X167536811Y-125252071D01*
X167536811Y-125252071D02*
X167489192Y-125299690D01*
X167489192Y-125299690D02*
X167441573Y-125394928D01*
X167441573Y-125394928D02*
X167441573Y-125680642D01*
X167441573Y-125680642D02*
X167489192Y-125775880D01*
X167489192Y-125775880D02*
X167536811Y-125823500D01*
X167536811Y-125823500D02*
X167632049Y-125871119D01*
X167632049Y-125871119D02*
X167822525Y-125871119D01*
X167822525Y-125871119D02*
X167917763Y-125823500D01*
X167013001Y-125775880D02*
X166965382Y-125823500D01*
X166965382Y-125823500D02*
X167013001Y-125871119D01*
X167013001Y-125871119D02*
X167060620Y-125823500D01*
X167060620Y-125823500D02*
X167013001Y-125775880D01*
X167013001Y-125775880D02*
X167013001Y-125871119D01*
X166108240Y-125823500D02*
X166203478Y-125871119D01*
X166203478Y-125871119D02*
X166393954Y-125871119D01*
X166393954Y-125871119D02*
X166489192Y-125823500D01*
X166489192Y-125823500D02*
X166536811Y-125775880D01*
X166536811Y-125775880D02*
X166584430Y-125680642D01*
X166584430Y-125680642D02*
X166584430Y-125394928D01*
X166584430Y-125394928D02*
X166536811Y-125299690D01*
X166536811Y-125299690D02*
X166489192Y-125252071D01*
X166489192Y-125252071D02*
X166393954Y-125204452D01*
X166393954Y-125204452D02*
X166203478Y-125204452D01*
X166203478Y-125204452D02*
X166108240Y-125252071D01*
X165536811Y-125871119D02*
X165632049Y-125823500D01*
X165632049Y-125823500D02*
X165679668Y-125775880D01*
X165679668Y-125775880D02*
X165727287Y-125680642D01*
X165727287Y-125680642D02*
X165727287Y-125394928D01*
X165727287Y-125394928D02*
X165679668Y-125299690D01*
X165679668Y-125299690D02*
X165632049Y-125252071D01*
X165632049Y-125252071D02*
X165536811Y-125204452D01*
X165536811Y-125204452D02*
X165393954Y-125204452D01*
X165393954Y-125204452D02*
X165298716Y-125252071D01*
X165298716Y-125252071D02*
X165251097Y-125299690D01*
X165251097Y-125299690D02*
X165203478Y-125394928D01*
X165203478Y-125394928D02*
X165203478Y-125680642D01*
X165203478Y-125680642D02*
X165251097Y-125775880D01*
X165251097Y-125775880D02*
X165298716Y-125823500D01*
X165298716Y-125823500D02*
X165393954Y-125871119D01*
X165393954Y-125871119D02*
X165536811Y-125871119D01*
X164774906Y-125871119D02*
X164774906Y-125204452D01*
X164774906Y-125299690D02*
X164727287Y-125252071D01*
X164727287Y-125252071D02*
X164632049Y-125204452D01*
X164632049Y-125204452D02*
X164489192Y-125204452D01*
X164489192Y-125204452D02*
X164393954Y-125252071D01*
X164393954Y-125252071D02*
X164346335Y-125347309D01*
X164346335Y-125347309D02*
X164346335Y-125871119D01*
X164346335Y-125347309D02*
X164298716Y-125252071D01*
X164298716Y-125252071D02*
X164203478Y-125204452D01*
X164203478Y-125204452D02*
X164060621Y-125204452D01*
X164060621Y-125204452D02*
X163965382Y-125252071D01*
X163965382Y-125252071D02*
X163917763Y-125347309D01*
X163917763Y-125347309D02*
X163917763Y-125871119D01*
X162727288Y-124823500D02*
X163584430Y-126109214D01*
X162393954Y-125871119D02*
X162393954Y-124871119D01*
X162393954Y-125347309D02*
X161822526Y-125347309D01*
X161822526Y-125871119D02*
X161822526Y-124871119D01*
X161489192Y-124871119D02*
X160917764Y-124871119D01*
X161203478Y-125871119D02*
X161203478Y-124871119D01*
X160155859Y-125871119D02*
X160155859Y-125347309D01*
X160155859Y-125347309D02*
X160203478Y-125252071D01*
X160203478Y-125252071D02*
X160298716Y-125204452D01*
X160298716Y-125204452D02*
X160489192Y-125204452D01*
X160489192Y-125204452D02*
X160584430Y-125252071D01*
X160155859Y-125823500D02*
X160251097Y-125871119D01*
X160251097Y-125871119D02*
X160489192Y-125871119D01*
X160489192Y-125871119D02*
X160584430Y-125823500D01*
X160584430Y-125823500D02*
X160632049Y-125728261D01*
X160632049Y-125728261D02*
X160632049Y-125633023D01*
X160632049Y-125633023D02*
X160584430Y-125537785D01*
X160584430Y-125537785D02*
X160489192Y-125490166D01*
X160489192Y-125490166D02*
X160251097Y-125490166D01*
X160251097Y-125490166D02*
X160155859Y-125442547D01*
X159679668Y-125204452D02*
X159679668Y-125871119D01*
X159679668Y-125299690D02*
X159632049Y-125252071D01*
X159632049Y-125252071D02*
X159536811Y-125204452D01*
X159536811Y-125204452D02*
X159393954Y-125204452D01*
X159393954Y-125204452D02*
X159298716Y-125252071D01*
X159298716Y-125252071D02*
X159251097Y-125347309D01*
X159251097Y-125347309D02*
X159251097Y-125871119D01*
X158346335Y-125204452D02*
X158346335Y-126013976D01*
X158346335Y-126013976D02*
X158393954Y-126109214D01*
X158393954Y-126109214D02*
X158441573Y-126156833D01*
X158441573Y-126156833D02*
X158536811Y-126204452D01*
X158536811Y-126204452D02*
X158679668Y-126204452D01*
X158679668Y-126204452D02*
X158774906Y-126156833D01*
X158346335Y-125823500D02*
X158441573Y-125871119D01*
X158441573Y-125871119D02*
X158632049Y-125871119D01*
X158632049Y-125871119D02*
X158727287Y-125823500D01*
X158727287Y-125823500D02*
X158774906Y-125775880D01*
X158774906Y-125775880D02*
X158822525Y-125680642D01*
X158822525Y-125680642D02*
X158822525Y-125394928D01*
X158822525Y-125394928D02*
X158774906Y-125299690D01*
X158774906Y-125299690D02*
X158727287Y-125252071D01*
X158727287Y-125252071D02*
X158632049Y-125204452D01*
X158632049Y-125204452D02*
X158441573Y-125204452D01*
X158441573Y-125204452D02*
X158346335Y-125252071D01*
X157727287Y-125871119D02*
X157822525Y-125823500D01*
X157822525Y-125823500D02*
X157870144Y-125728261D01*
X157870144Y-125728261D02*
X157870144Y-124871119D01*
D11*
X154602835Y-79452869D02*
X154602835Y-80167154D01*
X154602835Y-80167154D02*
X154650454Y-80310011D01*
X154650454Y-80310011D02*
X154745692Y-80405250D01*
X154745692Y-80405250D02*
X154888549Y-80452869D01*
X154888549Y-80452869D02*
X154983787Y-80452869D01*
X153650454Y-80452869D02*
X154126644Y-80452869D01*
X154126644Y-80452869D02*
X154126644Y-79452869D01*
X152745692Y-80357630D02*
X152793311Y-80405250D01*
X152793311Y-80405250D02*
X152936168Y-80452869D01*
X152936168Y-80452869D02*
X153031406Y-80452869D01*
X153031406Y-80452869D02*
X153174263Y-80405250D01*
X153174263Y-80405250D02*
X153269501Y-80310011D01*
X153269501Y-80310011D02*
X153317120Y-80214773D01*
X153317120Y-80214773D02*
X153364739Y-80024297D01*
X153364739Y-80024297D02*
X153364739Y-79881440D01*
X153364739Y-79881440D02*
X153317120Y-79690964D01*
X153317120Y-79690964D02*
X153269501Y-79595726D01*
X153269501Y-79595726D02*
X153174263Y-79500488D01*
X153174263Y-79500488D02*
X153031406Y-79452869D01*
X153031406Y-79452869D02*
X152936168Y-79452869D01*
X152936168Y-79452869D02*
X152793311Y-79500488D01*
X152793311Y-79500488D02*
X152745692Y-79548107D01*
X152031406Y-79452869D02*
X152031406Y-80167154D01*
X152031406Y-80167154D02*
X152079025Y-80310011D01*
X152079025Y-80310011D02*
X152174263Y-80405250D01*
X152174263Y-80405250D02*
X152317120Y-80452869D01*
X152317120Y-80452869D02*
X152412358Y-80452869D01*
X151079025Y-80452869D02*
X151555215Y-80452869D01*
X151555215Y-80452869D02*
X151555215Y-79452869D01*
X150174263Y-80357630D02*
X150221882Y-80405250D01*
X150221882Y-80405250D02*
X150364739Y-80452869D01*
X150364739Y-80452869D02*
X150459977Y-80452869D01*
X150459977Y-80452869D02*
X150602834Y-80405250D01*
X150602834Y-80405250D02*
X150698072Y-80310011D01*
X150698072Y-80310011D02*
X150745691Y-80214773D01*
X150745691Y-80214773D02*
X150793310Y-80024297D01*
X150793310Y-80024297D02*
X150793310Y-79881440D01*
X150793310Y-79881440D02*
X150745691Y-79690964D01*
X150745691Y-79690964D02*
X150698072Y-79595726D01*
X150698072Y-79595726D02*
X150602834Y-79500488D01*
X150602834Y-79500488D02*
X150459977Y-79452869D01*
X150459977Y-79452869D02*
X150364739Y-79452869D01*
X150364739Y-79452869D02*
X150221882Y-79500488D01*
X150221882Y-79500488D02*
X150174263Y-79548107D01*
X149459977Y-79452869D02*
X149459977Y-80167154D01*
X149459977Y-80167154D02*
X149507596Y-80310011D01*
X149507596Y-80310011D02*
X149602834Y-80405250D01*
X149602834Y-80405250D02*
X149745691Y-80452869D01*
X149745691Y-80452869D02*
X149840929Y-80452869D01*
X148507596Y-80452869D02*
X148983786Y-80452869D01*
X148983786Y-80452869D02*
X148983786Y-79452869D01*
X147602834Y-80357630D02*
X147650453Y-80405250D01*
X147650453Y-80405250D02*
X147793310Y-80452869D01*
X147793310Y-80452869D02*
X147888548Y-80452869D01*
X147888548Y-80452869D02*
X148031405Y-80405250D01*
X148031405Y-80405250D02*
X148126643Y-80310011D01*
X148126643Y-80310011D02*
X148174262Y-80214773D01*
X148174262Y-80214773D02*
X148221881Y-80024297D01*
X148221881Y-80024297D02*
X148221881Y-79881440D01*
X148221881Y-79881440D02*
X148174262Y-79690964D01*
X148174262Y-79690964D02*
X148126643Y-79595726D01*
X148126643Y-79595726D02*
X148031405Y-79500488D01*
X148031405Y-79500488D02*
X147888548Y-79452869D01*
X147888548Y-79452869D02*
X147793310Y-79452869D01*
X147793310Y-79452869D02*
X147650453Y-79500488D01*
X147650453Y-79500488D02*
X147602834Y-79548107D01*
X146888548Y-79452869D02*
X146888548Y-80167154D01*
X146888548Y-80167154D02*
X146936167Y-80310011D01*
X146936167Y-80310011D02*
X147031405Y-80405250D01*
X147031405Y-80405250D02*
X147174262Y-80452869D01*
X147174262Y-80452869D02*
X147269500Y-80452869D01*
X145936167Y-80452869D02*
X146412357Y-80452869D01*
X146412357Y-80452869D02*
X146412357Y-79452869D01*
X145031405Y-80357630D02*
X145079024Y-80405250D01*
X145079024Y-80405250D02*
X145221881Y-80452869D01*
X145221881Y-80452869D02*
X145317119Y-80452869D01*
X145317119Y-80452869D02*
X145459976Y-80405250D01*
X145459976Y-80405250D02*
X145555214Y-80310011D01*
X145555214Y-80310011D02*
X145602833Y-80214773D01*
X145602833Y-80214773D02*
X145650452Y-80024297D01*
X145650452Y-80024297D02*
X145650452Y-79881440D01*
X145650452Y-79881440D02*
X145602833Y-79690964D01*
X145602833Y-79690964D02*
X145555214Y-79595726D01*
X145555214Y-79595726D02*
X145459976Y-79500488D01*
X145459976Y-79500488D02*
X145317119Y-79452869D01*
X145317119Y-79452869D02*
X145221881Y-79452869D01*
X145221881Y-79452869D02*
X145079024Y-79500488D01*
X145079024Y-79500488D02*
X145031405Y-79548107D01*
D12*
X157214286Y-87454819D02*
X157214286Y-86454819D01*
X156738096Y-87454819D02*
X156738096Y-86788152D01*
X156738096Y-86883390D02*
X156690477Y-86835771D01*
X156690477Y-86835771D02*
X156595239Y-86788152D01*
X156595239Y-86788152D02*
X156452382Y-86788152D01*
X156452382Y-86788152D02*
X156357144Y-86835771D01*
X156357144Y-86835771D02*
X156309525Y-86931009D01*
X156309525Y-86931009D02*
X156309525Y-87454819D01*
X156309525Y-86931009D02*
X156261906Y-86835771D01*
X156261906Y-86835771D02*
X156166668Y-86788152D01*
X156166668Y-86788152D02*
X156023811Y-86788152D01*
X156023811Y-86788152D02*
X155928572Y-86835771D01*
X155928572Y-86835771D02*
X155880953Y-86931009D01*
X155880953Y-86931009D02*
X155880953Y-87454819D01*
X155404763Y-86788152D02*
X155404763Y-87788152D01*
X155404763Y-86835771D02*
X155309525Y-86788152D01*
X155309525Y-86788152D02*
X155119049Y-86788152D01*
X155119049Y-86788152D02*
X155023811Y-86835771D01*
X155023811Y-86835771D02*
X154976192Y-86883390D01*
X154976192Y-86883390D02*
X154928573Y-86978628D01*
X154928573Y-86978628D02*
X154928573Y-87264342D01*
X154928573Y-87264342D02*
X154976192Y-87359580D01*
X154976192Y-87359580D02*
X155023811Y-87407200D01*
X155023811Y-87407200D02*
X155119049Y-87454819D01*
X155119049Y-87454819D02*
X155309525Y-87454819D01*
X155309525Y-87454819D02*
X155404763Y-87407200D01*
X154119049Y-87407200D02*
X154214287Y-87454819D01*
X154214287Y-87454819D02*
X154404763Y-87454819D01*
X154404763Y-87454819D02*
X154500001Y-87407200D01*
X154500001Y-87407200D02*
X154547620Y-87311961D01*
X154547620Y-87311961D02*
X154547620Y-86931009D01*
X154547620Y-86931009D02*
X154500001Y-86835771D01*
X154500001Y-86835771D02*
X154404763Y-86788152D01*
X154404763Y-86788152D02*
X154214287Y-86788152D01*
X154214287Y-86788152D02*
X154119049Y-86835771D01*
X154119049Y-86835771D02*
X154071430Y-86931009D01*
X154071430Y-86931009D02*
X154071430Y-87026247D01*
X154071430Y-87026247D02*
X154547620Y-87121485D01*
X153214287Y-87454819D02*
X153214287Y-86454819D01*
X153214287Y-87407200D02*
X153309525Y-87454819D01*
X153309525Y-87454819D02*
X153500001Y-87454819D01*
X153500001Y-87454819D02*
X153595239Y-87407200D01*
X153595239Y-87407200D02*
X153642858Y-87359580D01*
X153642858Y-87359580D02*
X153690477Y-87264342D01*
X153690477Y-87264342D02*
X153690477Y-86978628D01*
X153690477Y-86978628D02*
X153642858Y-86883390D01*
X153642858Y-86883390D02*
X153595239Y-86835771D01*
X153595239Y-86835771D02*
X153500001Y-86788152D01*
X153500001Y-86788152D02*
X153309525Y-86788152D01*
X153309525Y-86788152D02*
X153214287Y-86835771D01*
X152309525Y-87454819D02*
X152309525Y-86931009D01*
X152309525Y-86931009D02*
X152357144Y-86835771D01*
X152357144Y-86835771D02*
X152452382Y-86788152D01*
X152452382Y-86788152D02*
X152642858Y-86788152D01*
X152642858Y-86788152D02*
X152738096Y-86835771D01*
X152309525Y-87407200D02*
X152404763Y-87454819D01*
X152404763Y-87454819D02*
X152642858Y-87454819D01*
X152642858Y-87454819D02*
X152738096Y-87407200D01*
X152738096Y-87407200D02*
X152785715Y-87311961D01*
X152785715Y-87311961D02*
X152785715Y-87216723D01*
X152785715Y-87216723D02*
X152738096Y-87121485D01*
X152738096Y-87121485D02*
X152642858Y-87073866D01*
X152642858Y-87073866D02*
X152404763Y-87073866D01*
X152404763Y-87073866D02*
X152309525Y-87026247D01*
X151833334Y-86788152D02*
X151833334Y-87454819D01*
X151833334Y-86883390D02*
X151785715Y-86835771D01*
X151785715Y-86835771D02*
X151690477Y-86788152D01*
X151690477Y-86788152D02*
X151547620Y-86788152D01*
X151547620Y-86788152D02*
X151452382Y-86835771D01*
X151452382Y-86835771D02*
X151404763Y-86931009D01*
X151404763Y-86931009D02*
X151404763Y-87454819D01*
X150500001Y-87407200D02*
X150595239Y-87454819D01*
X150595239Y-87454819D02*
X150785715Y-87454819D01*
X150785715Y-87454819D02*
X150880953Y-87407200D01*
X150880953Y-87407200D02*
X150928572Y-87359580D01*
X150928572Y-87359580D02*
X150976191Y-87264342D01*
X150976191Y-87264342D02*
X150976191Y-86978628D01*
X150976191Y-86978628D02*
X150928572Y-86883390D01*
X150928572Y-86883390D02*
X150880953Y-86835771D01*
X150880953Y-86835771D02*
X150785715Y-86788152D01*
X150785715Y-86788152D02*
X150595239Y-86788152D01*
X150595239Y-86788152D02*
X150500001Y-86835771D01*
X149690477Y-87407200D02*
X149785715Y-87454819D01*
X149785715Y-87454819D02*
X149976191Y-87454819D01*
X149976191Y-87454819D02*
X150071429Y-87407200D01*
X150071429Y-87407200D02*
X150119048Y-87311961D01*
X150119048Y-87311961D02*
X150119048Y-86931009D01*
X150119048Y-86931009D02*
X150071429Y-86835771D01*
X150071429Y-86835771D02*
X149976191Y-86788152D01*
X149976191Y-86788152D02*
X149785715Y-86788152D01*
X149785715Y-86788152D02*
X149690477Y-86835771D01*
X149690477Y-86835771D02*
X149642858Y-86931009D01*
X149642858Y-86931009D02*
X149642858Y-87026247D01*
X149642858Y-87026247D02*
X150119048Y-87121485D01*
X148500000Y-87407200D02*
X148357143Y-87454819D01*
X148357143Y-87454819D02*
X148119048Y-87454819D01*
X148119048Y-87454819D02*
X148023810Y-87407200D01*
X148023810Y-87407200D02*
X147976191Y-87359580D01*
X147976191Y-87359580D02*
X147928572Y-87264342D01*
X147928572Y-87264342D02*
X147928572Y-87169104D01*
X147928572Y-87169104D02*
X147976191Y-87073866D01*
X147976191Y-87073866D02*
X148023810Y-87026247D01*
X148023810Y-87026247D02*
X148119048Y-86978628D01*
X148119048Y-86978628D02*
X148309524Y-86931009D01*
X148309524Y-86931009D02*
X148404762Y-86883390D01*
X148404762Y-86883390D02*
X148452381Y-86835771D01*
X148452381Y-86835771D02*
X148500000Y-86740533D01*
X148500000Y-86740533D02*
X148500000Y-86645295D01*
X148500000Y-86645295D02*
X148452381Y-86550057D01*
X148452381Y-86550057D02*
X148404762Y-86502438D01*
X148404762Y-86502438D02*
X148309524Y-86454819D01*
X148309524Y-86454819D02*
X148071429Y-86454819D01*
X148071429Y-86454819D02*
X147928572Y-86502438D01*
X147119048Y-87407200D02*
X147214286Y-87454819D01*
X147214286Y-87454819D02*
X147404762Y-87454819D01*
X147404762Y-87454819D02*
X147500000Y-87407200D01*
X147500000Y-87407200D02*
X147547619Y-87311961D01*
X147547619Y-87311961D02*
X147547619Y-86931009D01*
X147547619Y-86931009D02*
X147500000Y-86835771D01*
X147500000Y-86835771D02*
X147404762Y-86788152D01*
X147404762Y-86788152D02*
X147214286Y-86788152D01*
X147214286Y-86788152D02*
X147119048Y-86835771D01*
X147119048Y-86835771D02*
X147071429Y-86931009D01*
X147071429Y-86931009D02*
X147071429Y-87026247D01*
X147071429Y-87026247D02*
X147547619Y-87121485D01*
X146500000Y-87454819D02*
X146595238Y-87407200D01*
X146595238Y-87407200D02*
X146642857Y-87311961D01*
X146642857Y-87311961D02*
X146642857Y-86454819D01*
X145738095Y-87407200D02*
X145833333Y-87454819D01*
X145833333Y-87454819D02*
X146023809Y-87454819D01*
X146023809Y-87454819D02*
X146119047Y-87407200D01*
X146119047Y-87407200D02*
X146166666Y-87311961D01*
X146166666Y-87311961D02*
X146166666Y-86931009D01*
X146166666Y-86931009D02*
X146119047Y-86835771D01*
X146119047Y-86835771D02*
X146023809Y-86788152D01*
X146023809Y-86788152D02*
X145833333Y-86788152D01*
X145833333Y-86788152D02*
X145738095Y-86835771D01*
X145738095Y-86835771D02*
X145690476Y-86931009D01*
X145690476Y-86931009D02*
X145690476Y-87026247D01*
X145690476Y-87026247D02*
X146166666Y-87121485D01*
X144833333Y-87407200D02*
X144928571Y-87454819D01*
X144928571Y-87454819D02*
X145119047Y-87454819D01*
X145119047Y-87454819D02*
X145214285Y-87407200D01*
X145214285Y-87407200D02*
X145261904Y-87359580D01*
X145261904Y-87359580D02*
X145309523Y-87264342D01*
X145309523Y-87264342D02*
X145309523Y-86978628D01*
X145309523Y-86978628D02*
X145261904Y-86883390D01*
X145261904Y-86883390D02*
X145214285Y-86835771D01*
X145214285Y-86835771D02*
X145119047Y-86788152D01*
X145119047Y-86788152D02*
X144928571Y-86788152D01*
X144928571Y-86788152D02*
X144833333Y-86835771D01*
X144547618Y-86788152D02*
X144166666Y-86788152D01*
X144404761Y-86454819D02*
X144404761Y-87311961D01*
X144404761Y-87311961D02*
X144357142Y-87407200D01*
X144357142Y-87407200D02*
X144261904Y-87454819D01*
X144261904Y-87454819D02*
X144166666Y-87454819D01*
X143690475Y-87454819D02*
X143785713Y-87407200D01*
X143785713Y-87407200D02*
X143833332Y-87359580D01*
X143833332Y-87359580D02*
X143880951Y-87264342D01*
X143880951Y-87264342D02*
X143880951Y-86978628D01*
X143880951Y-86978628D02*
X143833332Y-86883390D01*
X143833332Y-86883390D02*
X143785713Y-86835771D01*
X143785713Y-86835771D02*
X143690475Y-86788152D01*
X143690475Y-86788152D02*
X143547618Y-86788152D01*
X143547618Y-86788152D02*
X143452380Y-86835771D01*
X143452380Y-86835771D02*
X143404761Y-86883390D01*
X143404761Y-86883390D02*
X143357142Y-86978628D01*
X143357142Y-86978628D02*
X143357142Y-87264342D01*
X143357142Y-87264342D02*
X143404761Y-87359580D01*
X143404761Y-87359580D02*
X143452380Y-87407200D01*
X143452380Y-87407200D02*
X143547618Y-87454819D01*
X143547618Y-87454819D02*
X143690475Y-87454819D01*
X142928570Y-87454819D02*
X142928570Y-86788152D01*
X142928570Y-86978628D02*
X142880951Y-86883390D01*
X142880951Y-86883390D02*
X142833332Y-86835771D01*
X142833332Y-86835771D02*
X142738094Y-86788152D01*
X142738094Y-86788152D02*
X142642856Y-86788152D01*
X171952381Y-91954819D02*
X172285714Y-91478628D01*
X172523809Y-91954819D02*
X172523809Y-90954819D01*
X172523809Y-90954819D02*
X172142857Y-90954819D01*
X172142857Y-90954819D02*
X172047619Y-91002438D01*
X172047619Y-91002438D02*
X172000000Y-91050057D01*
X172000000Y-91050057D02*
X171952381Y-91145295D01*
X171952381Y-91145295D02*
X171952381Y-91288152D01*
X171952381Y-91288152D02*
X172000000Y-91383390D01*
X172000000Y-91383390D02*
X172047619Y-91431009D01*
X172047619Y-91431009D02*
X172142857Y-91478628D01*
X172142857Y-91478628D02*
X172523809Y-91478628D01*
X171571428Y-91050057D02*
X171523809Y-91002438D01*
X171523809Y-91002438D02*
X171428571Y-90954819D01*
X171428571Y-90954819D02*
X171190476Y-90954819D01*
X171190476Y-90954819D02*
X171095238Y-91002438D01*
X171095238Y-91002438D02*
X171047619Y-91050057D01*
X171047619Y-91050057D02*
X171000000Y-91145295D01*
X171000000Y-91145295D02*
X171000000Y-91240533D01*
X171000000Y-91240533D02*
X171047619Y-91383390D01*
X171047619Y-91383390D02*
X171619047Y-91954819D01*
X171619047Y-91954819D02*
X171000000Y-91954819D01*
X169333333Y-91954819D02*
X169809523Y-91954819D01*
X169809523Y-91954819D02*
X169809523Y-90954819D01*
X171952381Y-103954819D02*
X172285714Y-103478628D01*
X172523809Y-103954819D02*
X172523809Y-102954819D01*
X172523809Y-102954819D02*
X172142857Y-102954819D01*
X172142857Y-102954819D02*
X172047619Y-103002438D01*
X172047619Y-103002438D02*
X172000000Y-103050057D01*
X172000000Y-103050057D02*
X171952381Y-103145295D01*
X171952381Y-103145295D02*
X171952381Y-103288152D01*
X171952381Y-103288152D02*
X172000000Y-103383390D01*
X172000000Y-103383390D02*
X172047619Y-103431009D01*
X172047619Y-103431009D02*
X172142857Y-103478628D01*
X172142857Y-103478628D02*
X172523809Y-103478628D01*
X171095238Y-103288152D02*
X171095238Y-103954819D01*
X171333333Y-102907200D02*
X171571428Y-103621485D01*
X171571428Y-103621485D02*
X170952381Y-103621485D01*
X169333333Y-103954819D02*
X169809523Y-103954819D01*
X169809523Y-103954819D02*
X169809523Y-102954819D01*
X130047619Y-97954819D02*
X130380952Y-97478628D01*
X130619047Y-97954819D02*
X130619047Y-96954819D01*
X130619047Y-96954819D02*
X130238095Y-96954819D01*
X130238095Y-96954819D02*
X130142857Y-97002438D01*
X130142857Y-97002438D02*
X130095238Y-97050057D01*
X130095238Y-97050057D02*
X130047619Y-97145295D01*
X130047619Y-97145295D02*
X130047619Y-97288152D01*
X130047619Y-97288152D02*
X130095238Y-97383390D01*
X130095238Y-97383390D02*
X130142857Y-97431009D01*
X130142857Y-97431009D02*
X130238095Y-97478628D01*
X130238095Y-97478628D02*
X130619047Y-97478628D01*
X129714285Y-96954819D02*
X129095238Y-96954819D01*
X129095238Y-96954819D02*
X129428571Y-97335771D01*
X129428571Y-97335771D02*
X129285714Y-97335771D01*
X129285714Y-97335771D02*
X129190476Y-97383390D01*
X129190476Y-97383390D02*
X129142857Y-97431009D01*
X129142857Y-97431009D02*
X129095238Y-97526247D01*
X129095238Y-97526247D02*
X129095238Y-97764342D01*
X129095238Y-97764342D02*
X129142857Y-97859580D01*
X129142857Y-97859580D02*
X129190476Y-97907200D01*
X129190476Y-97907200D02*
X129285714Y-97954819D01*
X129285714Y-97954819D02*
X129571428Y-97954819D01*
X129571428Y-97954819D02*
X129666666Y-97907200D01*
X129666666Y-97907200D02*
X129714285Y-97859580D01*
X127333333Y-97954819D02*
X127666666Y-97478628D01*
X127904761Y-97954819D02*
X127904761Y-96954819D01*
X127904761Y-96954819D02*
X127523809Y-96954819D01*
X127523809Y-96954819D02*
X127428571Y-97002438D01*
X127428571Y-97002438D02*
X127380952Y-97050057D01*
X127380952Y-97050057D02*
X127333333Y-97145295D01*
X127333333Y-97145295D02*
X127333333Y-97288152D01*
X127333333Y-97288152D02*
X127380952Y-97383390D01*
X127380952Y-97383390D02*
X127428571Y-97431009D01*
X127428571Y-97431009D02*
X127523809Y-97478628D01*
X127523809Y-97478628D02*
X127904761Y-97478628D01*
X142523809Y-119954819D02*
X142333333Y-119954819D01*
X142333333Y-119954819D02*
X142238095Y-120002438D01*
X142238095Y-120002438D02*
X142142857Y-120097676D01*
X142142857Y-120097676D02*
X142095238Y-120288152D01*
X142095238Y-120288152D02*
X142095238Y-120621485D01*
X142095238Y-120621485D02*
X142142857Y-120811961D01*
X142142857Y-120811961D02*
X142238095Y-120907200D01*
X142238095Y-120907200D02*
X142333333Y-120954819D01*
X142333333Y-120954819D02*
X142523809Y-120954819D01*
X142523809Y-120954819D02*
X142619047Y-120907200D01*
X142619047Y-120907200D02*
X142714285Y-120811961D01*
X142714285Y-120811961D02*
X142761904Y-120621485D01*
X142761904Y-120621485D02*
X142761904Y-120288152D01*
X142761904Y-120288152D02*
X142714285Y-120097676D01*
X142714285Y-120097676D02*
X142619047Y-120002438D01*
X142619047Y-120002438D02*
X142523809Y-119954819D01*
X141238095Y-120288152D02*
X141238095Y-120954819D01*
X141666666Y-120288152D02*
X141666666Y-120811961D01*
X141666666Y-120811961D02*
X141619047Y-120907200D01*
X141619047Y-120907200D02*
X141523809Y-120954819D01*
X141523809Y-120954819D02*
X141380952Y-120954819D01*
X141380952Y-120954819D02*
X141285714Y-120907200D01*
X141285714Y-120907200D02*
X141238095Y-120859580D01*
X140904761Y-120288152D02*
X140523809Y-120288152D01*
X140761904Y-119954819D02*
X140761904Y-120811961D01*
X140761904Y-120811961D02*
X140714285Y-120907200D01*
X140714285Y-120907200D02*
X140619047Y-120954819D01*
X140619047Y-120954819D02*
X140523809Y-120954819D01*
X140190475Y-120288152D02*
X140190475Y-121288152D01*
X140190475Y-120335771D02*
X140095237Y-120288152D01*
X140095237Y-120288152D02*
X139904761Y-120288152D01*
X139904761Y-120288152D02*
X139809523Y-120335771D01*
X139809523Y-120335771D02*
X139761904Y-120383390D01*
X139761904Y-120383390D02*
X139714285Y-120478628D01*
X139714285Y-120478628D02*
X139714285Y-120764342D01*
X139714285Y-120764342D02*
X139761904Y-120859580D01*
X139761904Y-120859580D02*
X139809523Y-120907200D01*
X139809523Y-120907200D02*
X139904761Y-120954819D01*
X139904761Y-120954819D02*
X140095237Y-120954819D01*
X140095237Y-120954819D02*
X140190475Y-120907200D01*
X138857142Y-120288152D02*
X138857142Y-120954819D01*
X139285713Y-120288152D02*
X139285713Y-120811961D01*
X139285713Y-120811961D02*
X139238094Y-120907200D01*
X139238094Y-120907200D02*
X139142856Y-120954819D01*
X139142856Y-120954819D02*
X138999999Y-120954819D01*
X138999999Y-120954819D02*
X138904761Y-120907200D01*
X138904761Y-120907200D02*
X138857142Y-120859580D01*
X138523808Y-120288152D02*
X138142856Y-120288152D01*
X138380951Y-119954819D02*
X138380951Y-120811961D01*
X138380951Y-120811961D02*
X138333332Y-120907200D01*
X138333332Y-120907200D02*
X138238094Y-120954819D01*
X138238094Y-120954819D02*
X138142856Y-120954819D01*
X130047619Y-91954819D02*
X130380952Y-91478628D01*
X130619047Y-91954819D02*
X130619047Y-90954819D01*
X130619047Y-90954819D02*
X130238095Y-90954819D01*
X130238095Y-90954819D02*
X130142857Y-91002438D01*
X130142857Y-91002438D02*
X130095238Y-91050057D01*
X130095238Y-91050057D02*
X130047619Y-91145295D01*
X130047619Y-91145295D02*
X130047619Y-91288152D01*
X130047619Y-91288152D02*
X130095238Y-91383390D01*
X130095238Y-91383390D02*
X130142857Y-91431009D01*
X130142857Y-91431009D02*
X130238095Y-91478628D01*
X130238095Y-91478628D02*
X130619047Y-91478628D01*
X129190476Y-91288152D02*
X129190476Y-91954819D01*
X129428571Y-90907200D02*
X129666666Y-91621485D01*
X129666666Y-91621485D02*
X129047619Y-91621485D01*
X127333333Y-91954819D02*
X127666666Y-91478628D01*
X127904761Y-91954819D02*
X127904761Y-90954819D01*
X127904761Y-90954819D02*
X127523809Y-90954819D01*
X127523809Y-90954819D02*
X127428571Y-91002438D01*
X127428571Y-91002438D02*
X127380952Y-91050057D01*
X127380952Y-91050057D02*
X127333333Y-91145295D01*
X127333333Y-91145295D02*
X127333333Y-91288152D01*
X127333333Y-91288152D02*
X127380952Y-91383390D01*
X127380952Y-91383390D02*
X127428571Y-91431009D01*
X127428571Y-91431009D02*
X127523809Y-91478628D01*
X127523809Y-91478628D02*
X127904761Y-91478628D01*
X160642856Y-78954819D02*
X160642856Y-77954819D01*
X160166666Y-78288152D02*
X160166666Y-78954819D01*
X160166666Y-78383390D02*
X160119047Y-78335771D01*
X160119047Y-78335771D02*
X160023809Y-78288152D01*
X160023809Y-78288152D02*
X159880952Y-78288152D01*
X159880952Y-78288152D02*
X159785714Y-78335771D01*
X159785714Y-78335771D02*
X159738095Y-78431009D01*
X159738095Y-78431009D02*
X159738095Y-78954819D01*
X159261904Y-78288152D02*
X159261904Y-79288152D01*
X159261904Y-78335771D02*
X159166666Y-78288152D01*
X159166666Y-78288152D02*
X158976190Y-78288152D01*
X158976190Y-78288152D02*
X158880952Y-78335771D01*
X158880952Y-78335771D02*
X158833333Y-78383390D01*
X158833333Y-78383390D02*
X158785714Y-78478628D01*
X158785714Y-78478628D02*
X158785714Y-78764342D01*
X158785714Y-78764342D02*
X158833333Y-78859580D01*
X158833333Y-78859580D02*
X158880952Y-78907200D01*
X158880952Y-78907200D02*
X158976190Y-78954819D01*
X158976190Y-78954819D02*
X159166666Y-78954819D01*
X159166666Y-78954819D02*
X159261904Y-78907200D01*
X157928571Y-78288152D02*
X157928571Y-78954819D01*
X158357142Y-78288152D02*
X158357142Y-78811961D01*
X158357142Y-78811961D02*
X158309523Y-78907200D01*
X158309523Y-78907200D02*
X158214285Y-78954819D01*
X158214285Y-78954819D02*
X158071428Y-78954819D01*
X158071428Y-78954819D02*
X157976190Y-78907200D01*
X157976190Y-78907200D02*
X157928571Y-78859580D01*
X157595237Y-78288152D02*
X157214285Y-78288152D01*
X157452380Y-77954819D02*
X157452380Y-78811961D01*
X157452380Y-78811961D02*
X157404761Y-78907200D01*
X157404761Y-78907200D02*
X157309523Y-78954819D01*
X157309523Y-78954819D02*
X157214285Y-78954819D01*
X130047619Y-103954819D02*
X130380952Y-103478628D01*
X130619047Y-103954819D02*
X130619047Y-102954819D01*
X130619047Y-102954819D02*
X130238095Y-102954819D01*
X130238095Y-102954819D02*
X130142857Y-103002438D01*
X130142857Y-103002438D02*
X130095238Y-103050057D01*
X130095238Y-103050057D02*
X130047619Y-103145295D01*
X130047619Y-103145295D02*
X130047619Y-103288152D01*
X130047619Y-103288152D02*
X130095238Y-103383390D01*
X130095238Y-103383390D02*
X130142857Y-103431009D01*
X130142857Y-103431009D02*
X130238095Y-103478628D01*
X130238095Y-103478628D02*
X130619047Y-103478628D01*
X129666666Y-103050057D02*
X129619047Y-103002438D01*
X129619047Y-103002438D02*
X129523809Y-102954819D01*
X129523809Y-102954819D02*
X129285714Y-102954819D01*
X129285714Y-102954819D02*
X129190476Y-103002438D01*
X129190476Y-103002438D02*
X129142857Y-103050057D01*
X129142857Y-103050057D02*
X129095238Y-103145295D01*
X129095238Y-103145295D02*
X129095238Y-103240533D01*
X129095238Y-103240533D02*
X129142857Y-103383390D01*
X129142857Y-103383390D02*
X129714285Y-103954819D01*
X129714285Y-103954819D02*
X129095238Y-103954819D01*
X127333333Y-103954819D02*
X127666666Y-103478628D01*
X127904761Y-103954819D02*
X127904761Y-102954819D01*
X127904761Y-102954819D02*
X127523809Y-102954819D01*
X127523809Y-102954819D02*
X127428571Y-103002438D01*
X127428571Y-103002438D02*
X127380952Y-103050057D01*
X127380952Y-103050057D02*
X127333333Y-103145295D01*
X127333333Y-103145295D02*
X127333333Y-103288152D01*
X127333333Y-103288152D02*
X127380952Y-103383390D01*
X127380952Y-103383390D02*
X127428571Y-103431009D01*
X127428571Y-103431009D02*
X127523809Y-103478628D01*
X127523809Y-103478628D02*
X127904761Y-103478628D01*
X171952381Y-85954819D02*
X172285714Y-85478628D01*
X172523809Y-85954819D02*
X172523809Y-84954819D01*
X172523809Y-84954819D02*
X172142857Y-84954819D01*
X172142857Y-84954819D02*
X172047619Y-85002438D01*
X172047619Y-85002438D02*
X172000000Y-85050057D01*
X172000000Y-85050057D02*
X171952381Y-85145295D01*
X171952381Y-85145295D02*
X171952381Y-85288152D01*
X171952381Y-85288152D02*
X172000000Y-85383390D01*
X172000000Y-85383390D02*
X172047619Y-85431009D01*
X172047619Y-85431009D02*
X172142857Y-85478628D01*
X172142857Y-85478628D02*
X172523809Y-85478628D01*
X171000000Y-85954819D02*
X171571428Y-85954819D01*
X171285714Y-85954819D02*
X171285714Y-84954819D01*
X171285714Y-84954819D02*
X171380952Y-85097676D01*
X171380952Y-85097676D02*
X171476190Y-85192914D01*
X171476190Y-85192914D02*
X171571428Y-85240533D01*
X169333333Y-85954819D02*
X169809523Y-85954819D01*
X169809523Y-85954819D02*
X169809523Y-84954819D01*
X171952381Y-109954819D02*
X172285714Y-109478628D01*
X172523809Y-109954819D02*
X172523809Y-108954819D01*
X172523809Y-108954819D02*
X172142857Y-108954819D01*
X172142857Y-108954819D02*
X172047619Y-109002438D01*
X172047619Y-109002438D02*
X172000000Y-109050057D01*
X172000000Y-109050057D02*
X171952381Y-109145295D01*
X171952381Y-109145295D02*
X171952381Y-109288152D01*
X171952381Y-109288152D02*
X172000000Y-109383390D01*
X172000000Y-109383390D02*
X172047619Y-109431009D01*
X172047619Y-109431009D02*
X172142857Y-109478628D01*
X172142857Y-109478628D02*
X172523809Y-109478628D01*
X171047619Y-108954819D02*
X171523809Y-108954819D01*
X171523809Y-108954819D02*
X171571428Y-109431009D01*
X171571428Y-109431009D02*
X171523809Y-109383390D01*
X171523809Y-109383390D02*
X171428571Y-109335771D01*
X171428571Y-109335771D02*
X171190476Y-109335771D01*
X171190476Y-109335771D02*
X171095238Y-109383390D01*
X171095238Y-109383390D02*
X171047619Y-109431009D01*
X171047619Y-109431009D02*
X171000000Y-109526247D01*
X171000000Y-109526247D02*
X171000000Y-109764342D01*
X171000000Y-109764342D02*
X171047619Y-109859580D01*
X171047619Y-109859580D02*
X171095238Y-109907200D01*
X171095238Y-109907200D02*
X171190476Y-109954819D01*
X171190476Y-109954819D02*
X171428571Y-109954819D01*
X171428571Y-109954819D02*
X171523809Y-109907200D01*
X171523809Y-109907200D02*
X171571428Y-109859580D01*
X169333333Y-109954819D02*
X169809523Y-109954819D01*
X169809523Y-109954819D02*
X169809523Y-108954819D01*
X130047619Y-85954819D02*
X130380952Y-85478628D01*
X130619047Y-85954819D02*
X130619047Y-84954819D01*
X130619047Y-84954819D02*
X130238095Y-84954819D01*
X130238095Y-84954819D02*
X130142857Y-85002438D01*
X130142857Y-85002438D02*
X130095238Y-85050057D01*
X130095238Y-85050057D02*
X130047619Y-85145295D01*
X130047619Y-85145295D02*
X130047619Y-85288152D01*
X130047619Y-85288152D02*
X130095238Y-85383390D01*
X130095238Y-85383390D02*
X130142857Y-85431009D01*
X130142857Y-85431009D02*
X130238095Y-85478628D01*
X130238095Y-85478628D02*
X130619047Y-85478628D01*
X129142857Y-84954819D02*
X129619047Y-84954819D01*
X129619047Y-84954819D02*
X129666666Y-85431009D01*
X129666666Y-85431009D02*
X129619047Y-85383390D01*
X129619047Y-85383390D02*
X129523809Y-85335771D01*
X129523809Y-85335771D02*
X129285714Y-85335771D01*
X129285714Y-85335771D02*
X129190476Y-85383390D01*
X129190476Y-85383390D02*
X129142857Y-85431009D01*
X129142857Y-85431009D02*
X129095238Y-85526247D01*
X129095238Y-85526247D02*
X129095238Y-85764342D01*
X129095238Y-85764342D02*
X129142857Y-85859580D01*
X129142857Y-85859580D02*
X129190476Y-85907200D01*
X129190476Y-85907200D02*
X129285714Y-85954819D01*
X129285714Y-85954819D02*
X129523809Y-85954819D01*
X129523809Y-85954819D02*
X129619047Y-85907200D01*
X129619047Y-85907200D02*
X129666666Y-85859580D01*
X127333333Y-85954819D02*
X127666666Y-85478628D01*
X127904761Y-85954819D02*
X127904761Y-84954819D01*
X127904761Y-84954819D02*
X127523809Y-84954819D01*
X127523809Y-84954819D02*
X127428571Y-85002438D01*
X127428571Y-85002438D02*
X127380952Y-85050057D01*
X127380952Y-85050057D02*
X127333333Y-85145295D01*
X127333333Y-85145295D02*
X127333333Y-85288152D01*
X127333333Y-85288152D02*
X127380952Y-85383390D01*
X127380952Y-85383390D02*
X127428571Y-85431009D01*
X127428571Y-85431009D02*
X127523809Y-85478628D01*
X127523809Y-85478628D02*
X127904761Y-85478628D01*
X171952381Y-97954819D02*
X172285714Y-97478628D01*
X172523809Y-97954819D02*
X172523809Y-96954819D01*
X172523809Y-96954819D02*
X172142857Y-96954819D01*
X172142857Y-96954819D02*
X172047619Y-97002438D01*
X172047619Y-97002438D02*
X172000000Y-97050057D01*
X172000000Y-97050057D02*
X171952381Y-97145295D01*
X171952381Y-97145295D02*
X171952381Y-97288152D01*
X171952381Y-97288152D02*
X172000000Y-97383390D01*
X172000000Y-97383390D02*
X172047619Y-97431009D01*
X172047619Y-97431009D02*
X172142857Y-97478628D01*
X172142857Y-97478628D02*
X172523809Y-97478628D01*
X171619047Y-96954819D02*
X171000000Y-96954819D01*
X171000000Y-96954819D02*
X171333333Y-97335771D01*
X171333333Y-97335771D02*
X171190476Y-97335771D01*
X171190476Y-97335771D02*
X171095238Y-97383390D01*
X171095238Y-97383390D02*
X171047619Y-97431009D01*
X171047619Y-97431009D02*
X171000000Y-97526247D01*
X171000000Y-97526247D02*
X171000000Y-97764342D01*
X171000000Y-97764342D02*
X171047619Y-97859580D01*
X171047619Y-97859580D02*
X171095238Y-97907200D01*
X171095238Y-97907200D02*
X171190476Y-97954819D01*
X171190476Y-97954819D02*
X171476190Y-97954819D01*
X171476190Y-97954819D02*
X171571428Y-97907200D01*
X171571428Y-97907200D02*
X171619047Y-97859580D01*
X169333333Y-97954819D02*
X169809523Y-97954819D01*
X169809523Y-97954819D02*
X169809523Y-96954819D01*
X130047619Y-109954819D02*
X130380952Y-109478628D01*
X130619047Y-109954819D02*
X130619047Y-108954819D01*
X130619047Y-108954819D02*
X130238095Y-108954819D01*
X130238095Y-108954819D02*
X130142857Y-109002438D01*
X130142857Y-109002438D02*
X130095238Y-109050057D01*
X130095238Y-109050057D02*
X130047619Y-109145295D01*
X130047619Y-109145295D02*
X130047619Y-109288152D01*
X130047619Y-109288152D02*
X130095238Y-109383390D01*
X130095238Y-109383390D02*
X130142857Y-109431009D01*
X130142857Y-109431009D02*
X130238095Y-109478628D01*
X130238095Y-109478628D02*
X130619047Y-109478628D01*
X129095238Y-109954819D02*
X129666666Y-109954819D01*
X129380952Y-109954819D02*
X129380952Y-108954819D01*
X129380952Y-108954819D02*
X129476190Y-109097676D01*
X129476190Y-109097676D02*
X129571428Y-109192914D01*
X129571428Y-109192914D02*
X129666666Y-109240533D01*
X127333333Y-109954819D02*
X127666666Y-109478628D01*
X127904761Y-109954819D02*
X127904761Y-108954819D01*
X127904761Y-108954819D02*
X127523809Y-108954819D01*
X127523809Y-108954819D02*
X127428571Y-109002438D01*
X127428571Y-109002438D02*
X127380952Y-109050057D01*
X127380952Y-109050057D02*
X127333333Y-109145295D01*
X127333333Y-109145295D02*
X127333333Y-109288152D01*
X127333333Y-109288152D02*
X127380952Y-109383390D01*
X127380952Y-109383390D02*
X127428571Y-109431009D01*
X127428571Y-109431009D02*
X127523809Y-109478628D01*
X127523809Y-109478628D02*
X127904761Y-109478628D01*
D13*
%TO.C,R2 L*%
X175040000Y-94000000D02*
X174270000Y-94000000D01*
X174270000Y-95370000D02*
X167730000Y-95370000D01*
X174270000Y-92630000D02*
X174270000Y-95370000D01*
X167730000Y-95370000D02*
X167730000Y-92630000D01*
X167730000Y-92630000D02*
X174270000Y-92630000D01*
X166960000Y-94000000D02*
X167730000Y-94000000D01*
%TO.C,R4 L*%
X175040000Y-106000000D02*
X174270000Y-106000000D01*
X174270000Y-107370000D02*
X167730000Y-107370000D01*
X174270000Y-104630000D02*
X174270000Y-107370000D01*
X167730000Y-107370000D02*
X167730000Y-104630000D01*
X167730000Y-104630000D02*
X174270000Y-104630000D01*
X166960000Y-106000000D02*
X167730000Y-106000000D01*
%TO.C,R3 R*%
X132960000Y-100000000D02*
X132190000Y-100000000D01*
X132190000Y-101370000D02*
X125650000Y-101370000D01*
X132190000Y-98630000D02*
X132190000Y-101370000D01*
X125650000Y-101370000D02*
X125650000Y-98630000D01*
X125650000Y-98630000D02*
X132190000Y-98630000D01*
X124880000Y-100000000D02*
X125650000Y-100000000D01*
%TO.C,J2*%
X156000000Y-125800000D02*
X156000000Y-114800000D01*
X156000000Y-114800000D02*
X144000000Y-114800000D01*
X154500000Y-127000000D02*
X154500000Y-125800000D01*
X154500000Y-125800000D02*
X156000000Y-125800000D01*
X153000000Y-128800000D02*
X153000000Y-127000000D01*
X153000000Y-127000000D02*
X154500000Y-127000000D01*
X152000000Y-125800000D02*
X152000000Y-128800000D01*
X148000000Y-128800000D02*
X148000000Y-125800000D01*
X148000000Y-125800000D02*
X152000000Y-125800000D01*
X147000000Y-128800000D02*
X153000000Y-128800000D01*
X147000000Y-127000000D02*
X147000000Y-128800000D01*
X145500000Y-127000000D02*
X147000000Y-127000000D01*
X145500000Y-125800000D02*
X145500000Y-127000000D01*
X144000000Y-125800000D02*
X145500000Y-125800000D01*
X144000000Y-114800000D02*
X144000000Y-125800000D01*
%TO.C,R4 R*%
X133040000Y-94000000D02*
X132270000Y-94000000D01*
X132270000Y-95370000D02*
X125730000Y-95370000D01*
X132270000Y-92630000D02*
X132270000Y-95370000D01*
X125730000Y-95370000D02*
X125730000Y-92630000D01*
X125730000Y-92630000D02*
X132270000Y-92630000D01*
X124960000Y-94000000D02*
X125730000Y-94000000D01*
%TO.C,J1*%
X144000000Y-74200000D02*
X144000000Y-85200000D01*
X144000000Y-85200000D02*
X156000000Y-85200000D01*
X145500000Y-73000000D02*
X145500000Y-74200000D01*
X145500000Y-74200000D02*
X144000000Y-74200000D01*
X147000000Y-71200000D02*
X147000000Y-73000000D01*
X147000000Y-73000000D02*
X145500000Y-73000000D01*
X148000000Y-74200000D02*
X148000000Y-71200000D01*
X152000000Y-71200000D02*
X152000000Y-74200000D01*
X152000000Y-74200000D02*
X148000000Y-74200000D01*
X153000000Y-71200000D02*
X147000000Y-71200000D01*
X153000000Y-73000000D02*
X153000000Y-71200000D01*
X154500000Y-73000000D02*
X153000000Y-73000000D01*
X154500000Y-74200000D02*
X154500000Y-73000000D01*
X156000000Y-74200000D02*
X154500000Y-74200000D01*
X156000000Y-85200000D02*
X156000000Y-74200000D01*
%TO.C,R2 R*%
X124960000Y-106000000D02*
X125730000Y-106000000D01*
X125730000Y-104630000D02*
X132270000Y-104630000D01*
X125730000Y-107370000D02*
X125730000Y-104630000D01*
X132270000Y-104630000D02*
X132270000Y-107370000D01*
X132270000Y-107370000D02*
X125730000Y-107370000D01*
X133040000Y-106000000D02*
X132270000Y-106000000D01*
%TO.C,*%
G36*
X168379021Y-121654348D02*
G01*
X168384453Y-121654622D01*
X168389884Y-121655303D01*
X168395983Y-121656561D01*
X168403418Y-121658566D01*
X168412858Y-121661486D01*
X168424971Y-121665491D01*
X168440426Y-121670751D01*
X168450543Y-121674177D01*
X168489100Y-121686610D01*
X168531222Y-121699316D01*
X168576391Y-121712168D01*
X168624084Y-121725042D01*
X168673782Y-121737811D01*
X168724963Y-121750352D01*
X168777107Y-121762537D01*
X168829692Y-121774242D01*
X168882200Y-121785341D01*
X168934108Y-121795709D01*
X168984896Y-121805221D01*
X169034043Y-121813751D01*
X169045377Y-121815650D01*
X169062364Y-121818565D01*
X169078117Y-121821345D01*
X169092041Y-121823882D01*
X169103543Y-121826067D01*
X169112031Y-121827792D01*
X169116910Y-121828947D01*
X169131659Y-121834135D01*
X169145285Y-121840997D01*
X169156163Y-121848829D01*
X169164000Y-121857311D01*
X169168505Y-121866121D01*
X169169385Y-121874938D01*
X169166350Y-121883440D01*
X169164124Y-121886562D01*
X169155777Y-121894637D01*
X169144445Y-121902233D01*
X169131036Y-121908797D01*
X169116459Y-121913776D01*
X169114894Y-121914177D01*
X169106766Y-121915687D01*
X169097277Y-121916498D01*
X169086027Y-121916583D01*
X169072617Y-121915915D01*
X169056645Y-121914467D01*
X169037712Y-121912212D01*
X169015418Y-121909122D01*
X168989362Y-121905171D01*
X168968333Y-121901734D01*
X168919530Y-121892747D01*
X168867496Y-121881868D01*
X168812587Y-121869184D01*
X168755156Y-121854783D01*
X168695558Y-121838750D01*
X168634147Y-121821175D01*
X168571277Y-121802144D01*
X168562806Y-121799503D01*
X168544471Y-121793738D01*
X168524981Y-121787554D01*
X168504768Y-121781093D01*
X168484269Y-121774496D01*
X168463916Y-121767907D01*
X168444145Y-121761468D01*
X168425389Y-121755319D01*
X168408084Y-121749605D01*
X168392663Y-121744466D01*
X168379561Y-121740045D01*
X168369212Y-121736484D01*
X168362051Y-121733925D01*
X168358511Y-121732511D01*
X168350984Y-121727988D01*
X168342255Y-121719340D01*
X168337181Y-121708598D01*
X168335611Y-121695514D01*
X168335908Y-121690192D01*
X168338667Y-121677688D01*
X168343954Y-121667084D01*
X168351328Y-121659392D01*
X168355582Y-121656773D01*
X168360202Y-121655200D01*
X168366409Y-121654472D01*
X168375532Y-121654309D01*
X168379021Y-121654348D01*
G37*
G36*
X167698967Y-121658921D02*
G01*
X167709909Y-121664039D01*
X167718258Y-121671830D01*
X167723595Y-121682004D01*
X167725497Y-121694271D01*
X167725495Y-121695028D01*
X167724094Y-121705630D01*
X167719712Y-121714569D01*
X167711752Y-121723094D01*
X167709299Y-121725157D01*
X167699708Y-121731737D01*
X167687799Y-121737723D01*
X167672614Y-121743619D01*
X167665599Y-121746079D01*
X167645886Y-121752939D01*
X167628199Y-121758983D01*
X167611923Y-121764394D01*
X167596441Y-121769352D01*
X167581136Y-121774038D01*
X167565393Y-121778635D01*
X167548596Y-121783323D01*
X167530127Y-121788284D01*
X167509370Y-121793699D01*
X167485710Y-121799750D01*
X167458529Y-121806617D01*
X167451592Y-121808364D01*
X167427690Y-121814396D01*
X167403532Y-121820510D01*
X167379747Y-121826547D01*
X167356958Y-121832346D01*
X167335793Y-121837749D01*
X167316877Y-121842596D01*
X167300837Y-121846727D01*
X167288298Y-121849983D01*
X167245758Y-121860784D01*
X167197984Y-121872036D01*
X167153789Y-121881413D01*
X167113055Y-121888940D01*
X167075662Y-121894638D01*
X167041490Y-121898533D01*
X167032348Y-121899253D01*
X167017822Y-121900112D01*
X167001518Y-121900835D01*
X166984830Y-121901362D01*
X166969155Y-121901633D01*
X166961974Y-121901690D01*
X166949139Y-121901745D01*
X166939526Y-121901652D01*
X166932429Y-121901345D01*
X166927139Y-121900761D01*
X166922951Y-121899835D01*
X166919157Y-121898503D01*
X166915049Y-121896699D01*
X166905407Y-121891547D01*
X166895230Y-121884463D01*
X166886965Y-121876925D01*
X166881686Y-121869800D01*
X166879814Y-121865011D01*
X166878353Y-121855843D01*
X166878953Y-121846746D01*
X166881619Y-121839544D01*
X166883375Y-121837255D01*
X166891052Y-121831015D01*
X166902692Y-121825236D01*
X166918351Y-121819902D01*
X166938083Y-121814996D01*
X166961944Y-121810501D01*
X166989989Y-121806400D01*
X167003383Y-121804626D01*
X167058481Y-121796608D01*
X167116843Y-121787025D01*
X167177958Y-121775971D01*
X167241309Y-121763537D01*
X167306383Y-121749814D01*
X167349796Y-121740265D01*
X167398398Y-121729337D01*
X167442823Y-121719068D01*
X167483067Y-121709460D01*
X167519126Y-121700514D01*
X167550995Y-121692230D01*
X167578670Y-121684611D01*
X167602146Y-121677656D01*
X167603706Y-121677173D01*
X167619333Y-121672403D01*
X167634155Y-121667991D01*
X167647522Y-121664123D01*
X167658783Y-121660982D01*
X167667287Y-121658756D01*
X167672386Y-121657630D01*
X167685856Y-121656768D01*
X167698967Y-121658921D01*
G37*
G36*
X167628780Y-121348016D02*
G01*
X167645792Y-121351788D01*
X167659745Y-121358508D01*
X167670660Y-121368188D01*
X167678557Y-121380841D01*
X167681697Y-121389675D01*
X167683052Y-121401317D01*
X167680951Y-121411567D01*
X167675531Y-121419899D01*
X167666928Y-121425786D01*
X167666525Y-121425960D01*
X167662971Y-121427267D01*
X167657690Y-121428899D01*
X167650480Y-121430903D01*
X167641138Y-121433327D01*
X167629462Y-121436219D01*
X167615247Y-121439626D01*
X167598293Y-121443595D01*
X167578395Y-121448175D01*
X167555351Y-121453412D01*
X167528959Y-121459354D01*
X167499014Y-121466050D01*
X167465316Y-121473545D01*
X167427660Y-121481889D01*
X167417730Y-121484086D01*
X167382053Y-121492000D01*
X167349981Y-121499147D01*
X167321073Y-121505631D01*
X167294888Y-121511554D01*
X167270984Y-121517019D01*
X167248922Y-121522128D01*
X167228260Y-121526985D01*
X167208557Y-121531691D01*
X167189373Y-121536349D01*
X167170267Y-121541063D01*
X167150798Y-121545933D01*
X167130525Y-121551065D01*
X167124160Y-121552674D01*
X167106985Y-121556934D01*
X167090427Y-121560926D01*
X167075184Y-121564490D01*
X167061958Y-121567463D01*
X167051448Y-121569684D01*
X167044355Y-121570989D01*
X167026172Y-121573280D01*
X167009920Y-121574159D01*
X166996990Y-121573457D01*
X166987698Y-121571175D01*
X166982817Y-121568758D01*
X166972827Y-121561207D01*
X166964775Y-121551538D01*
X166959402Y-121540759D01*
X166957447Y-121529880D01*
X166957543Y-121527918D01*
X166959771Y-121520419D01*
X166965172Y-121512708D01*
X166974044Y-121504434D01*
X166986682Y-121495244D01*
X166994011Y-121490427D01*
X167001257Y-121485944D01*
X167008317Y-121482021D01*
X167015673Y-121478492D01*
X167023808Y-121475191D01*
X167033203Y-121471954D01*
X167044340Y-121468616D01*
X167057702Y-121465011D01*
X167073771Y-121460974D01*
X167093029Y-121456340D01*
X167115958Y-121450944D01*
X167118591Y-121450329D01*
X167147722Y-121443591D01*
X167178180Y-121436671D01*
X167209678Y-121429625D01*
X167241925Y-121422514D01*
X167274635Y-121415396D01*
X167307518Y-121408328D01*
X167340287Y-121401370D01*
X167372652Y-121394581D01*
X167404326Y-121388019D01*
X167435019Y-121381742D01*
X167464445Y-121375810D01*
X167492313Y-121370280D01*
X167518337Y-121365212D01*
X167542226Y-121360664D01*
X167563694Y-121356695D01*
X167582451Y-121353363D01*
X167598210Y-121350727D01*
X167610681Y-121348845D01*
X167619577Y-121347776D01*
X167624609Y-121347579D01*
X167628780Y-121348016D01*
G37*
G36*
X168406845Y-121349202D02*
G01*
X168411171Y-121350075D01*
X168424515Y-121352578D01*
X168435205Y-121354184D01*
X168444383Y-121355045D01*
X168453192Y-121355311D01*
X168458712Y-121355578D01*
X168468692Y-121356657D01*
X168480132Y-121358371D01*
X168491490Y-121360511D01*
X168496920Y-121361656D01*
X168506708Y-121363715D01*
X168519812Y-121366469D01*
X168535777Y-121369823D01*
X168554146Y-121373680D01*
X168574464Y-121377944D01*
X168596275Y-121382521D01*
X168619123Y-121387315D01*
X168642554Y-121392229D01*
X168660485Y-121395996D01*
X168684385Y-121401040D01*
X168707740Y-121405991D01*
X168730031Y-121410740D01*
X168750743Y-121415175D01*
X168769358Y-121419186D01*
X168785358Y-121422662D01*
X168798227Y-121425492D01*
X168807447Y-121427565D01*
X168809404Y-121428013D01*
X168840117Y-121434903D01*
X168870933Y-121441517D01*
X168903222Y-121448142D01*
X168938354Y-121455067D01*
X168943855Y-121456151D01*
X168967403Y-121461316D01*
X168987691Y-121466817D01*
X169005539Y-121472964D01*
X169021767Y-121480069D01*
X169037195Y-121488443D01*
X169052644Y-121498396D01*
X169054846Y-121499941D01*
X169065815Y-121508879D01*
X169072870Y-121517451D01*
X169076216Y-121526144D01*
X169076057Y-121535444D01*
X169072597Y-121545836D01*
X169071389Y-121548286D01*
X169063376Y-121558833D01*
X169051961Y-121566893D01*
X169037234Y-121572397D01*
X169036060Y-121572689D01*
X169029537Y-121573910D01*
X169022471Y-121574447D01*
X169014356Y-121574233D01*
X169004684Y-121573200D01*
X168992946Y-121571282D01*
X168978636Y-121568411D01*
X168961245Y-121564520D01*
X168940267Y-121559541D01*
X168928328Y-121556679D01*
X168911660Y-121552732D01*
X168891960Y-121548103D01*
X168869815Y-121542929D01*
X168845811Y-121537346D01*
X168820537Y-121531492D01*
X168794579Y-121525502D01*
X168768526Y-121519514D01*
X168742965Y-121513664D01*
X168730690Y-121510861D01*
X168701580Y-121504212D01*
X168670498Y-121497112D01*
X168638318Y-121489760D01*
X168605915Y-121482356D01*
X168574162Y-121475099D01*
X168543935Y-121468190D01*
X168516107Y-121461829D01*
X168491554Y-121456214D01*
X168478259Y-121453158D01*
X168456968Y-121448199D01*
X168436941Y-121443455D01*
X168418592Y-121439030D01*
X168402333Y-121435024D01*
X168388576Y-121431541D01*
X168377734Y-121428682D01*
X168370219Y-121426550D01*
X168366444Y-121425246D01*
X168357811Y-121419617D01*
X168352137Y-121411993D01*
X168350166Y-121402586D01*
X168351868Y-121391240D01*
X168357213Y-121377801D01*
X168361640Y-121369941D01*
X168370818Y-121358871D01*
X168381506Y-121351669D01*
X168393563Y-121348419D01*
X168406845Y-121349202D01*
G37*
G36*
X166868057Y-122709812D02*
G01*
X166873267Y-122714625D01*
X166880356Y-122722241D01*
X166889794Y-122732856D01*
X166912132Y-122757573D01*
X166943444Y-122790745D01*
X166977134Y-122824988D01*
X167012510Y-122859637D01*
X167048880Y-122894031D01*
X167085553Y-122927505D01*
X167121836Y-122959396D01*
X167157037Y-122989041D01*
X167168490Y-122998369D01*
X167214786Y-123034528D01*
X167264790Y-123071308D01*
X167318145Y-123108493D01*
X167374493Y-123145865D01*
X167433476Y-123183204D01*
X167494736Y-123220295D01*
X167557916Y-123256918D01*
X167622658Y-123292856D01*
X167688604Y-123327891D01*
X167755395Y-123361805D01*
X167822676Y-123394380D01*
X167824207Y-123395107D01*
X167838078Y-123402186D01*
X167848407Y-123408614D01*
X167855710Y-123414822D01*
X167860501Y-123421239D01*
X167863294Y-123428295D01*
X167863321Y-123428424D01*
X167863541Y-123431831D01*
X167863743Y-123439026D01*
X167863925Y-123449590D01*
X167864087Y-123463105D01*
X167864227Y-123479152D01*
X167864345Y-123497311D01*
X167864439Y-123517164D01*
X167864510Y-123538292D01*
X167864555Y-123560276D01*
X167864575Y-123582696D01*
X167864567Y-123605134D01*
X167864532Y-123627171D01*
X167864468Y-123648388D01*
X167864375Y-123668366D01*
X167864251Y-123686685D01*
X167864096Y-123702928D01*
X167863909Y-123716675D01*
X167863832Y-123717705D01*
X167861280Y-123723580D01*
X167856205Y-123728140D01*
X167850075Y-123729974D01*
X167847914Y-123729861D01*
X167843678Y-123729120D01*
X167838178Y-123727544D01*
X167830986Y-123724963D01*
X167821672Y-123721211D01*
X167809810Y-123716120D01*
X167794969Y-123709521D01*
X167776721Y-123701247D01*
X167770888Y-123698579D01*
X167736696Y-123682721D01*
X167698952Y-123664865D01*
X167657795Y-123645079D01*
X167613364Y-123623430D01*
X167565795Y-123599984D01*
X167515228Y-123574809D01*
X167497704Y-123566056D01*
X167480721Y-123557596D01*
X167465277Y-123549927D01*
X167451749Y-123543235D01*
X167440515Y-123537705D01*
X167431953Y-123533525D01*
X167426439Y-123530880D01*
X167424351Y-123529957D01*
X167424231Y-123531523D01*
X167424102Y-123537100D01*
X167423983Y-123546487D01*
X167423876Y-123559445D01*
X167423780Y-123575737D01*
X167423697Y-123595123D01*
X167423627Y-123617364D01*
X167423571Y-123642222D01*
X167423529Y-123669459D01*
X167423502Y-123698834D01*
X167423491Y-123730111D01*
X167423496Y-123763049D01*
X167423517Y-123797410D01*
X167423557Y-123832956D01*
X167423609Y-123872858D01*
X167423654Y-123910950D01*
X167423687Y-123945197D01*
X167423705Y-123975812D01*
X167423705Y-124003006D01*
X167423685Y-124026991D01*
X167423644Y-124047977D01*
X167423577Y-124066175D01*
X167423483Y-124081798D01*
X167423360Y-124095057D01*
X167423205Y-124106163D01*
X167423015Y-124115326D01*
X167422788Y-124122760D01*
X167422522Y-124128674D01*
X167422214Y-124133280D01*
X167421861Y-124136790D01*
X167421462Y-124139415D01*
X167421014Y-124141367D01*
X167420514Y-124142855D01*
X167419961Y-124144093D01*
X167419346Y-124145242D01*
X167414421Y-124151671D01*
X167408511Y-124156546D01*
X167407161Y-124157285D01*
X167405005Y-124158215D01*
X167402273Y-124158982D01*
X167398557Y-124159609D01*
X167393448Y-124160119D01*
X167386536Y-124160533D01*
X167377414Y-124160876D01*
X167365672Y-124161169D01*
X167350901Y-124161436D01*
X167332693Y-124161699D01*
X167310639Y-124161980D01*
X167303844Y-124162065D01*
X167283511Y-124162323D01*
X167263728Y-124162581D01*
X167245114Y-124162830D01*
X167228284Y-124163063D01*
X167213857Y-124163270D01*
X167202450Y-124163443D01*
X167194681Y-124163573D01*
X167188760Y-124163641D01*
X167176400Y-124163307D01*
X167167151Y-124162067D01*
X167160221Y-124159688D01*
X167154819Y-124155942D01*
X167150152Y-124150597D01*
X167145745Y-124144589D01*
X167145353Y-123758221D01*
X167145332Y-123736711D01*
X167145290Y-123690091D01*
X167145253Y-123647462D01*
X167145215Y-123608636D01*
X167145168Y-123573429D01*
X167145108Y-123541656D01*
X167145026Y-123513129D01*
X167144919Y-123487665D01*
X167144778Y-123465077D01*
X167144597Y-123445180D01*
X167144371Y-123427789D01*
X167144093Y-123412717D01*
X167143757Y-123399780D01*
X167143356Y-123388791D01*
X167142885Y-123379566D01*
X167142336Y-123371919D01*
X167141704Y-123365664D01*
X167140983Y-123360615D01*
X167140165Y-123356588D01*
X167139245Y-123353396D01*
X167138217Y-123350854D01*
X167137074Y-123348777D01*
X167135810Y-123346979D01*
X167134418Y-123345275D01*
X167132893Y-123343478D01*
X167131228Y-123341404D01*
X167129895Y-123339895D01*
X167125040Y-123335214D01*
X167117541Y-123328504D01*
X167107859Y-123320161D01*
X167096453Y-123310579D01*
X167083786Y-123300151D01*
X167070317Y-123289272D01*
X167063532Y-123283839D01*
X167038779Y-123263909D01*
X167016901Y-123246089D01*
X166997482Y-123230017D01*
X166980104Y-123215334D01*
X166964350Y-123201680D01*
X166949803Y-123188693D01*
X166936045Y-123176014D01*
X166922660Y-123163283D01*
X166909230Y-123150138D01*
X166896733Y-123137627D01*
X166885490Y-123125968D01*
X166876666Y-123116170D01*
X166869874Y-123107707D01*
X166864728Y-123100053D01*
X166860843Y-123092683D01*
X166857832Y-123085070D01*
X166855309Y-123076690D01*
X166855184Y-123076154D01*
X166854677Y-123072302D01*
X166854220Y-123065808D01*
X166853808Y-123056491D01*
X166853438Y-123044174D01*
X166853108Y-123028677D01*
X166852813Y-123009820D01*
X166852550Y-122987425D01*
X166852316Y-122961311D01*
X166852108Y-122931301D01*
X166851922Y-122897214D01*
X166851826Y-122877211D01*
X166851698Y-122848788D01*
X166851605Y-122824148D01*
X166851552Y-122803005D01*
X166851543Y-122785067D01*
X166851583Y-122770047D01*
X166851678Y-122757655D01*
X166851832Y-122747603D01*
X166852050Y-122739601D01*
X166852338Y-122733360D01*
X166852700Y-122728591D01*
X166853141Y-122725006D01*
X166853666Y-122722315D01*
X166854280Y-122720229D01*
X166854989Y-122718460D01*
X166856663Y-122714739D01*
X166859030Y-122710268D01*
X166861406Y-122707828D01*
X166864259Y-122707611D01*
X166868057Y-122709812D01*
G37*
G36*
X169088917Y-123469558D02*
G01*
X169088973Y-123536338D01*
X169089019Y-123602495D01*
X169089050Y-123664527D01*
X169089067Y-123722505D01*
X169089069Y-123776495D01*
X169089057Y-123826565D01*
X169089029Y-123872783D01*
X169088986Y-123915217D01*
X169088928Y-123953934D01*
X169088855Y-123989003D01*
X169088766Y-124020492D01*
X169088661Y-124048467D01*
X169088540Y-124072998D01*
X169088403Y-124094152D01*
X169088250Y-124111996D01*
X169088080Y-124126599D01*
X169087894Y-124138029D01*
X169087690Y-124146353D01*
X169087470Y-124151638D01*
X169087233Y-124153954D01*
X169086972Y-124154872D01*
X169086063Y-124158005D01*
X169085016Y-124160641D01*
X169083488Y-124162824D01*
X169081135Y-124164598D01*
X169077615Y-124166006D01*
X169072585Y-124167092D01*
X169065700Y-124167899D01*
X169056619Y-124168472D01*
X169044998Y-124168853D01*
X169030494Y-124169088D01*
X169012765Y-124169218D01*
X168991466Y-124169288D01*
X168966255Y-124169341D01*
X168945421Y-124169370D01*
X168922636Y-124169350D01*
X168903588Y-124169259D01*
X168887985Y-124169092D01*
X168875539Y-124168842D01*
X168865959Y-124168503D01*
X168858956Y-124168069D01*
X168854239Y-124167534D01*
X168851520Y-124166891D01*
X168850969Y-124166684D01*
X168848876Y-124165928D01*
X168847025Y-124165130D01*
X168845402Y-124164044D01*
X168843991Y-124162421D01*
X168842779Y-124160013D01*
X168841749Y-124156572D01*
X168840888Y-124151851D01*
X168840181Y-124145600D01*
X168839613Y-124137574D01*
X168839170Y-124127523D01*
X168838836Y-124115199D01*
X168838598Y-124100356D01*
X168838440Y-124082744D01*
X168838347Y-124062116D01*
X168838306Y-124038224D01*
X168838301Y-124010821D01*
X168838317Y-123979657D01*
X168838341Y-123944486D01*
X168838348Y-123931395D01*
X168838355Y-123898278D01*
X168838342Y-123869086D01*
X168838307Y-123843577D01*
X168838244Y-123821508D01*
X168838151Y-123802639D01*
X168838024Y-123786726D01*
X168837861Y-123773527D01*
X168837657Y-123762800D01*
X168837409Y-123754303D01*
X168837113Y-123747794D01*
X168836767Y-123743030D01*
X168836366Y-123739770D01*
X168835908Y-123737771D01*
X168835388Y-123736791D01*
X168834687Y-123736282D01*
X168832927Y-123736012D01*
X168830092Y-123736681D01*
X168825752Y-123738498D01*
X168819479Y-123741671D01*
X168810844Y-123746409D01*
X168799419Y-123752920D01*
X168784774Y-123761412D01*
X168749299Y-123781823D01*
X168704609Y-123806693D01*
X168662300Y-123829184D01*
X168621891Y-123849521D01*
X168582899Y-123867930D01*
X168544843Y-123884637D01*
X168507239Y-123899867D01*
X168469606Y-123913847D01*
X168431462Y-123926802D01*
X168421163Y-123930085D01*
X168409823Y-123933690D01*
X168400357Y-123936987D01*
X168392594Y-123940357D01*
X168386366Y-123944181D01*
X168381503Y-123948837D01*
X168377838Y-123954707D01*
X168375201Y-123962169D01*
X168373423Y-123971605D01*
X168372335Y-123983393D01*
X168371769Y-123997914D01*
X168371555Y-124015549D01*
X168371525Y-124036676D01*
X168371509Y-124061676D01*
X168371444Y-124078042D01*
X168371299Y-124097105D01*
X168371091Y-124114576D01*
X168370830Y-124130011D01*
X168370524Y-124142967D01*
X168370183Y-124152999D01*
X168369815Y-124159663D01*
X168369431Y-124162516D01*
X168368605Y-124164077D01*
X168367276Y-124165857D01*
X168365347Y-124167334D01*
X168362450Y-124168542D01*
X168358222Y-124169516D01*
X168352297Y-124170289D01*
X168344309Y-124170895D01*
X168333893Y-124171367D01*
X168320683Y-124171741D01*
X168304314Y-124172050D01*
X168284421Y-124172327D01*
X168260639Y-124172606D01*
X168244874Y-124172789D01*
X168225005Y-124173031D01*
X168206415Y-124173272D01*
X168189599Y-124173504D01*
X168175053Y-124173720D01*
X168163274Y-124173912D01*
X168154758Y-124174074D01*
X168150000Y-124174199D01*
X168145901Y-124174222D01*
X168134303Y-124172547D01*
X168125343Y-124168375D01*
X168119563Y-124161925D01*
X168119215Y-124160754D01*
X168118876Y-124158291D01*
X168118572Y-124154410D01*
X168118304Y-124148931D01*
X168118070Y-124141679D01*
X168117869Y-124132475D01*
X168117700Y-124121143D01*
X168117563Y-124107506D01*
X168117456Y-124091386D01*
X168117378Y-124072605D01*
X168117329Y-124050987D01*
X168117307Y-124026354D01*
X168117313Y-123998529D01*
X168117343Y-123967335D01*
X168117399Y-123932595D01*
X168117479Y-123894130D01*
X168117582Y-123851765D01*
X168117707Y-123805321D01*
X168117754Y-123788068D01*
X168117871Y-123743543D01*
X168117975Y-123703014D01*
X168118074Y-123666292D01*
X168118176Y-123633186D01*
X168118290Y-123603507D01*
X168118423Y-123577063D01*
X168118583Y-123553666D01*
X168118779Y-123533126D01*
X168119019Y-123515251D01*
X168119311Y-123499853D01*
X168119662Y-123486742D01*
X168120082Y-123475726D01*
X168120577Y-123466617D01*
X168121157Y-123459224D01*
X168121829Y-123453357D01*
X168122601Y-123448827D01*
X168123482Y-123445442D01*
X168124479Y-123443014D01*
X168125601Y-123441352D01*
X168126856Y-123440266D01*
X168128251Y-123439567D01*
X168129796Y-123439063D01*
X168131498Y-123438566D01*
X168133364Y-123437885D01*
X168135405Y-123437039D01*
X168141914Y-123434452D01*
X168151026Y-123430913D01*
X168161827Y-123426774D01*
X168173405Y-123422389D01*
X168178583Y-123420403D01*
X168200040Y-123411570D01*
X168223657Y-123401032D01*
X168248346Y-123389317D01*
X168273019Y-123376951D01*
X168296590Y-123364460D01*
X168317971Y-123352372D01*
X168324658Y-123348482D01*
X168337884Y-123341146D01*
X168348194Y-123336092D01*
X168355974Y-123333194D01*
X168361611Y-123332328D01*
X168365494Y-123333366D01*
X168368011Y-123336184D01*
X168368134Y-123336476D01*
X168368668Y-123339415D01*
X168369136Y-123345095D01*
X168369542Y-123353706D01*
X168369889Y-123365435D01*
X168370181Y-123380473D01*
X168370422Y-123399009D01*
X168370617Y-123421233D01*
X168370768Y-123447333D01*
X168370880Y-123477500D01*
X168370887Y-123479903D01*
X168370972Y-123507125D01*
X168371063Y-123530438D01*
X168371170Y-123550159D01*
X168371302Y-123566610D01*
X168371468Y-123580110D01*
X168371679Y-123590979D01*
X168371945Y-123599535D01*
X168372275Y-123606099D01*
X168372678Y-123610991D01*
X168373166Y-123614529D01*
X168373746Y-123617034D01*
X168374430Y-123618825D01*
X168375226Y-123620222D01*
X168376470Y-123622040D01*
X168379203Y-123624733D01*
X168382903Y-123625554D01*
X168389180Y-123625064D01*
X168398208Y-123623438D01*
X168411879Y-123619822D01*
X168428413Y-123614549D01*
X168447334Y-123607813D01*
X168468165Y-123599811D01*
X168490429Y-123590736D01*
X168513649Y-123580784D01*
X168537349Y-123570150D01*
X168561052Y-123559029D01*
X168584281Y-123547616D01*
X168606560Y-123536107D01*
X168607911Y-123535388D01*
X168622789Y-123527277D01*
X168639339Y-123517949D01*
X168657179Y-123507646D01*
X168675927Y-123496604D01*
X168695199Y-123485064D01*
X168714613Y-123473265D01*
X168733786Y-123461445D01*
X168752337Y-123449844D01*
X168769882Y-123438701D01*
X168786040Y-123428254D01*
X168800426Y-123418743D01*
X168812660Y-123410407D01*
X168822358Y-123403485D01*
X168829137Y-123398216D01*
X168832616Y-123394839D01*
X168837234Y-123388456D01*
X168838298Y-123198014D01*
X168839362Y-123007573D01*
X168844590Y-122998443D01*
X168847758Y-122993870D01*
X168852953Y-122988574D01*
X168860527Y-122982578D01*
X168871185Y-122975265D01*
X168886210Y-122965192D01*
X168913216Y-122946059D01*
X168940337Y-122925464D01*
X168968054Y-122903011D01*
X168996846Y-122878308D01*
X169027193Y-122850960D01*
X169059575Y-122820572D01*
X169088298Y-122793151D01*
X169088917Y-123469558D01*
G37*
G36*
X167988909Y-122235244D02*
G01*
X167997959Y-122238475D01*
X168004706Y-122244532D01*
X168009382Y-122253715D01*
X168012223Y-122266325D01*
X168013460Y-122282664D01*
X168013637Y-122288022D01*
X168014278Y-122297345D01*
X168015660Y-122304751D01*
X168018220Y-122310513D01*
X168022397Y-122314903D01*
X168028629Y-122318195D01*
X168037355Y-122320660D01*
X168049013Y-122322572D01*
X168064041Y-122324202D01*
X168082878Y-122325823D01*
X168103623Y-122327595D01*
X168144489Y-122331601D01*
X168181706Y-122336011D01*
X168215677Y-122340880D01*
X168246805Y-122346265D01*
X168275493Y-122352220D01*
X168283404Y-122353928D01*
X168293058Y-122355785D01*
X168300957Y-122357050D01*
X168305909Y-122357518D01*
X168307845Y-122357407D01*
X168315401Y-122354500D01*
X168321447Y-122347935D01*
X168325594Y-122338096D01*
X168328731Y-122326720D01*
X168332590Y-122313736D01*
X168336036Y-122303827D01*
X168339364Y-122296362D01*
X168342869Y-122290707D01*
X168346845Y-122286231D01*
X168351588Y-122282299D01*
X168356270Y-122279882D01*
X168365372Y-122278192D01*
X168375778Y-122278671D01*
X168386218Y-122281102D01*
X168395418Y-122285266D01*
X168402105Y-122290946D01*
X168405347Y-122297600D01*
X168406292Y-122307650D01*
X168404428Y-122320618D01*
X168399748Y-122336638D01*
X168397062Y-122345013D01*
X168394527Y-122356369D01*
X168394363Y-122365334D01*
X168396598Y-122372634D01*
X168401255Y-122378996D01*
X168401689Y-122379445D01*
X168404266Y-122381860D01*
X168407238Y-122383974D01*
X168411219Y-122386041D01*
X168416822Y-122388314D01*
X168424661Y-122391047D01*
X168435350Y-122394492D01*
X168449502Y-122398904D01*
X168457848Y-122401655D01*
X168473189Y-122407456D01*
X168488664Y-122414127D01*
X168503429Y-122421253D01*
X168516643Y-122428417D01*
X168527462Y-122435202D01*
X168535044Y-122441193D01*
X168541793Y-122448872D01*
X168545776Y-122457353D01*
X168545888Y-122466153D01*
X168542272Y-122475966D01*
X168541776Y-122476898D01*
X168534752Y-122485909D01*
X168525695Y-122491671D01*
X168515342Y-122493700D01*
X168515289Y-122493700D01*
X168509735Y-122492840D01*
X168502018Y-122490627D01*
X168493789Y-122487534D01*
X168491159Y-122486477D01*
X168483461Y-122483638D01*
X168473008Y-122479978D01*
X168460648Y-122475774D01*
X168447227Y-122471303D01*
X168433592Y-122466846D01*
X168420588Y-122462678D01*
X168409063Y-122459079D01*
X168399862Y-122456326D01*
X168393833Y-122454698D01*
X168387544Y-122453893D01*
X168380109Y-122455254D01*
X168373355Y-122459641D01*
X168366981Y-122467353D01*
X168360682Y-122478690D01*
X168354158Y-122493951D01*
X168351549Y-122500561D01*
X168346380Y-122512790D01*
X168341837Y-122521940D01*
X168337506Y-122528698D01*
X168332974Y-122533756D01*
X168327827Y-122537802D01*
X168325744Y-122539084D01*
X168315603Y-122542369D01*
X168304174Y-122541604D01*
X168291448Y-122536789D01*
X168283132Y-122531751D01*
X168275821Y-122524608D01*
X168271898Y-122516157D01*
X168271277Y-122505984D01*
X168273874Y-122493672D01*
X168279603Y-122478805D01*
X168280552Y-122476679D01*
X168286077Y-122464104D01*
X168290029Y-122453996D01*
X168292113Y-122446018D01*
X168292036Y-122439831D01*
X168289505Y-122435097D01*
X168284226Y-122431478D01*
X168275905Y-122428636D01*
X168264248Y-122426231D01*
X168248963Y-122423927D01*
X168229755Y-122421385D01*
X168226906Y-122421013D01*
X168210952Y-122418913D01*
X168192068Y-122416407D01*
X168171317Y-122413637D01*
X168149765Y-122410745D01*
X168128475Y-122407874D01*
X168108512Y-122405166D01*
X168094285Y-122403232D01*
X168074516Y-122400627D01*
X168058351Y-122398753D01*
X168045411Y-122397722D01*
X168035317Y-122397641D01*
X168027691Y-122398622D01*
X168022151Y-122400774D01*
X168018320Y-122404206D01*
X168015817Y-122409029D01*
X168014264Y-122415351D01*
X168013281Y-122423283D01*
X168012489Y-122432934D01*
X168012420Y-122433799D01*
X168011124Y-122446098D01*
X168009205Y-122459806D01*
X168006826Y-122474118D01*
X168004149Y-122488230D01*
X168001334Y-122501337D01*
X167998543Y-122512634D01*
X167995939Y-122521316D01*
X167993682Y-122526577D01*
X167988926Y-122532313D01*
X167980403Y-122537723D01*
X167970491Y-122540254D01*
X167960147Y-122539969D01*
X167950323Y-122536929D01*
X167941975Y-122531196D01*
X167936057Y-122522833D01*
X167935258Y-122520807D01*
X167933171Y-122511511D01*
X167932125Y-122499405D01*
X167932132Y-122485513D01*
X167933202Y-122470858D01*
X167935346Y-122456463D01*
X167937824Y-122441902D01*
X167939559Y-122426877D01*
X167940060Y-122414333D01*
X167939308Y-122404796D01*
X167937286Y-122398791D01*
X167934939Y-122395754D01*
X167931456Y-122394021D01*
X167925850Y-122394323D01*
X167912655Y-122396263D01*
X167889924Y-122399660D01*
X167866254Y-122403257D01*
X167842040Y-122406991D01*
X167817678Y-122410796D01*
X167793565Y-122414609D01*
X167770096Y-122418365D01*
X167747667Y-122421999D01*
X167726674Y-122425449D01*
X167707514Y-122428648D01*
X167690581Y-122431533D01*
X167676272Y-122434040D01*
X167664983Y-122436104D01*
X167657110Y-122437661D01*
X167653048Y-122438646D01*
X167649015Y-122440168D01*
X167642481Y-122443968D01*
X167638342Y-122449049D01*
X167636513Y-122455910D01*
X167636912Y-122465048D01*
X167639453Y-122476960D01*
X167644055Y-122492144D01*
X167649167Y-122510233D01*
X167651796Y-122526582D01*
X167651539Y-122539940D01*
X167648392Y-122550243D01*
X167647112Y-122552557D01*
X167642671Y-122558372D01*
X167636795Y-122562224D01*
X167628073Y-122565147D01*
X167618442Y-122566700D01*
X167608128Y-122565383D01*
X167598479Y-122560371D01*
X167588791Y-122551417D01*
X167583547Y-122545195D01*
X167578708Y-122537818D01*
X167574915Y-122529327D01*
X167571355Y-122518170D01*
X167565830Y-122502099D01*
X167559304Y-122489831D01*
X167551573Y-122481497D01*
X167542358Y-122476959D01*
X167531377Y-122476082D01*
X167518350Y-122478727D01*
X167502997Y-122484758D01*
X167496141Y-122487785D01*
X167484584Y-122491899D01*
X167475245Y-122493506D01*
X167467374Y-122492691D01*
X167460222Y-122489538D01*
X167453644Y-122484405D01*
X167448505Y-122477099D01*
X167444590Y-122466775D01*
X167444401Y-122466110D01*
X167443060Y-122454253D01*
X167445682Y-122443511D01*
X167452062Y-122434194D01*
X167461991Y-122426609D01*
X167475265Y-122421062D01*
X167491354Y-122415465D01*
X167504079Y-122408947D01*
X167512919Y-122401399D01*
X167518055Y-122392508D01*
X167519664Y-122381957D01*
X167517926Y-122369433D01*
X167513019Y-122354620D01*
X167512097Y-122352276D01*
X167509186Y-122344250D01*
X167507150Y-122337658D01*
X167506383Y-122333741D01*
X167506661Y-122330259D01*
X167509942Y-122321575D01*
X167516275Y-122314320D01*
X167524840Y-122308918D01*
X167534822Y-122305795D01*
X167545401Y-122305375D01*
X167555761Y-122308084D01*
X167559928Y-122310176D01*
X167564828Y-122313668D01*
X167569415Y-122318541D01*
X167574176Y-122325433D01*
X167579599Y-122334980D01*
X167586171Y-122347818D01*
X167587931Y-122351362D01*
X167592395Y-122360066D01*
X167596339Y-122366405D01*
X167600429Y-122370583D01*
X167605333Y-122372803D01*
X167611718Y-122373268D01*
X167620250Y-122372181D01*
X167631598Y-122369745D01*
X167646429Y-122366164D01*
X167673540Y-122359811D01*
X167703257Y-122353452D01*
X167733423Y-122347670D01*
X167764799Y-122342337D01*
X167798146Y-122337324D01*
X167834225Y-122332503D01*
X167873798Y-122327745D01*
X167879667Y-122327060D01*
X167896170Y-122325000D01*
X167910276Y-122323030D01*
X167921524Y-122321222D01*
X167929454Y-122319648D01*
X167933605Y-122318380D01*
X167937161Y-122316061D01*
X167940791Y-122311601D01*
X167943032Y-122305085D01*
X167944097Y-122295804D01*
X167944199Y-122283044D01*
X167944149Y-122276371D01*
X167944823Y-122264198D01*
X167946771Y-122254903D01*
X167950231Y-122247608D01*
X167955440Y-122241436D01*
X167958251Y-122238962D01*
X167962444Y-122236538D01*
X167967909Y-122235245D01*
X167976135Y-122234588D01*
X167977321Y-122234538D01*
X167988909Y-122235244D01*
G37*
G36*
X169125158Y-119264351D02*
G01*
X169124812Y-119276921D01*
X169124109Y-119288869D01*
X169123006Y-119301302D01*
X169121461Y-119315325D01*
X169121434Y-119315555D01*
X169119222Y-119335469D01*
X169117778Y-119351573D01*
X169117170Y-119364251D01*
X169117468Y-119373887D01*
X169118742Y-119380865D01*
X169121063Y-119385569D01*
X169124498Y-119388383D01*
X169129119Y-119389690D01*
X169134995Y-119389876D01*
X169139249Y-119389260D01*
X169147128Y-119387557D01*
X169157812Y-119384939D01*
X169170646Y-119381573D01*
X169184977Y-119377626D01*
X169200150Y-119373263D01*
X169216372Y-119368552D01*
X169251015Y-119358920D01*
X169282548Y-119350842D01*
X169311524Y-119344227D01*
X169338499Y-119338986D01*
X169364027Y-119335026D01*
X169388663Y-119332258D01*
X169412962Y-119330589D01*
X169437478Y-119329929D01*
X169462766Y-119330187D01*
X169491755Y-119331562D01*
X169524550Y-119334916D01*
X169554222Y-119340183D01*
X169581194Y-119347463D01*
X169605887Y-119356851D01*
X169628724Y-119368445D01*
X169638644Y-119375183D01*
X169650021Y-119384567D01*
X169661761Y-119395556D01*
X169672876Y-119407175D01*
X169682381Y-119418449D01*
X169689291Y-119428400D01*
X169694004Y-119437226D01*
X169700061Y-119450282D01*
X169706422Y-119465484D01*
X169712669Y-119481781D01*
X169718385Y-119498123D01*
X169723150Y-119513459D01*
X169724034Y-119516568D01*
X169733079Y-119552545D01*
X169740004Y-119588948D01*
X169744817Y-119626188D01*
X169747524Y-119664677D01*
X169748134Y-119704827D01*
X169747573Y-119720818D01*
X169746652Y-119747052D01*
X169743088Y-119791763D01*
X169737446Y-119839371D01*
X169729736Y-119890290D01*
X169722101Y-119932400D01*
X169710788Y-119983685D01*
X169697676Y-120031996D01*
X169682593Y-120077902D01*
X169665363Y-120121974D01*
X169645812Y-120164782D01*
X169630453Y-120194755D01*
X169608744Y-120232642D01*
X169585503Y-120268024D01*
X169560086Y-120301801D01*
X169531847Y-120334876D01*
X169500142Y-120368147D01*
X169482846Y-120385102D01*
X169458455Y-120407670D01*
X169434339Y-120428213D01*
X169409944Y-120447092D01*
X169384714Y-120464668D01*
X169358093Y-120481299D01*
X169329527Y-120497347D01*
X169298459Y-120513173D01*
X169264334Y-120529135D01*
X169226596Y-120545596D01*
X169212548Y-120551548D01*
X169194523Y-120559188D01*
X169174731Y-120567580D01*
X169154293Y-120576248D01*
X169134328Y-120584717D01*
X169115958Y-120592513D01*
X169115242Y-120592817D01*
X169097545Y-120600320D01*
X169078955Y-120608191D01*
X169060433Y-120616023D01*
X169042940Y-120623409D01*
X169027440Y-120629944D01*
X169014894Y-120635220D01*
X169002458Y-120640553D01*
X168984801Y-120648473D01*
X168967012Y-120656813D01*
X168949492Y-120665358D01*
X168932641Y-120673889D01*
X168916861Y-120682191D01*
X168902554Y-120690046D01*
X168890121Y-120697237D01*
X168879963Y-120703549D01*
X168872480Y-120708764D01*
X168868076Y-120712665D01*
X168867150Y-120715036D01*
X168869596Y-120717094D01*
X168875581Y-120721037D01*
X168884844Y-120726692D01*
X168897138Y-120733918D01*
X168912220Y-120742573D01*
X168929844Y-120752514D01*
X168949766Y-120763600D01*
X168971741Y-120775689D01*
X168975018Y-120777484D01*
X169001874Y-120792334D01*
X169025491Y-120805697D01*
X169046398Y-120817910D01*
X169065122Y-120829310D01*
X169082192Y-120840233D01*
X169098134Y-120851016D01*
X169113477Y-120861996D01*
X169128749Y-120873510D01*
X169144478Y-120885894D01*
X169171054Y-120908094D01*
X169215294Y-120949338D01*
X169256994Y-120993837D01*
X169295976Y-121041372D01*
X169332065Y-121091720D01*
X169365085Y-121144661D01*
X169394860Y-121199975D01*
X169399573Y-121209584D01*
X169418231Y-121250936D01*
X169434760Y-121293449D01*
X169449264Y-121337530D01*
X169461847Y-121383589D01*
X169472610Y-121432032D01*
X169481659Y-121483269D01*
X169489095Y-121537706D01*
X169495023Y-121595752D01*
X169495859Y-121606984D01*
X169496809Y-121624562D01*
X169497585Y-121644699D01*
X169498184Y-121666715D01*
X169498603Y-121689929D01*
X169498781Y-121707954D01*
X169498837Y-121713659D01*
X169498884Y-121737225D01*
X169498741Y-121759945D01*
X169498403Y-121781139D01*
X169497867Y-121800125D01*
X169497130Y-121816223D01*
X169496189Y-121828751D01*
X169495815Y-121832475D01*
X169489827Y-121882278D01*
X169482215Y-121929019D01*
X169472739Y-121973605D01*
X169461159Y-122016940D01*
X169447235Y-122059929D01*
X169430727Y-122103475D01*
X169411395Y-122148484D01*
X169376729Y-122221177D01*
X169334632Y-122300367D01*
X169289204Y-122376914D01*
X169240428Y-122450838D01*
X169188287Y-122522164D01*
X169132765Y-122590913D01*
X169073845Y-122657108D01*
X169011511Y-122720773D01*
X168945745Y-122781929D01*
X168933273Y-122792948D01*
X168845436Y-122867637D01*
X168756449Y-122938232D01*
X168666304Y-123004741D01*
X168574989Y-123067169D01*
X168482496Y-123125525D01*
X168388814Y-123179813D01*
X168293933Y-123230041D01*
X168197843Y-123276215D01*
X168179962Y-123284346D01*
X168158831Y-123293825D01*
X168140801Y-123301715D01*
X168125454Y-123308174D01*
X168112374Y-123313358D01*
X168101142Y-123317424D01*
X168091342Y-123320529D01*
X168082557Y-123322831D01*
X168074369Y-123324484D01*
X168066362Y-123325648D01*
X168054723Y-123326663D01*
X168040427Y-123326689D01*
X168025670Y-123325209D01*
X168009632Y-123322092D01*
X167991491Y-123317209D01*
X167970430Y-123310430D01*
X167961548Y-123307371D01*
X167935474Y-123298018D01*
X167909438Y-123288084D01*
X167883113Y-123277411D01*
X167856169Y-123265841D01*
X167828281Y-123253216D01*
X167799118Y-123239378D01*
X167768355Y-123224170D01*
X167735662Y-123207434D01*
X167700712Y-123189011D01*
X167663176Y-123168745D01*
X167622727Y-123146477D01*
X167579038Y-123122049D01*
X167542807Y-123101483D01*
X167490062Y-123070820D01*
X167440669Y-123041146D01*
X167394230Y-123012196D01*
X167350345Y-122983702D01*
X167308618Y-122955399D01*
X167268651Y-122927021D01*
X167230044Y-122898301D01*
X167192399Y-122868974D01*
X167155319Y-122838772D01*
X167144945Y-122830086D01*
X167079709Y-122772854D01*
X167018091Y-122714144D01*
X166960138Y-122654030D01*
X166905896Y-122592586D01*
X166855413Y-122529887D01*
X166808734Y-122466007D01*
X166765906Y-122401019D01*
X166726977Y-122334998D01*
X166691992Y-122268017D01*
X166660998Y-122200151D01*
X166634041Y-122131473D01*
X166611169Y-122062058D01*
X166592428Y-121991979D01*
X166577864Y-121921312D01*
X166573149Y-121893301D01*
X166568823Y-121864366D01*
X166565372Y-121836759D01*
X166562718Y-121809552D01*
X166560787Y-121781818D01*
X166559502Y-121752631D01*
X166558787Y-121721062D01*
X166558565Y-121686186D01*
X166558710Y-121661791D01*
X166632487Y-121661791D01*
X166633860Y-121726615D01*
X166636687Y-121768235D01*
X166644822Y-121842549D01*
X166656849Y-121915196D01*
X166672794Y-121986250D01*
X166692685Y-122055787D01*
X166716550Y-122123883D01*
X166744416Y-122190613D01*
X166776310Y-122256052D01*
X166812260Y-122320276D01*
X166852294Y-122383360D01*
X166896440Y-122445379D01*
X166903149Y-122454258D01*
X166924484Y-122481763D01*
X166945777Y-122508006D01*
X166967596Y-122533628D01*
X166990512Y-122559272D01*
X167015093Y-122585580D01*
X167041911Y-122613195D01*
X167071535Y-122642759D01*
X167085816Y-122656716D01*
X167160927Y-122726654D01*
X167239364Y-122794079D01*
X167320954Y-122858873D01*
X167405524Y-122920916D01*
X167492901Y-122980092D01*
X167582912Y-123036282D01*
X167675385Y-123089368D01*
X167770145Y-123139232D01*
X167867022Y-123185756D01*
X167879028Y-123191233D01*
X167898092Y-123199811D01*
X167914208Y-123206865D01*
X167927937Y-123212620D01*
X167939840Y-123217301D01*
X167950479Y-123221133D01*
X167960417Y-123224341D01*
X167970213Y-123227152D01*
X167972435Y-123227745D01*
X167981189Y-123229835D01*
X167989627Y-123231310D01*
X167998891Y-123232301D01*
X168010124Y-123232937D01*
X168024468Y-123233350D01*
X168031652Y-123233471D01*
X168044016Y-123233436D01*
X168055280Y-123232932D01*
X168065928Y-123231803D01*
X168076447Y-123229899D01*
X168087322Y-123227064D01*
X168099039Y-123223145D01*
X168112082Y-123217990D01*
X168126938Y-123211444D01*
X168144092Y-123203354D01*
X168164029Y-123193568D01*
X168187234Y-123181932D01*
X168217283Y-123166570D01*
X168306380Y-123118684D01*
X168396649Y-123066709D01*
X168488089Y-123010647D01*
X168580696Y-122950498D01*
X168674468Y-122886266D01*
X168714804Y-122857538D01*
X168770939Y-122816057D01*
X168823485Y-122775295D01*
X168872738Y-122734982D01*
X168918998Y-122694849D01*
X168962562Y-122654627D01*
X169003729Y-122614046D01*
X169042796Y-122572837D01*
X169080062Y-122530730D01*
X169115826Y-122487455D01*
X169147504Y-122446563D01*
X169192763Y-122383153D01*
X169233812Y-122319134D01*
X169270652Y-122254502D01*
X169303284Y-122189255D01*
X169331708Y-122123390D01*
X169355928Y-122056904D01*
X169375942Y-121989796D01*
X169391753Y-121922061D01*
X169403362Y-121853698D01*
X169410769Y-121784704D01*
X169411483Y-121773226D01*
X169412192Y-121753837D01*
X169412545Y-121731792D01*
X169412560Y-121707954D01*
X169412255Y-121683186D01*
X169411646Y-121658351D01*
X169410752Y-121634313D01*
X169409589Y-121611935D01*
X169408176Y-121592081D01*
X169406530Y-121575614D01*
X169406440Y-121574874D01*
X169396836Y-121509129D01*
X169384381Y-121446443D01*
X169369005Y-121386653D01*
X169350639Y-121329598D01*
X169329213Y-121275116D01*
X169304657Y-121223047D01*
X169276902Y-121173228D01*
X169245879Y-121125498D01*
X169211516Y-121079695D01*
X169173746Y-121035659D01*
X169147556Y-121008379D01*
X169105929Y-120969763D01*
X169060736Y-120932965D01*
X169012186Y-120898081D01*
X168960490Y-120865208D01*
X168905857Y-120834442D01*
X168848498Y-120805880D01*
X168788623Y-120779616D01*
X168726442Y-120755749D01*
X168662164Y-120734374D01*
X168596001Y-120715587D01*
X168528163Y-120699485D01*
X168458858Y-120686163D01*
X168388298Y-120675719D01*
X168378349Y-120674477D01*
X168355987Y-120671799D01*
X168334685Y-120669440D01*
X168313999Y-120667377D01*
X168293487Y-120665588D01*
X168272705Y-120664051D01*
X168251212Y-120662741D01*
X168228563Y-120661637D01*
X168204317Y-120660716D01*
X168178030Y-120659956D01*
X168149259Y-120659333D01*
X168117562Y-120658825D01*
X168082496Y-120658409D01*
X168043617Y-120658063D01*
X168028515Y-120657952D01*
X167987258Y-120657738D01*
X167949689Y-120657696D01*
X167915387Y-120657845D01*
X167883932Y-120658201D01*
X167854903Y-120658781D01*
X167827881Y-120659601D01*
X167802444Y-120660680D01*
X167778172Y-120662033D01*
X167754645Y-120663678D01*
X167731442Y-120665631D01*
X167708143Y-120667910D01*
X167684327Y-120670531D01*
X167659575Y-120673511D01*
X167658382Y-120673661D01*
X167588157Y-120683961D01*
X167518926Y-120697060D01*
X167450978Y-120712848D01*
X167384603Y-120731218D01*
X167320091Y-120752062D01*
X167257733Y-120775274D01*
X167197817Y-120800743D01*
X167140634Y-120828364D01*
X167086473Y-120858028D01*
X167035626Y-120889627D01*
X166988380Y-120923054D01*
X166951304Y-120953003D01*
X166913302Y-120987710D01*
X166877117Y-121024885D01*
X166843562Y-121063688D01*
X166813449Y-121103285D01*
X166802228Y-121119469D01*
X166767794Y-121173951D01*
X166737134Y-121230290D01*
X166710300Y-121288309D01*
X166687342Y-121347831D01*
X166668312Y-121408678D01*
X166653261Y-121470675D01*
X166642239Y-121533644D01*
X166635297Y-121597408D01*
X166632487Y-121661791D01*
X166558710Y-121661791D01*
X166558737Y-121657163D01*
X166559616Y-121618551D01*
X166561309Y-121582503D01*
X166563894Y-121548054D01*
X166567447Y-121514243D01*
X166572045Y-121480105D01*
X166577763Y-121444676D01*
X166589177Y-121389232D01*
X166605278Y-121330919D01*
X166625261Y-121274275D01*
X166649086Y-121219354D01*
X166676714Y-121166212D01*
X166708106Y-121114905D01*
X166743221Y-121065488D01*
X166782019Y-121018017D01*
X166824462Y-120972547D01*
X166870509Y-120929135D01*
X166920121Y-120887835D01*
X166973257Y-120848703D01*
X167029879Y-120811795D01*
X167039346Y-120805942D01*
X167052575Y-120797439D01*
X167062446Y-120790420D01*
X167069196Y-120784531D01*
X167073058Y-120779415D01*
X167074266Y-120774718D01*
X167073056Y-120770084D01*
X167069661Y-120765157D01*
X167064317Y-120759583D01*
X167057221Y-120753330D01*
X167044835Y-120743819D01*
X167028840Y-120732667D01*
X167009376Y-120719959D01*
X166986582Y-120705783D01*
X166960597Y-120690225D01*
X166931561Y-120673370D01*
X166899613Y-120655306D01*
X166864894Y-120636119D01*
X166838028Y-120621292D01*
X166799062Y-120599212D01*
X166763326Y-120578172D01*
X166730367Y-120557877D01*
X166699732Y-120538029D01*
X166670967Y-120518333D01*
X166643621Y-120498493D01*
X166617240Y-120478212D01*
X166591372Y-120457193D01*
X166589497Y-120455621D01*
X166573713Y-120441821D01*
X166556407Y-120425837D01*
X166538389Y-120408477D01*
X166520466Y-120390546D01*
X166503445Y-120372850D01*
X166488134Y-120356197D01*
X166475342Y-120341392D01*
X166457106Y-120318701D01*
X166421563Y-120270354D01*
X166388911Y-120220177D01*
X166359331Y-120168549D01*
X166333008Y-120115852D01*
X166310124Y-120062467D01*
X166290863Y-120008775D01*
X166275407Y-119955157D01*
X166263941Y-119901994D01*
X166263116Y-119897279D01*
X166257507Y-119859575D01*
X166253413Y-119820959D01*
X166250858Y-119782238D01*
X166249864Y-119744215D01*
X166250413Y-119710268D01*
X166328298Y-119710268D01*
X166328427Y-119726883D01*
X166329562Y-119746737D01*
X166331637Y-119769227D01*
X166334581Y-119793750D01*
X166338325Y-119819702D01*
X166342802Y-119846482D01*
X166347941Y-119873484D01*
X166358642Y-119920309D01*
X166376421Y-119981537D01*
X166398176Y-120041458D01*
X166423822Y-120099922D01*
X166453274Y-120156782D01*
X166486449Y-120211888D01*
X166523260Y-120265092D01*
X166563624Y-120316245D01*
X166607456Y-120365198D01*
X166654670Y-120411802D01*
X166669541Y-120425470D01*
X166685585Y-120439794D01*
X166700869Y-120452867D01*
X166715853Y-120465002D01*
X166730993Y-120476513D01*
X166746747Y-120487711D01*
X166763572Y-120498912D01*
X166781926Y-120510427D01*
X166802268Y-120522571D01*
X166825053Y-120535656D01*
X166850741Y-120549996D01*
X166879788Y-120565903D01*
X166884535Y-120568488D01*
X166900267Y-120577087D01*
X166915601Y-120585514D01*
X166929867Y-120593401D01*
X166942398Y-120600375D01*
X166952524Y-120606067D01*
X166959575Y-120610106D01*
X166962200Y-120611660D01*
X166971166Y-120617137D01*
X166982889Y-120624465D01*
X166996805Y-120633277D01*
X167012350Y-120643209D01*
X167028960Y-120653895D01*
X167046072Y-120664968D01*
X167063119Y-120676063D01*
X167079540Y-120686815D01*
X167094768Y-120696857D01*
X167108240Y-120705824D01*
X167119392Y-120713349D01*
X167127660Y-120719069D01*
X167134912Y-120724119D01*
X167143262Y-120729748D01*
X167150190Y-120734218D01*
X167154682Y-120736862D01*
X167161700Y-120739361D01*
X167173596Y-120740375D01*
X167187010Y-120738494D01*
X167201064Y-120733776D01*
X167259610Y-120709509D01*
X167317064Y-120688160D01*
X167372214Y-120670267D01*
X167425122Y-120655809D01*
X167475852Y-120644768D01*
X167524468Y-120637125D01*
X167525342Y-120637015D01*
X167541818Y-120634587D01*
X167554509Y-120631787D01*
X167563866Y-120628310D01*
X167570338Y-120623850D01*
X167574375Y-120618104D01*
X167576426Y-120610765D01*
X167576943Y-120601529D01*
X167576250Y-120593645D01*
X167574092Y-120581584D01*
X167570622Y-120566568D01*
X167565998Y-120549114D01*
X167560376Y-120529740D01*
X167553913Y-120508964D01*
X167546765Y-120487307D01*
X167539089Y-120465284D01*
X167531042Y-120443416D01*
X167522779Y-120422220D01*
X167522272Y-120420964D01*
X167518029Y-120410758D01*
X167512342Y-120397445D01*
X167505500Y-120381685D01*
X167497793Y-120364137D01*
X167489510Y-120345458D01*
X167480939Y-120326309D01*
X167472370Y-120307347D01*
X167465870Y-120293009D01*
X167447902Y-120252994D01*
X167431720Y-120216294D01*
X167417194Y-120182560D01*
X167404199Y-120151446D01*
X167392607Y-120122602D01*
X167382292Y-120095681D01*
X167373125Y-120070336D01*
X167364980Y-120046218D01*
X167357729Y-120022980D01*
X167351246Y-120000273D01*
X167345404Y-119977750D01*
X167340074Y-119955063D01*
X167335131Y-119931864D01*
X167334850Y-119930472D01*
X167329818Y-119900424D01*
X167326792Y-119870979D01*
X167326170Y-119853348D01*
X167370407Y-119853348D01*
X167371363Y-119870441D01*
X167373455Y-119888610D01*
X167376721Y-119908448D01*
X167381200Y-119930550D01*
X167386930Y-119955508D01*
X167393949Y-119983915D01*
X167397062Y-119996038D01*
X167402242Y-120015344D01*
X167407565Y-120033951D01*
X167413178Y-120052236D01*
X167419227Y-120070573D01*
X167425860Y-120089338D01*
X167433222Y-120108906D01*
X167441462Y-120129653D01*
X167450725Y-120151954D01*
X167461159Y-120176183D01*
X167472910Y-120202717D01*
X167486125Y-120231931D01*
X167500951Y-120264200D01*
X167517534Y-120299899D01*
X167523597Y-120312914D01*
X167539047Y-120346290D01*
X167552759Y-120376289D01*
X167564849Y-120403229D01*
X167575435Y-120427424D01*
X167584633Y-120449193D01*
X167592562Y-120468852D01*
X167599339Y-120486717D01*
X167605080Y-120503105D01*
X167609904Y-120518332D01*
X167613928Y-120532716D01*
X167617269Y-120546573D01*
X167620044Y-120560219D01*
X167622371Y-120573972D01*
X167624368Y-120588147D01*
X167625838Y-120598420D01*
X167626452Y-120601529D01*
X167627445Y-120606560D01*
X167629152Y-120611617D01*
X167631117Y-120614213D01*
X167633234Y-120615320D01*
X167638415Y-120616661D01*
X167643677Y-120616994D01*
X167646986Y-120616081D01*
X167647058Y-120616035D01*
X167649821Y-120615306D01*
X167655861Y-120614080D01*
X167664352Y-120612515D01*
X167674468Y-120610771D01*
X167690164Y-120608384D01*
X167717541Y-120605068D01*
X167748962Y-120602148D01*
X167784311Y-120599631D01*
X167823471Y-120597522D01*
X167866324Y-120595825D01*
X167912754Y-120594546D01*
X167962645Y-120593690D01*
X168015880Y-120593262D01*
X168072341Y-120593267D01*
X168096310Y-120593390D01*
X168119997Y-120593571D01*
X168142638Y-120593802D01*
X168163776Y-120594075D01*
X168182950Y-120594382D01*
X168199704Y-120594717D01*
X168213577Y-120595073D01*
X168224113Y-120595441D01*
X168230851Y-120595814D01*
X168243635Y-120596830D01*
X168259766Y-120598079D01*
X168272460Y-120598975D01*
X168282201Y-120599512D01*
X168289472Y-120599683D01*
X168294757Y-120599482D01*
X168298541Y-120598903D01*
X168299621Y-120598527D01*
X168363830Y-120598527D01*
X168364496Y-120602196D01*
X168367048Y-120606330D01*
X168368629Y-120607023D01*
X168374068Y-120608355D01*
X168382439Y-120609879D01*
X168392952Y-120611456D01*
X168404814Y-120612946D01*
X168427033Y-120615600D01*
X168481003Y-120623129D01*
X168532473Y-120631992D01*
X168582617Y-120642423D01*
X168632606Y-120654659D01*
X168683615Y-120668936D01*
X168683940Y-120669032D01*
X168696937Y-120672739D01*
X168709119Y-120675964D01*
X168719674Y-120678510D01*
X168727791Y-120680181D01*
X168732657Y-120680782D01*
X168734403Y-120680746D01*
X168738354Y-120680209D01*
X168742443Y-120678686D01*
X168747456Y-120675747D01*
X168754178Y-120670961D01*
X168763394Y-120663894D01*
X168774329Y-120655561D01*
X168788196Y-120645594D01*
X168802171Y-120636331D01*
X168816694Y-120627554D01*
X168832205Y-120619046D01*
X168849144Y-120610590D01*
X168867951Y-120601968D01*
X168889066Y-120592963D01*
X168912928Y-120583357D01*
X168939977Y-120572934D01*
X168970653Y-120561476D01*
X168974523Y-120560045D01*
X169005771Y-120548299D01*
X169033909Y-120537319D01*
X169059808Y-120526732D01*
X169084345Y-120516161D01*
X169108391Y-120505232D01*
X169132822Y-120493569D01*
X169158511Y-120480796D01*
X169176537Y-120471548D01*
X169223023Y-120446270D01*
X169266064Y-120420593D01*
X169306252Y-120394113D01*
X169344176Y-120366428D01*
X169380429Y-120337137D01*
X169415601Y-120305837D01*
X169434852Y-120287332D01*
X169474035Y-120245672D01*
X169509699Y-120201987D01*
X169541752Y-120156437D01*
X169570103Y-120109180D01*
X169594661Y-120060375D01*
X169615336Y-120010179D01*
X169632037Y-119958751D01*
X169644673Y-119906249D01*
X169647081Y-119893428D01*
X169651934Y-119861890D01*
X169655828Y-119828063D01*
X169658740Y-119792742D01*
X169660646Y-119756728D01*
X169661520Y-119720818D01*
X169661339Y-119685810D01*
X169660078Y-119652504D01*
X169657712Y-119621698D01*
X169654217Y-119594189D01*
X169650021Y-119573335D01*
X169640928Y-119544144D01*
X169628574Y-119517115D01*
X169613171Y-119492490D01*
X169594930Y-119470513D01*
X169574061Y-119451428D01*
X169550777Y-119435477D01*
X169525287Y-119422903D01*
X169497804Y-119413951D01*
X169471885Y-119409117D01*
X169442471Y-119406871D01*
X169410354Y-119407437D01*
X169375471Y-119410824D01*
X169337762Y-119417043D01*
X169297166Y-119426104D01*
X169253622Y-119438017D01*
X169207070Y-119452792D01*
X169157447Y-119470439D01*
X169119661Y-119484949D01*
X169057588Y-119510713D01*
X168998580Y-119537704D01*
X168942923Y-119565783D01*
X168890901Y-119594811D01*
X168842796Y-119624647D01*
X168832536Y-119631428D01*
X168808803Y-119647644D01*
X168787896Y-119662867D01*
X168769090Y-119677712D01*
X168751663Y-119692794D01*
X168734891Y-119708725D01*
X168718051Y-119726122D01*
X168700420Y-119745598D01*
X168697214Y-119749226D01*
X168688198Y-119759352D01*
X168679364Y-119769178D01*
X168671585Y-119777735D01*
X168665733Y-119784056D01*
X168658906Y-119791858D01*
X168653244Y-119800568D01*
X168650325Y-119809406D01*
X168649766Y-119819644D01*
X168651185Y-119832554D01*
X168652270Y-119842127D01*
X168652932Y-119859428D01*
X168652503Y-119880543D01*
X168651756Y-119893469D01*
X168651244Y-119902322D01*
X168645198Y-119957198D01*
X168635079Y-120012416D01*
X168620969Y-120067678D01*
X168602950Y-120122691D01*
X168581103Y-120177157D01*
X168555510Y-120230782D01*
X168552611Y-120236279D01*
X168546307Y-120247821D01*
X168538449Y-120261855D01*
X168529443Y-120277669D01*
X168519695Y-120294550D01*
X168509614Y-120311785D01*
X168499605Y-120328663D01*
X168497062Y-120332918D01*
X168485291Y-120352628D01*
X168475391Y-120369238D01*
X168467096Y-120383209D01*
X168460140Y-120395002D01*
X168454258Y-120405076D01*
X168449184Y-120413893D01*
X168444654Y-120421912D01*
X168440402Y-120429596D01*
X168436162Y-120437403D01*
X168431669Y-120445795D01*
X168426657Y-120455231D01*
X168426263Y-120455977D01*
X168417290Y-120473314D01*
X168408353Y-120491267D01*
X168399666Y-120509349D01*
X168391442Y-120527072D01*
X168383897Y-120543947D01*
X168377244Y-120559487D01*
X168371696Y-120573203D01*
X168367469Y-120584607D01*
X168364775Y-120593211D01*
X168363830Y-120598527D01*
X168299621Y-120598527D01*
X168301307Y-120597940D01*
X168303540Y-120596585D01*
X168305723Y-120594834D01*
X168311605Y-120587768D01*
X168316103Y-120578051D01*
X168316773Y-120576071D01*
X168320293Y-120566624D01*
X168325154Y-120554520D01*
X168330959Y-120540684D01*
X168337308Y-120526041D01*
X168343801Y-120511517D01*
X168350039Y-120498036D01*
X168355622Y-120486523D01*
X168361652Y-120474709D01*
X168368952Y-120460904D01*
X168377208Y-120445787D01*
X168386637Y-120428975D01*
X168397456Y-120410087D01*
X168409882Y-120388739D01*
X168424133Y-120364550D01*
X168440425Y-120337136D01*
X168447135Y-120325867D01*
X168464413Y-120296627D01*
X168479703Y-120270369D01*
X168493238Y-120246655D01*
X168505250Y-120225045D01*
X168515973Y-120205102D01*
X168525638Y-120186388D01*
X168534480Y-120168462D01*
X168542731Y-120150888D01*
X168550624Y-120133226D01*
X168558392Y-120115038D01*
X168559127Y-120113277D01*
X168574716Y-120073242D01*
X168587183Y-120035341D01*
X168596661Y-119998993D01*
X168603281Y-119963619D01*
X168607173Y-119928637D01*
X168608469Y-119893469D01*
X168606988Y-119850962D01*
X168601608Y-119802642D01*
X168592270Y-119753951D01*
X168578945Y-119704810D01*
X168561607Y-119655140D01*
X168540227Y-119604862D01*
X168514776Y-119553897D01*
X168485228Y-119502166D01*
X168451554Y-119449589D01*
X168435581Y-119426319D01*
X168406424Y-119385901D01*
X168376852Y-119347444D01*
X168347213Y-119311366D01*
X168317853Y-119278083D01*
X168295924Y-119255131D01*
X168385458Y-119255131D01*
X168385785Y-119260103D01*
X168386723Y-119266903D01*
X168388444Y-119273570D01*
X168391213Y-119280600D01*
X168395296Y-119288489D01*
X168400956Y-119297733D01*
X168408461Y-119308828D01*
X168418074Y-119322270D01*
X168430060Y-119338555D01*
X168430091Y-119338596D01*
X168458255Y-119377296D01*
X168483674Y-119413874D01*
X168506785Y-119449036D01*
X168528023Y-119483486D01*
X168547822Y-119517930D01*
X168566617Y-119553074D01*
X168584844Y-119589625D01*
X168589270Y-119598875D01*
X168595781Y-119612940D01*
X168601341Y-119625764D01*
X168606365Y-119638414D01*
X168611270Y-119651961D01*
X168616472Y-119667473D01*
X168622388Y-119686018D01*
X168626586Y-119699303D01*
X168630787Y-119712420D01*
X168634457Y-119723689D01*
X168637413Y-119732555D01*
X168639471Y-119738465D01*
X168640451Y-119740864D01*
X168640837Y-119740999D01*
X168643722Y-119739427D01*
X168648843Y-119735152D01*
X168655804Y-119728580D01*
X168664208Y-119720116D01*
X168673658Y-119710168D01*
X168683759Y-119699139D01*
X168694114Y-119687437D01*
X168704327Y-119675467D01*
X168714374Y-119663721D01*
X168725363Y-119651731D01*
X168734471Y-119642929D01*
X168741922Y-119637087D01*
X168743689Y-119635902D01*
X168750854Y-119630957D01*
X168760105Y-119624436D01*
X168770438Y-119617049D01*
X168780851Y-119609506D01*
X168790765Y-119602297D01*
X168812135Y-119586991D01*
X168830930Y-119573932D01*
X168847656Y-119562807D01*
X168862822Y-119553306D01*
X168876936Y-119545116D01*
X168890505Y-119537927D01*
X168904037Y-119531426D01*
X168918039Y-119525302D01*
X168929141Y-119520408D01*
X168951601Y-119508618D01*
X168970910Y-119495396D01*
X168987346Y-119480364D01*
X169001188Y-119463142D01*
X169012715Y-119443351D01*
X169022205Y-119420614D01*
X169029938Y-119394552D01*
X169036191Y-119364785D01*
X169041699Y-119328912D01*
X169045611Y-119289112D01*
X169046808Y-119250649D01*
X169045209Y-119213030D01*
X169040733Y-119175763D01*
X169033299Y-119138355D01*
X169022826Y-119100312D01*
X169009232Y-119061142D01*
X168992436Y-119020351D01*
X168972357Y-118977448D01*
X168964034Y-118960812D01*
X168955298Y-118944114D01*
X168947699Y-118930628D01*
X168940987Y-118919958D01*
X168934906Y-118911705D01*
X168929204Y-118905471D01*
X168923628Y-118900858D01*
X168922970Y-118900399D01*
X168917851Y-118897250D01*
X168912804Y-118895350D01*
X168906388Y-118894310D01*
X168897159Y-118893741D01*
X168891379Y-118893631D01*
X168882765Y-118894026D01*
X168873536Y-118895217D01*
X168863020Y-118897348D01*
X168850544Y-118900561D01*
X168835435Y-118905000D01*
X168817022Y-118910808D01*
X168775493Y-118925362D01*
X168723765Y-118946842D01*
X168673698Y-118971402D01*
X168625667Y-118998807D01*
X168580046Y-119028826D01*
X168537210Y-119061223D01*
X168497534Y-119095766D01*
X168461394Y-119132221D01*
X168446521Y-119148597D01*
X168430987Y-119166235D01*
X168418151Y-119181596D01*
X168407793Y-119195036D01*
X168399696Y-119206907D01*
X168393640Y-119217564D01*
X168389407Y-119227361D01*
X168386778Y-119236652D01*
X168385535Y-119245790D01*
X168385458Y-119255131D01*
X168295924Y-119255131D01*
X168289121Y-119248011D01*
X168261364Y-119221567D01*
X168244194Y-119206475D01*
X168215021Y-119182492D01*
X168185223Y-119159931D01*
X168155138Y-119138972D01*
X168125103Y-119119800D01*
X168095458Y-119102594D01*
X168066539Y-119087539D01*
X168038685Y-119074816D01*
X168012234Y-119064607D01*
X167987525Y-119057095D01*
X167964894Y-119052462D01*
X167944681Y-119050889D01*
X167942105Y-119050905D01*
X167928035Y-119051613D01*
X167915399Y-119053602D01*
X167903489Y-119057191D01*
X167891596Y-119062697D01*
X167879012Y-119070439D01*
X167865028Y-119080735D01*
X167848937Y-119093903D01*
X167822681Y-119116460D01*
X167773086Y-119160998D01*
X167725925Y-119205948D01*
X167681607Y-119250902D01*
X167640543Y-119295449D01*
X167618064Y-119321733D01*
X167603143Y-119339180D01*
X167570205Y-119380979D01*
X167535185Y-119429519D01*
X167503075Y-119478640D01*
X167474029Y-119528048D01*
X167448201Y-119577444D01*
X167425743Y-119626534D01*
X167406810Y-119675022D01*
X167391555Y-119722610D01*
X167380133Y-119769004D01*
X167377185Y-119783867D01*
X167373977Y-119802591D01*
X167371752Y-119820016D01*
X167370550Y-119836738D01*
X167370407Y-119853348D01*
X167326170Y-119853348D01*
X167325801Y-119842908D01*
X167326872Y-119816984D01*
X167330036Y-119793978D01*
X167330135Y-119793479D01*
X167331145Y-119787765D01*
X167331554Y-119782767D01*
X167331070Y-119778169D01*
X167329407Y-119773656D01*
X167326276Y-119768912D01*
X167321389Y-119763622D01*
X167314456Y-119757470D01*
X167305190Y-119750140D01*
X167293302Y-119741319D01*
X167278504Y-119730689D01*
X167260507Y-119717936D01*
X167229365Y-119696314D01*
X167172855Y-119659199D01*
X167117671Y-119625814D01*
X167063561Y-119596056D01*
X167010272Y-119569816D01*
X166957551Y-119546990D01*
X166905145Y-119527471D01*
X166852801Y-119511154D01*
X166800267Y-119497932D01*
X166747290Y-119487700D01*
X166693617Y-119480351D01*
X166680746Y-119479254D01*
X166664646Y-119478409D01*
X166646412Y-119477844D01*
X166626841Y-119477554D01*
X166606732Y-119477535D01*
X166586882Y-119477782D01*
X166568090Y-119478290D01*
X166551152Y-119479055D01*
X166536867Y-119480072D01*
X166526033Y-119481336D01*
X166515741Y-119483080D01*
X166486043Y-119489850D01*
X166459499Y-119498824D01*
X166435622Y-119510223D01*
X166413920Y-119524271D01*
X166393906Y-119541188D01*
X166390833Y-119544182D01*
X166373487Y-119564081D01*
X166359039Y-119586409D01*
X166347406Y-119611370D01*
X166338507Y-119639170D01*
X166332259Y-119670013D01*
X166328581Y-119704105D01*
X166328298Y-119710268D01*
X166250413Y-119710268D01*
X166250455Y-119707697D01*
X166252653Y-119673490D01*
X166256482Y-119642397D01*
X166256626Y-119641499D01*
X166263341Y-119608812D01*
X166272566Y-119579191D01*
X166284500Y-119552390D01*
X166299343Y-119528166D01*
X166317295Y-119506274D01*
X166338556Y-119486468D01*
X166363326Y-119468505D01*
X166391804Y-119452140D01*
X166424191Y-119437128D01*
X166451612Y-119426423D01*
X166496905Y-119412085D01*
X166542426Y-119401768D01*
X166587879Y-119395533D01*
X166632971Y-119393440D01*
X166642668Y-119393491D01*
X166657381Y-119393851D01*
X166671064Y-119394651D01*
X166684751Y-119396001D01*
X166699476Y-119398012D01*
X166716271Y-119400793D01*
X166736171Y-119404456D01*
X166754194Y-119407666D01*
X166770956Y-119410065D01*
X166784341Y-119411195D01*
X166794705Y-119411068D01*
X166802408Y-119409698D01*
X166807807Y-119407097D01*
X166809219Y-119405971D01*
X166812264Y-119402671D01*
X166814866Y-119398200D01*
X166817121Y-119392120D01*
X166819128Y-119383989D01*
X166820983Y-119373369D01*
X166821403Y-119370212D01*
X166906520Y-119370212D01*
X166906624Y-119388961D01*
X166906997Y-119406494D01*
X166907641Y-119421800D01*
X166908555Y-119433869D01*
X166910751Y-119447777D01*
X166915603Y-119463867D01*
X166922488Y-119477042D01*
X166931187Y-119486787D01*
X166932610Y-119487828D01*
X166938598Y-119491344D01*
X166947257Y-119495750D01*
X166957654Y-119500586D01*
X166968857Y-119505390D01*
X166975286Y-119508072D01*
X166996644Y-119517478D01*
X167020218Y-119528506D01*
X167045500Y-119540876D01*
X167071979Y-119554308D01*
X167099150Y-119568523D01*
X167126501Y-119583239D01*
X167153527Y-119598179D01*
X167179717Y-119613061D01*
X167204564Y-119627606D01*
X167227560Y-119641534D01*
X167248195Y-119654566D01*
X167265962Y-119666422D01*
X167280352Y-119676821D01*
X167287989Y-119682599D01*
X167297980Y-119689985D01*
X167306863Y-119696363D01*
X167313888Y-119701197D01*
X167318307Y-119703951D01*
X167318977Y-119704305D01*
X167327747Y-119707731D01*
X167334666Y-119707699D01*
X167340313Y-119704218D01*
X167341641Y-119702821D01*
X167344193Y-119699568D01*
X167346700Y-119695324D01*
X167349435Y-119689480D01*
X167352671Y-119681423D01*
X167356681Y-119670543D01*
X167361737Y-119656228D01*
X167363163Y-119652210D01*
X167367480Y-119640801D01*
X167372362Y-119629097D01*
X167378124Y-119616421D01*
X167385080Y-119602096D01*
X167393545Y-119585447D01*
X167403835Y-119565795D01*
X167408146Y-119557660D01*
X167425684Y-119524954D01*
X167441776Y-119495653D01*
X167456660Y-119469367D01*
X167470573Y-119445708D01*
X167483754Y-119424285D01*
X167496440Y-119404712D01*
X167508870Y-119386598D01*
X167521281Y-119369554D01*
X167533912Y-119353193D01*
X167534715Y-119352180D01*
X167542393Y-119342294D01*
X167547694Y-119334934D01*
X167551005Y-119329472D01*
X167552709Y-119325281D01*
X167553192Y-119321733D01*
X167553181Y-119321313D01*
X167551775Y-119314930D01*
X167548198Y-119305634D01*
X167542734Y-119293920D01*
X167535668Y-119280287D01*
X167527284Y-119265232D01*
X167517867Y-119249252D01*
X167507701Y-119232844D01*
X167497071Y-119216507D01*
X167486261Y-119200736D01*
X167475556Y-119186030D01*
X167463544Y-119170597D01*
X167429830Y-119132011D01*
X167393181Y-119096461D01*
X167353695Y-119064010D01*
X167311472Y-119034723D01*
X167266610Y-119008667D01*
X167219207Y-118985905D01*
X167169364Y-118966502D01*
X167117177Y-118950523D01*
X167107824Y-118948152D01*
X167093981Y-118945398D01*
X167081990Y-118944383D01*
X167071371Y-118945361D01*
X167061643Y-118948585D01*
X167052328Y-118954307D01*
X167042945Y-118962780D01*
X167033014Y-118974258D01*
X167022056Y-118988993D01*
X167009590Y-119007238D01*
X166995746Y-119028935D01*
X166972436Y-119070720D01*
X166952791Y-119113764D01*
X166936699Y-119158398D01*
X166924048Y-119204951D01*
X166914725Y-119253753D01*
X166908620Y-119305135D01*
X166907820Y-119316764D01*
X166907119Y-119333103D01*
X166906685Y-119351256D01*
X166906520Y-119370212D01*
X166821403Y-119370212D01*
X166822784Y-119359820D01*
X166824628Y-119342901D01*
X166826614Y-119322172D01*
X166827242Y-119315450D01*
X166832179Y-119270351D01*
X166838098Y-119228847D01*
X166845126Y-119190434D01*
X166853394Y-119154606D01*
X166863027Y-119120856D01*
X166874155Y-119088681D01*
X166886905Y-119057574D01*
X166901406Y-119027030D01*
X166902329Y-119025224D01*
X166911174Y-119008985D01*
X166921569Y-118991436D01*
X166932842Y-118973610D01*
X166944324Y-118956539D01*
X166955342Y-118941257D01*
X166965226Y-118928796D01*
X166972491Y-118920708D01*
X166990687Y-118903751D01*
X167010384Y-118889450D01*
X167030823Y-118878315D01*
X167051248Y-118870856D01*
X167062189Y-118868666D01*
X167078616Y-118867222D01*
X167096482Y-118867281D01*
X167114367Y-118868824D01*
X167130851Y-118871835D01*
X167133152Y-118872401D01*
X167177976Y-118885179D01*
X167223120Y-118901225D01*
X167267708Y-118920139D01*
X167310861Y-118941519D01*
X167351705Y-118964964D01*
X167389362Y-118990074D01*
X167399291Y-118997314D01*
X167412629Y-119007392D01*
X167424782Y-119017129D01*
X167436558Y-119027225D01*
X167448764Y-119038379D01*
X167462207Y-119051293D01*
X167477694Y-119066665D01*
X167491000Y-119080210D01*
X167508167Y-119098500D01*
X167523594Y-119116138D01*
X167538201Y-119134232D01*
X167552911Y-119153892D01*
X167568643Y-119176228D01*
X167572815Y-119182201D01*
X167579714Y-119191714D01*
X167585906Y-119199817D01*
X167590839Y-119205802D01*
X167593964Y-119208955D01*
X167595360Y-119209934D01*
X167599042Y-119211784D01*
X167602695Y-119212060D01*
X167606748Y-119210455D01*
X167611626Y-119206660D01*
X167617758Y-119200368D01*
X167625569Y-119191272D01*
X167635488Y-119179065D01*
X167645623Y-119166718D01*
X167671566Y-119137464D01*
X167700396Y-119108066D01*
X167732406Y-119078244D01*
X167767891Y-119047719D01*
X167807146Y-119016213D01*
X167822156Y-119004833D01*
X167839301Y-118992893D01*
X167854779Y-118983635D01*
X167869261Y-118976801D01*
X167883420Y-118972131D01*
X167897928Y-118969364D01*
X167913457Y-118968243D01*
X167930681Y-118968506D01*
X167948121Y-118969845D01*
X167975559Y-118973599D01*
X168004774Y-118979315D01*
X168034712Y-118986778D01*
X168064320Y-118995773D01*
X168086378Y-119003654D01*
X168130126Y-119022440D01*
X168173286Y-119045140D01*
X168215481Y-119071528D01*
X168256332Y-119101376D01*
X168295460Y-119134458D01*
X168301553Y-119139827D01*
X168309260Y-119146190D01*
X168315827Y-119151152D01*
X168320282Y-119153948D01*
X168323953Y-119155463D01*
X168327627Y-119156154D01*
X168331345Y-119155568D01*
X168335468Y-119153403D01*
X168340357Y-119149356D01*
X168346372Y-119143125D01*
X168353875Y-119134409D01*
X168363227Y-119122904D01*
X168374787Y-119108310D01*
X168375861Y-119106955D01*
X168387625Y-119092994D01*
X168401891Y-119077311D01*
X168417871Y-119060693D01*
X168434774Y-119043924D01*
X168451811Y-119027789D01*
X168468192Y-119013075D01*
X168483128Y-119000567D01*
X168511764Y-118978804D01*
X168557984Y-118947781D01*
X168607340Y-118919258D01*
X168659550Y-118893385D01*
X168714327Y-118870309D01*
X168771387Y-118850179D01*
X168785150Y-118845853D01*
X168805130Y-118839987D01*
X168822532Y-118835533D01*
X168838187Y-118832332D01*
X168852926Y-118830224D01*
X168867580Y-118829047D01*
X168882979Y-118828641D01*
X168886019Y-118828630D01*
X168898392Y-118828719D01*
X168907792Y-118829115D01*
X168915275Y-118829923D01*
X168921899Y-118831249D01*
X168928724Y-118833198D01*
X168936292Y-118835817D01*
X168952308Y-118843132D01*
X168967457Y-118852774D01*
X168982136Y-118865100D01*
X168996741Y-118880465D01*
X169011669Y-118899225D01*
X169027316Y-118921736D01*
X169034230Y-118932438D01*
X169059393Y-118975587D01*
X169080459Y-119019219D01*
X169097554Y-119063651D01*
X169110804Y-119109200D01*
X169120337Y-119156186D01*
X169121071Y-119161443D01*
X169122324Y-119174041D01*
X169123401Y-119189743D01*
X169124253Y-119207801D01*
X169124835Y-119227469D01*
X169124946Y-119232922D01*
X169125188Y-119250053D01*
X169125187Y-119250649D01*
X169125158Y-119264351D01*
G37*
%TO.C,R1 L*%
X166880000Y-88000000D02*
X167650000Y-88000000D01*
X167650000Y-86630000D02*
X174190000Y-86630000D01*
X167650000Y-89370000D02*
X167650000Y-86630000D01*
X174190000Y-86630000D02*
X174190000Y-89370000D01*
X174190000Y-89370000D02*
X167650000Y-89370000D01*
X174960000Y-88000000D02*
X174190000Y-88000000D01*
%TO.C,R5 L*%
X175040000Y-112000000D02*
X174270000Y-112000000D01*
X174270000Y-113370000D02*
X167730000Y-113370000D01*
X174270000Y-110630000D02*
X174270000Y-113370000D01*
X167730000Y-113370000D02*
X167730000Y-110630000D01*
X167730000Y-110630000D02*
X174270000Y-110630000D01*
X166960000Y-112000000D02*
X167730000Y-112000000D01*
%TO.C,R5 R*%
X132960000Y-88000000D02*
X132190000Y-88000000D01*
X132190000Y-89370000D02*
X125650000Y-89370000D01*
X132190000Y-86630000D02*
X132190000Y-89370000D01*
X125650000Y-89370000D02*
X125650000Y-86630000D01*
X125650000Y-86630000D02*
X132190000Y-86630000D01*
X124880000Y-88000000D02*
X125650000Y-88000000D01*
%TO.C,R3 L*%
X175040000Y-100000000D02*
X174270000Y-100000000D01*
X174270000Y-101370000D02*
X167730000Y-101370000D01*
X174270000Y-98630000D02*
X174270000Y-101370000D01*
X167730000Y-101370000D02*
X167730000Y-98630000D01*
X167730000Y-98630000D02*
X174270000Y-98630000D01*
X166960000Y-100000000D02*
X167730000Y-100000000D01*
%TO.C,R1 R*%
X124960000Y-112000000D02*
X125730000Y-112000000D01*
X125730000Y-110630000D02*
X132270000Y-110630000D01*
X125730000Y-113370000D02*
X125730000Y-110630000D01*
X132270000Y-110630000D02*
X132270000Y-113370000D01*
X132270000Y-113370000D02*
X125730000Y-113370000D01*
X133040000Y-112000000D02*
X132270000Y-112000000D01*
%TD*%
M02*
