M48
; DRILL file {KiCad 7.0.7} date Sat Jun  1 16:44:23 2024
; FORMAT={-:-/ absolute / inch / decimal}
; #@! TF.CreationDate,2024-06-01T16:44:23-07:00
; #@! TF.GenerationSoftware,Kicad,Pcbnew,7.0.7
; #@! TF.FileFunction,Plated,1,2,PTH
FMAT,2
INCH
; #@! TA.AperFunction,Plated,PTH,ComponentDrill
T1C0.0157
; #@! TA.AperFunction,Plated,PTH,ComponentDrill
T2C0.0315
; #@! TA.AperFunction,Plated,PTH,ComponentDrill
T3C0.0787
%
G90
G05
T2
X4.8756Y-3.4646
X4.8756Y-3.937
X4.8787Y-3.7008
X4.8787Y-4.1732
X4.8787Y-4.4094
X5.2756Y-3.4646
X5.2756Y-3.937
X5.2787Y-3.7008
X5.2787Y-4.1732
X5.2787Y-4.4094
X6.5291Y-3.4646
X6.5323Y-3.7008
X6.5323Y-3.937
X6.5323Y-4.1732
X6.5323Y-4.4094
X6.9291Y-3.4646
X6.9323Y-3.7008
X6.9323Y-3.937
X6.9323Y-4.1732
X6.9323Y-4.4094
T3
X5.5244Y-3.8307
X5.5244Y-4.0433
X5.6256Y-4.2165
X5.626Y-3.6571
X5.6831Y-3.937
X5.7992Y-3.5559
X5.7992Y-4.3181
X6.0106Y-3.5555
X6.0106Y-4.3185
X6.128Y-3.937
X6.185Y-3.6571
X6.185Y-4.2169
X6.2866Y-3.8307
X6.2866Y-4.0433
T1
G00X5.7087Y-3.2283
M15
G01X5.7087Y-3.2677
M16
G05
G00X5.7087Y-4.6063
M15
G01X5.7087Y-4.6457
M16
G05
G00X5.8858Y-3.0512
M15
G01X5.9252Y-3.0512
M16
G05
G00X5.9252Y-4.8228
M15
G01X5.8858Y-4.8228
M16
G05
G00X6.1024Y-3.2677
M15
G01X6.1024Y-3.2283
M16
G05
G00X6.1024Y-4.6457
M15
G01X6.1024Y-4.6063
M16
G05
T0
M30
