%TF.GenerationSoftware,KiCad,Pcbnew,7.0.7*%
%TF.CreationDate,2024-06-01T16:44:26-07:00*%
%TF.ProjectId,Impedance Selector,496d7065-6461-46e6-9365-2053656c6563,rev?*%
%TF.SameCoordinates,Original*%
%TF.FileFunction,Copper,L1,Top*%
%TF.FilePolarity,Positive*%
%FSLAX46Y46*%
G04 Gerber Fmt 4.6, Leading zero omitted, Abs format (unit mm)*
G04 Created by KiCad (PCBNEW 7.0.7) date 2024-06-01 16:44:26*
%MOMM*%
%LPD*%
G01*
G04 APERTURE LIST*
%TA.AperFunction,ComponentPad*%
%ADD10C,3.000000*%
%TD*%
%TA.AperFunction,ComponentPad*%
%ADD11O,1.600000X1.600000*%
%TD*%
%TA.AperFunction,ComponentPad*%
%ADD12C,1.600000*%
%TD*%
%TA.AperFunction,ComponentPad*%
%ADD13O,1.200000X2.200000*%
%TD*%
%TA.AperFunction,ComponentPad*%
%ADD14O,2.200000X1.200000*%
%TD*%
%TA.AperFunction,Conductor*%
%ADD15C,0.250000*%
%TD*%
G04 APERTURE END LIST*
D10*
%TO.P,SW1,1,1*%
%TO.N,Net-(J2-PadT)*%
X152670000Y-90310000D03*
%TO.P,SW1,2,2*%
%TO.N,Net-(R1L1-Pad1)*%
X157100000Y-92890000D03*
%TO.P,SW1,3,3*%
%TO.N,Net-(R2L1-Pad1)*%
X159680000Y-97300000D03*
%TO.P,SW1,4,4*%
%TO.N,Net-(R3L1-Pad1)*%
X159680000Y-102700000D03*
%TO.P,SW1,5,5*%
%TO.N,Net-(R4L1-Pad1)*%
X157100000Y-107110000D03*
%TO.P,SW1,6,6*%
%TO.N,Net-(R5L1-Pad1)*%
X152670000Y-109690000D03*
%TO.P,SW1,7,7*%
%TO.N,Net-(J2-PadR)*%
X147300000Y-109680000D03*
%TO.P,SW1,8,8*%
%TO.N,Net-(R1R1-Pad1)*%
X142890000Y-107100000D03*
%TO.P,SW1,9,9*%
%TO.N,Net-(R2R1-Pad1)*%
X140320000Y-102700000D03*
%TO.P,SW1,10,10*%
%TO.N,Net-(R3R1-Pad1)*%
X140320000Y-97300000D03*
%TO.P,SW1,11,11*%
%TO.N,Net-(R4R1-Pad1)*%
X142900000Y-92890000D03*
%TO.P,SW1,12,12*%
%TO.N,Net-(R5R1-Pad1)*%
X147300000Y-90320000D03*
%TO.P,SW1,13,13*%
%TO.N,Net-(J1-PadT)*%
X155650000Y-100000000D03*
%TO.P,SW1,14,14*%
%TO.N,Net-(J1-PadR)*%
X144350000Y-100000000D03*
%TD*%
D11*
%TO.P,R2 L,1*%
%TO.N,Net-(R2L1-Pad1)*%
X165920000Y-94000000D03*
D12*
%TO.P,R2 L,2*%
%TO.N,Net-(J2-PadT)*%
X176080000Y-94000000D03*
%TD*%
D11*
%TO.P,R4 L,1*%
%TO.N,Net-(R4L1-Pad1)*%
X165920000Y-106000000D03*
D12*
%TO.P,R4 L,2*%
%TO.N,Net-(J2-PadT)*%
X176080000Y-106000000D03*
%TD*%
%TO.P,R3 R,1*%
%TO.N,Net-(R3R1-Pad1)*%
X134000000Y-100000000D03*
D11*
%TO.P,R3 R,2*%
%TO.N,Net-(J2-PadR)*%
X123840000Y-100000000D03*
%TD*%
D13*
%TO.P,J2,R*%
%TO.N,Net-(J2-PadR)*%
X155000000Y-117500000D03*
D14*
%TO.P,J2,S*%
%TO.N,GND*%
X150000000Y-122500000D03*
D13*
%TO.P,J2,T*%
%TO.N,Net-(J2-PadT)*%
X145000000Y-117500000D03*
%TD*%
D12*
%TO.P,R4 R,1*%
%TO.N,Net-(R4R1-Pad1)*%
X134080000Y-94000000D03*
D11*
%TO.P,R4 R,2*%
%TO.N,Net-(J2-PadR)*%
X123920000Y-94000000D03*
%TD*%
D13*
%TO.P,J1,R*%
%TO.N,Net-(J1-PadR)*%
X145000000Y-82500000D03*
D14*
%TO.P,J1,S*%
%TO.N,GND*%
X150000000Y-77500000D03*
D13*
%TO.P,J1,T*%
%TO.N,Net-(J1-PadT)*%
X155000000Y-82500000D03*
%TD*%
D11*
%TO.P,R2 R,2*%
%TO.N,Net-(J2-PadR)*%
X123920000Y-106000000D03*
D12*
%TO.P,R2 R,1*%
%TO.N,Net-(R2R1-Pad1)*%
X134080000Y-106000000D03*
%TD*%
%TO.P,R1 L,2*%
%TO.N,Net-(J2-PadT)*%
X176000000Y-88000000D03*
D11*
%TO.P,R1 L,1*%
%TO.N,Net-(R1L1-Pad1)*%
X165840000Y-88000000D03*
%TD*%
%TO.P,R5 L,1*%
%TO.N,Net-(R5L1-Pad1)*%
X165920000Y-112000000D03*
D12*
%TO.P,R5 L,2*%
%TO.N,Net-(J2-PadT)*%
X176080000Y-112000000D03*
%TD*%
%TO.P,R5 R,1*%
%TO.N,Net-(R5R1-Pad1)*%
X134000000Y-88000000D03*
D11*
%TO.P,R5 R,2*%
%TO.N,Net-(J2-PadR)*%
X123840000Y-88000000D03*
%TD*%
%TO.P,R3 L,1*%
%TO.N,Net-(R3L1-Pad1)*%
X165920000Y-100000000D03*
D12*
%TO.P,R3 L,2*%
%TO.N,Net-(J2-PadT)*%
X176080000Y-100000000D03*
%TD*%
D11*
%TO.P,R1 R,2*%
%TO.N,Net-(J2-PadR)*%
X123920000Y-112000000D03*
D12*
%TO.P,R1 R,1*%
%TO.N,Net-(R1R1-Pad1)*%
X134080000Y-112000000D03*
%TD*%
D15*
%TO.N,Net-(J2-PadR)*%
X123920000Y-100080000D02*
X123840000Y-100000000D01*
X123920000Y-99920000D02*
X123840000Y-100000000D01*
%TD*%
%TA.AperFunction,Conductor*%
%TO.N,GND*%
G36*
X147742539Y-73020185D02*
G01*
X147788294Y-73072989D01*
X147799500Y-73124500D01*
X147799500Y-73911887D01*
X147790758Y-73941656D01*
X147797973Y-73987205D01*
X147799500Y-74006603D01*
X147799500Y-74052728D01*
X147800541Y-74056612D01*
X147800459Y-74060015D01*
X147800561Y-74060783D01*
X147800441Y-74060798D01*
X147799866Y-74084925D01*
X147811372Y-74107505D01*
X147820661Y-74131704D01*
X147826792Y-74154584D01*
X147826794Y-74154589D01*
X147838180Y-74174310D01*
X147845415Y-74204135D01*
X147857496Y-74216216D01*
X147877199Y-74241893D01*
X147879520Y-74245913D01*
X147954087Y-74320480D01*
X147958107Y-74322801D01*
X147983782Y-74342503D01*
X147991671Y-74350392D01*
X147999327Y-74350438D01*
X148025685Y-74361817D01*
X148045413Y-74373207D01*
X148068294Y-74379338D01*
X148092496Y-74388628D01*
X148107733Y-74396392D01*
X148111729Y-74395234D01*
X148143384Y-74399458D01*
X148147273Y-74400500D01*
X148147276Y-74400500D01*
X148193401Y-74400500D01*
X148212799Y-74402027D01*
X148249610Y-74407857D01*
X148253316Y-74405482D01*
X148288111Y-74400500D01*
X151711893Y-74400500D01*
X151741656Y-74409239D01*
X151787197Y-74402027D01*
X151806594Y-74400500D01*
X151852725Y-74400500D01*
X151852727Y-74400500D01*
X151856619Y-74399457D01*
X151860030Y-74399538D01*
X151860783Y-74399439D01*
X151860798Y-74399556D01*
X151884926Y-74400130D01*
X151907498Y-74388629D01*
X151931691Y-74379341D01*
X151954587Y-74373207D01*
X151974314Y-74361817D01*
X152004137Y-74354581D01*
X152016214Y-74342505D01*
X152041889Y-74322802D01*
X152045913Y-74320480D01*
X152120480Y-74245913D01*
X152122802Y-74241889D01*
X152142505Y-74216214D01*
X152150391Y-74208327D01*
X152150437Y-74200671D01*
X152161815Y-74174317D01*
X152173207Y-74154587D01*
X152179341Y-74131691D01*
X152188629Y-74107498D01*
X152196389Y-74092267D01*
X152195232Y-74088273D01*
X152199457Y-74056618D01*
X152199973Y-74054692D01*
X152200500Y-74052727D01*
X152200500Y-74006593D01*
X152202027Y-73987195D01*
X152207856Y-73950390D01*
X152205481Y-73946685D01*
X152200500Y-73911893D01*
X152200500Y-73124500D01*
X152220185Y-73057461D01*
X152272989Y-73011706D01*
X152324500Y-73000500D01*
X156499901Y-73000500D01*
X174999500Y-73000500D01*
X175000000Y-73000500D01*
X175217318Y-73009488D01*
X175415934Y-73018160D01*
X175420865Y-73018574D01*
X175636792Y-73045489D01*
X175832940Y-73071313D01*
X175837265Y-73071883D01*
X175841894Y-73072671D01*
X176054183Y-73117183D01*
X176252534Y-73161157D01*
X176256778Y-73162257D01*
X176464544Y-73224112D01*
X176658658Y-73285317D01*
X176662530Y-73286680D01*
X176864457Y-73365472D01*
X177052817Y-73443494D01*
X177056252Y-73445045D01*
X177131343Y-73481755D01*
X177250992Y-73540249D01*
X177388629Y-73611897D01*
X177432009Y-73634479D01*
X177435107Y-73636207D01*
X177621382Y-73747202D01*
X177793662Y-73856957D01*
X177796377Y-73858789D01*
X177972918Y-73984837D01*
X178135098Y-74109282D01*
X178137426Y-74111159D01*
X178303055Y-74251439D01*
X178454895Y-74390574D01*
X178609424Y-74545103D01*
X178736092Y-74683337D01*
X178748555Y-74696938D01*
X178763008Y-74714003D01*
X178888839Y-74862572D01*
X178890716Y-74864900D01*
X179015162Y-75027081D01*
X179141209Y-75203621D01*
X179143040Y-75206335D01*
X179252797Y-75378617D01*
X179363791Y-75564891D01*
X179365525Y-75568000D01*
X179459750Y-75749007D01*
X179525992Y-75884503D01*
X179554953Y-75943744D01*
X179556524Y-75947229D01*
X179634536Y-76135566D01*
X179713309Y-76337445D01*
X179714681Y-76341340D01*
X179775899Y-76535496D01*
X179837735Y-76743200D01*
X179838843Y-76747472D01*
X179882818Y-76945826D01*
X179927326Y-77158101D01*
X179928115Y-77162733D01*
X179954524Y-77363319D01*
X179981422Y-77579114D01*
X179981839Y-77584080D01*
X179990513Y-77782728D01*
X179999500Y-78000000D01*
X179999500Y-122000000D01*
X179990513Y-122217271D01*
X179981839Y-122415918D01*
X179981422Y-122420884D01*
X179954524Y-122636680D01*
X179928115Y-122837265D01*
X179927326Y-122841897D01*
X179882818Y-123054173D01*
X179838843Y-123252526D01*
X179837735Y-123256798D01*
X179775899Y-123464503D01*
X179714681Y-123658658D01*
X179713309Y-123662552D01*
X179634536Y-123864433D01*
X179556524Y-124052769D01*
X179554944Y-124056274D01*
X179459750Y-124250992D01*
X179365525Y-124431998D01*
X179363791Y-124435107D01*
X179252797Y-124621382D01*
X179143040Y-124793663D01*
X179141209Y-124796377D01*
X179015162Y-124972918D01*
X178890716Y-125135099D01*
X178888839Y-125137426D01*
X178748557Y-125303059D01*
X178609426Y-125454895D01*
X178454895Y-125609426D01*
X178303059Y-125748557D01*
X178137426Y-125888839D01*
X178135099Y-125890716D01*
X177972918Y-126015162D01*
X177796377Y-126141209D01*
X177793663Y-126143040D01*
X177621382Y-126252797D01*
X177435107Y-126363791D01*
X177431998Y-126365525D01*
X177250992Y-126459750D01*
X177056274Y-126554944D01*
X177052769Y-126556524D01*
X176864433Y-126634536D01*
X176662552Y-126713309D01*
X176658658Y-126714681D01*
X176464503Y-126775899D01*
X176256798Y-126837735D01*
X176252526Y-126838843D01*
X176054173Y-126882818D01*
X175841897Y-126927326D01*
X175837265Y-126928115D01*
X175636680Y-126954524D01*
X175420884Y-126981422D01*
X175415918Y-126981839D01*
X175217271Y-126990513D01*
X175000000Y-126999500D01*
X152324500Y-126999500D01*
X152257461Y-126979815D01*
X152211706Y-126927011D01*
X152200500Y-126875500D01*
X152200500Y-126088111D01*
X152209240Y-126058343D01*
X152202027Y-126012799D01*
X152200500Y-125993401D01*
X152200500Y-125947275D01*
X152200500Y-125947273D01*
X152199459Y-125943388D01*
X152199540Y-125939984D01*
X152199439Y-125939217D01*
X152199558Y-125939201D01*
X152200132Y-125915073D01*
X152188628Y-125892496D01*
X152179337Y-125868292D01*
X152174569Y-125850499D01*
X152173207Y-125845413D01*
X152161817Y-125825686D01*
X152154582Y-125795861D01*
X152142503Y-125783782D01*
X152122799Y-125758104D01*
X152120480Y-125754087D01*
X152045913Y-125679520D01*
X152041893Y-125677199D01*
X152016216Y-125657496D01*
X152008324Y-125649604D01*
X152000663Y-125649559D01*
X151974310Y-125638180D01*
X151954589Y-125626794D01*
X151954584Y-125626792D01*
X151931704Y-125620661D01*
X151907505Y-125611372D01*
X151892259Y-125603604D01*
X151888252Y-125604765D01*
X151856612Y-125600541D01*
X151852728Y-125599500D01*
X151852727Y-125599500D01*
X151806604Y-125599500D01*
X151787206Y-125597973D01*
X151750390Y-125592141D01*
X151746684Y-125594518D01*
X151711888Y-125599500D01*
X148288105Y-125599500D01*
X148258339Y-125590759D01*
X148212795Y-125597973D01*
X148193398Y-125599500D01*
X148147273Y-125599500D01*
X148143373Y-125600544D01*
X148139957Y-125600463D01*
X148139217Y-125600561D01*
X148139201Y-125600445D01*
X148115066Y-125599870D01*
X148092491Y-125611373D01*
X148068292Y-125620662D01*
X148045417Y-125626791D01*
X148045410Y-125626794D01*
X148025683Y-125638184D01*
X147995857Y-125645419D01*
X147983778Y-125657499D01*
X147958104Y-125677201D01*
X147954085Y-125679521D01*
X147879521Y-125754085D01*
X147877201Y-125758104D01*
X147857499Y-125783778D01*
X147849609Y-125791667D01*
X147849564Y-125799326D01*
X147838184Y-125825683D01*
X147826794Y-125845410D01*
X147826791Y-125845417D01*
X147820662Y-125868292D01*
X147811373Y-125892491D01*
X147803610Y-125907726D01*
X147804768Y-125911722D01*
X147800545Y-125943374D01*
X147799500Y-125947273D01*
X147799500Y-125993392D01*
X147797973Y-126012790D01*
X147792141Y-126049606D01*
X147794518Y-126053313D01*
X147799500Y-126088109D01*
X147799500Y-126875500D01*
X147779815Y-126942539D01*
X147727011Y-126988294D01*
X147675500Y-126999500D01*
X125000000Y-126999500D01*
X124782728Y-126990513D01*
X124584080Y-126981839D01*
X124579114Y-126981422D01*
X124363319Y-126954524D01*
X124162733Y-126928115D01*
X124158101Y-126927326D01*
X123945826Y-126882818D01*
X123747472Y-126838843D01*
X123743200Y-126837735D01*
X123535496Y-126775899D01*
X123341340Y-126714681D01*
X123337445Y-126713309D01*
X123135566Y-126634536D01*
X122947229Y-126556524D01*
X122943744Y-126554953D01*
X122884503Y-126525992D01*
X122749007Y-126459750D01*
X122568000Y-126365525D01*
X122564891Y-126363791D01*
X122378617Y-126252797D01*
X122206335Y-126143040D01*
X122203621Y-126141209D01*
X122027081Y-126015162D01*
X121864900Y-125890716D01*
X121862572Y-125888839D01*
X121696940Y-125748557D01*
X121680020Y-125733053D01*
X121545103Y-125609424D01*
X121390574Y-125454895D01*
X121251439Y-125303055D01*
X121111159Y-125137426D01*
X121109282Y-125135098D01*
X120984837Y-124972918D01*
X120971105Y-124953685D01*
X144145740Y-124953685D01*
X144155755Y-125138406D01*
X144155755Y-125138411D01*
X144205244Y-125316656D01*
X144205247Y-125316662D01*
X144291898Y-125480102D01*
X144354540Y-125553850D01*
X144411663Y-125621100D01*
X144558936Y-125733054D01*
X144726833Y-125810732D01*
X144726834Y-125810732D01*
X144726836Y-125810733D01*
X144764686Y-125819064D01*
X144907503Y-125850500D01*
X144907506Y-125850500D01*
X145046107Y-125850500D01*
X145046113Y-125850500D01*
X145183910Y-125835514D01*
X145359221Y-125776444D01*
X145517736Y-125681070D01*
X145652041Y-125553849D01*
X145755858Y-125400730D01*
X145761700Y-125386069D01*
X145790742Y-125313176D01*
X145824331Y-125228875D01*
X145854260Y-125046317D01*
X145849238Y-124953685D01*
X154145740Y-124953685D01*
X154155755Y-125138406D01*
X154155755Y-125138411D01*
X154205244Y-125316656D01*
X154205247Y-125316662D01*
X154291898Y-125480102D01*
X154354540Y-125553850D01*
X154411663Y-125621100D01*
X154558936Y-125733054D01*
X154726833Y-125810732D01*
X154726834Y-125810732D01*
X154726836Y-125810733D01*
X154764686Y-125819064D01*
X154907503Y-125850500D01*
X154907506Y-125850500D01*
X155046107Y-125850500D01*
X155046113Y-125850500D01*
X155183910Y-125835514D01*
X155359221Y-125776444D01*
X155517736Y-125681070D01*
X155652041Y-125553849D01*
X155755858Y-125400730D01*
X155761700Y-125386069D01*
X155790742Y-125313176D01*
X155824331Y-125228875D01*
X155854260Y-125046317D01*
X155844245Y-124861593D01*
X155826138Y-124796377D01*
X155794755Y-124683343D01*
X155794752Y-124683337D01*
X155708101Y-124519897D01*
X155588337Y-124378900D01*
X155509449Y-124318931D01*
X155441064Y-124266946D01*
X155273167Y-124189268D01*
X155273163Y-124189266D01*
X155092497Y-124149500D01*
X154953887Y-124149500D01*
X154953883Y-124149500D01*
X154816088Y-124164486D01*
X154640776Y-124223557D01*
X154640774Y-124223558D01*
X154482262Y-124318931D01*
X154482261Y-124318932D01*
X154347959Y-124446149D01*
X154244138Y-124599276D01*
X154175669Y-124771122D01*
X154145740Y-124953685D01*
X145849238Y-124953685D01*
X145844245Y-124861593D01*
X145826138Y-124796377D01*
X145794755Y-124683343D01*
X145794752Y-124683337D01*
X145708101Y-124519897D01*
X145588337Y-124378900D01*
X145509449Y-124318931D01*
X145441064Y-124266946D01*
X145273167Y-124189268D01*
X145273163Y-124189266D01*
X145092497Y-124149500D01*
X144953887Y-124149500D01*
X144953883Y-124149500D01*
X144816088Y-124164486D01*
X144640776Y-124223557D01*
X144640774Y-124223558D01*
X144482262Y-124318931D01*
X144482261Y-124318932D01*
X144347959Y-124446149D01*
X144244138Y-124599276D01*
X144175669Y-124771122D01*
X144145740Y-124953685D01*
X120971105Y-124953685D01*
X120858789Y-124796377D01*
X120856957Y-124793662D01*
X120747202Y-124621382D01*
X120636207Y-124435107D01*
X120634473Y-124431998D01*
X120540249Y-124250992D01*
X120481755Y-124131343D01*
X120445045Y-124056252D01*
X120443494Y-124052817D01*
X120365463Y-123864433D01*
X120286680Y-123662530D01*
X120285317Y-123658658D01*
X120266822Y-123600000D01*
X120224100Y-123464503D01*
X120162257Y-123256778D01*
X120161155Y-123252526D01*
X120154746Y-123223619D01*
X120117175Y-123054145D01*
X120117113Y-123053850D01*
X120072671Y-122841894D01*
X120071883Y-122837265D01*
X120061779Y-122760517D01*
X120045489Y-122636791D01*
X120018574Y-122420865D01*
X120018160Y-122415934D01*
X120009486Y-122217271D01*
X120003302Y-122067763D01*
X123145787Y-122067763D01*
X123175413Y-122337013D01*
X123175415Y-122337024D01*
X123243926Y-122599082D01*
X123243928Y-122599088D01*
X123349870Y-122848390D01*
X123421998Y-122966575D01*
X123490979Y-123079605D01*
X123490986Y-123079615D01*
X123664253Y-123287819D01*
X123664259Y-123287824D01*
X123717485Y-123335514D01*
X123865998Y-123468582D01*
X124091910Y-123618044D01*
X124337176Y-123733020D01*
X124337183Y-123733022D01*
X124337185Y-123733023D01*
X124596557Y-123811057D01*
X124596564Y-123811058D01*
X124596569Y-123811060D01*
X124864561Y-123850500D01*
X124864566Y-123850500D01*
X125067636Y-123850500D01*
X125119133Y-123846730D01*
X125270156Y-123835677D01*
X125382758Y-123810593D01*
X125534546Y-123776782D01*
X125534548Y-123776781D01*
X125534553Y-123776780D01*
X125787558Y-123680014D01*
X126023777Y-123547441D01*
X126238177Y-123381888D01*
X126426186Y-123186881D01*
X126583799Y-122966579D01*
X126657787Y-122822669D01*
X126707649Y-122725690D01*
X126707651Y-122725684D01*
X126707656Y-122725675D01*
X126795118Y-122469305D01*
X126798003Y-122453685D01*
X144145740Y-122453685D01*
X144155755Y-122638406D01*
X144155755Y-122638411D01*
X144205244Y-122816656D01*
X144205247Y-122816662D01*
X144291898Y-122980102D01*
X144354540Y-123053850D01*
X144411663Y-123121100D01*
X144558936Y-123233054D01*
X144726833Y-123310732D01*
X144726834Y-123310732D01*
X144726836Y-123310733D01*
X144781648Y-123322797D01*
X144907503Y-123350500D01*
X144907506Y-123350500D01*
X145046107Y-123350500D01*
X145046113Y-123350500D01*
X145183910Y-123335514D01*
X145359221Y-123276444D01*
X145517736Y-123181070D01*
X145652041Y-123053849D01*
X145755858Y-122900730D01*
X145776713Y-122848389D01*
X145811724Y-122760517D01*
X145824331Y-122728875D01*
X145854260Y-122546317D01*
X145844245Y-122361593D01*
X145837422Y-122337018D01*
X145813262Y-122250000D01*
X148424632Y-122250000D01*
X149201066Y-122250000D01*
X149268105Y-122269685D01*
X149313860Y-122322489D01*
X149323804Y-122391647D01*
X149312785Y-122427803D01*
X149300000Y-122454349D01*
X149300000Y-122545650D01*
X149312785Y-122572197D01*
X149324138Y-122641138D01*
X149296417Y-122705273D01*
X149238422Y-122744239D01*
X149201066Y-122750000D01*
X148428742Y-122750000D01*
X148455770Y-122861409D01*
X148543040Y-123052507D01*
X148664889Y-123223619D01*
X148664895Y-123223625D01*
X148816932Y-123368592D01*
X148993657Y-123482166D01*
X149188685Y-123560244D01*
X149394962Y-123600000D01*
X149750000Y-123600000D01*
X149750000Y-122824000D01*
X149769685Y-122756961D01*
X149822489Y-122711206D01*
X149874000Y-122700000D01*
X150126000Y-122700000D01*
X150193039Y-122719685D01*
X150238794Y-122772489D01*
X150250000Y-122824000D01*
X150250000Y-123600000D01*
X150552398Y-123600000D01*
X150709122Y-123585034D01*
X150709126Y-123585033D01*
X150910686Y-123525850D01*
X151097414Y-123429586D01*
X151262537Y-123299731D01*
X151262540Y-123299728D01*
X151400105Y-123140969D01*
X151400114Y-123140958D01*
X151505144Y-122959039D01*
X151505147Y-122959032D01*
X151573855Y-122760517D01*
X151573855Y-122760515D01*
X151575368Y-122750000D01*
X150798934Y-122750000D01*
X150731895Y-122730315D01*
X150686140Y-122677511D01*
X150676196Y-122608353D01*
X150687215Y-122572197D01*
X150699678Y-122546317D01*
X150700000Y-122545649D01*
X150700000Y-122454351D01*
X150699679Y-122453685D01*
X154145740Y-122453685D01*
X154155755Y-122638406D01*
X154155755Y-122638411D01*
X154205244Y-122816656D01*
X154205247Y-122816662D01*
X154291898Y-122980102D01*
X154354540Y-123053850D01*
X154411663Y-123121100D01*
X154558936Y-123233054D01*
X154726833Y-123310732D01*
X154726834Y-123310732D01*
X154726836Y-123310733D01*
X154781648Y-123322797D01*
X154907503Y-123350500D01*
X154907506Y-123350500D01*
X155046107Y-123350500D01*
X155046113Y-123350500D01*
X155183910Y-123335514D01*
X155359221Y-123276444D01*
X155517736Y-123181070D01*
X155652041Y-123053849D01*
X155755858Y-122900730D01*
X155776713Y-122848389D01*
X155811724Y-122760517D01*
X155824331Y-122728875D01*
X155854260Y-122546317D01*
X155844245Y-122361593D01*
X155837422Y-122337018D01*
X155794755Y-122183343D01*
X155794752Y-122183337D01*
X155733478Y-122067763D01*
X173145787Y-122067763D01*
X173175413Y-122337013D01*
X173175415Y-122337024D01*
X173243926Y-122599082D01*
X173243928Y-122599088D01*
X173349870Y-122848390D01*
X173421998Y-122966575D01*
X173490979Y-123079605D01*
X173490986Y-123079615D01*
X173664253Y-123287819D01*
X173664259Y-123287824D01*
X173717485Y-123335514D01*
X173865998Y-123468582D01*
X174091910Y-123618044D01*
X174337176Y-123733020D01*
X174337183Y-123733022D01*
X174337185Y-123733023D01*
X174596557Y-123811057D01*
X174596564Y-123811058D01*
X174596569Y-123811060D01*
X174864561Y-123850500D01*
X174864566Y-123850500D01*
X175067636Y-123850500D01*
X175119133Y-123846730D01*
X175270156Y-123835677D01*
X175382758Y-123810593D01*
X175534546Y-123776782D01*
X175534548Y-123776781D01*
X175534553Y-123776780D01*
X175787558Y-123680014D01*
X176023777Y-123547441D01*
X176238177Y-123381888D01*
X176426186Y-123186881D01*
X176583799Y-122966579D01*
X176657787Y-122822669D01*
X176707649Y-122725690D01*
X176707651Y-122725684D01*
X176707656Y-122725675D01*
X176795118Y-122469305D01*
X176844319Y-122202933D01*
X176854212Y-121932235D01*
X176824586Y-121662982D01*
X176756072Y-121400912D01*
X176650130Y-121151610D01*
X176509018Y-120920390D01*
X176419747Y-120813119D01*
X176335746Y-120712180D01*
X176335740Y-120712175D01*
X176134002Y-120531418D01*
X175908092Y-120381957D01*
X175908090Y-120381956D01*
X175662824Y-120266980D01*
X175662819Y-120266978D01*
X175662814Y-120266976D01*
X175403442Y-120188942D01*
X175403428Y-120188939D01*
X175287791Y-120171921D01*
X175135439Y-120149500D01*
X174932369Y-120149500D01*
X174932364Y-120149500D01*
X174729844Y-120164323D01*
X174729831Y-120164325D01*
X174465453Y-120223217D01*
X174465446Y-120223220D01*
X174212439Y-120319987D01*
X173976226Y-120452557D01*
X173761822Y-120618112D01*
X173573822Y-120813109D01*
X173573816Y-120813116D01*
X173416202Y-121033419D01*
X173416199Y-121033424D01*
X173292350Y-121274309D01*
X173292343Y-121274327D01*
X173204884Y-121530685D01*
X173204881Y-121530699D01*
X173155681Y-121797068D01*
X173155680Y-121797075D01*
X173145787Y-122067763D01*
X155733478Y-122067763D01*
X155708101Y-122019897D01*
X155588337Y-121878900D01*
X155509449Y-121818931D01*
X155441064Y-121766946D01*
X155273167Y-121689268D01*
X155273163Y-121689266D01*
X155092497Y-121649500D01*
X154953887Y-121649500D01*
X154953883Y-121649500D01*
X154816088Y-121664486D01*
X154640776Y-121723557D01*
X154640774Y-121723558D01*
X154482262Y-121818931D01*
X154482261Y-121818932D01*
X154347959Y-121946149D01*
X154244138Y-122099276D01*
X154175669Y-122271122D01*
X154167248Y-122322489D01*
X154152434Y-122412855D01*
X154145740Y-122453685D01*
X150699679Y-122453685D01*
X150687215Y-122427803D01*
X150675862Y-122358862D01*
X150703583Y-122294727D01*
X150761578Y-122255761D01*
X150798934Y-122250000D01*
X151571257Y-122250000D01*
X151544229Y-122138590D01*
X151456959Y-121947492D01*
X151335110Y-121776380D01*
X151335104Y-121776374D01*
X151183067Y-121631407D01*
X151006342Y-121517833D01*
X150811314Y-121439755D01*
X150605038Y-121400000D01*
X150250000Y-121400000D01*
X150250000Y-122176000D01*
X150230315Y-122243039D01*
X150177511Y-122288794D01*
X150126000Y-122300000D01*
X149874000Y-122300000D01*
X149806961Y-122280315D01*
X149761206Y-122227511D01*
X149750000Y-122176000D01*
X149750000Y-121400000D01*
X149447602Y-121400000D01*
X149290877Y-121414965D01*
X149290873Y-121414966D01*
X149089313Y-121474149D01*
X148902585Y-121570413D01*
X148737462Y-121700268D01*
X148737459Y-121700271D01*
X148599894Y-121859030D01*
X148599885Y-121859041D01*
X148494855Y-122040960D01*
X148494852Y-122040967D01*
X148426144Y-122239482D01*
X148426144Y-122239484D01*
X148424632Y-122250000D01*
X145813262Y-122250000D01*
X145794755Y-122183343D01*
X145794752Y-122183337D01*
X145708101Y-122019897D01*
X145588337Y-121878900D01*
X145509449Y-121818931D01*
X145441064Y-121766946D01*
X145273167Y-121689268D01*
X145273163Y-121689266D01*
X145092497Y-121649500D01*
X144953887Y-121649500D01*
X144953883Y-121649500D01*
X144816088Y-121664486D01*
X144640776Y-121723557D01*
X144640774Y-121723558D01*
X144482262Y-121818931D01*
X144482261Y-121818932D01*
X144347959Y-121946149D01*
X144244138Y-122099276D01*
X144175669Y-122271122D01*
X144167248Y-122322489D01*
X144152434Y-122412855D01*
X144145740Y-122453685D01*
X126798003Y-122453685D01*
X126844319Y-122202933D01*
X126854212Y-121932235D01*
X126824586Y-121662982D01*
X126756072Y-121400912D01*
X126650130Y-121151610D01*
X126509018Y-120920390D01*
X126419747Y-120813119D01*
X126335746Y-120712180D01*
X126335740Y-120712175D01*
X126134002Y-120531418D01*
X125908092Y-120381957D01*
X125908090Y-120381956D01*
X125662824Y-120266980D01*
X125662819Y-120266978D01*
X125662814Y-120266976D01*
X125403442Y-120188942D01*
X125403428Y-120188939D01*
X125287791Y-120171921D01*
X125135439Y-120149500D01*
X124932369Y-120149500D01*
X124932364Y-120149500D01*
X124729844Y-120164323D01*
X124729831Y-120164325D01*
X124465453Y-120223217D01*
X124465446Y-120223220D01*
X124212439Y-120319987D01*
X123976226Y-120452557D01*
X123761822Y-120618112D01*
X123573822Y-120813109D01*
X123573816Y-120813116D01*
X123416202Y-121033419D01*
X123416199Y-121033424D01*
X123292350Y-121274309D01*
X123292343Y-121274327D01*
X123204884Y-121530685D01*
X123204881Y-121530699D01*
X123155681Y-121797068D01*
X123155680Y-121797075D01*
X123145787Y-122067763D01*
X120003302Y-122067763D01*
X120000605Y-122002561D01*
X120000817Y-122001710D01*
X120000500Y-121999500D01*
X120000500Y-118052425D01*
X143899500Y-118052425D01*
X143914472Y-118209218D01*
X143973684Y-118410875D01*
X144023019Y-118506572D01*
X144069991Y-118597686D01*
X144199905Y-118762883D01*
X144199909Y-118762887D01*
X144358746Y-118900521D01*
X144540750Y-119005601D01*
X144540752Y-119005601D01*
X144540756Y-119005604D01*
X144739367Y-119074344D01*
X144947398Y-119104254D01*
X145157330Y-119094254D01*
X145361576Y-119044704D01*
X145447199Y-119005601D01*
X145552743Y-118957401D01*
X145552746Y-118957399D01*
X145552753Y-118957396D01*
X145723952Y-118835486D01*
X145793179Y-118762883D01*
X145868985Y-118683379D01*
X145924057Y-118597686D01*
X145982613Y-118506572D01*
X146060725Y-118311457D01*
X146100500Y-118105085D01*
X146100500Y-117453685D01*
X149145740Y-117453685D01*
X149155755Y-117638406D01*
X149155755Y-117638411D01*
X149205244Y-117816656D01*
X149205247Y-117816662D01*
X149291898Y-117980102D01*
X149354540Y-118053850D01*
X149411663Y-118121100D01*
X149558936Y-118233054D01*
X149726833Y-118310732D01*
X149726834Y-118310732D01*
X149726836Y-118310733D01*
X149781648Y-118322797D01*
X149907503Y-118350500D01*
X149907506Y-118350500D01*
X150046107Y-118350500D01*
X150046113Y-118350500D01*
X150183910Y-118335514D01*
X150359221Y-118276444D01*
X150517736Y-118181070D01*
X150652041Y-118053849D01*
X150653006Y-118052425D01*
X153899500Y-118052425D01*
X153914472Y-118209218D01*
X153973684Y-118410875D01*
X154023019Y-118506572D01*
X154069991Y-118597686D01*
X154199905Y-118762883D01*
X154199909Y-118762887D01*
X154358746Y-118900521D01*
X154540750Y-119005601D01*
X154540752Y-119005601D01*
X154540756Y-119005604D01*
X154739367Y-119074344D01*
X154947398Y-119104254D01*
X155157330Y-119094254D01*
X155361576Y-119044704D01*
X155447199Y-119005601D01*
X155552743Y-118957401D01*
X155552746Y-118957399D01*
X155552753Y-118957396D01*
X155723952Y-118835486D01*
X155793179Y-118762883D01*
X155868985Y-118683379D01*
X155924057Y-118597686D01*
X155982613Y-118506572D01*
X156060725Y-118311457D01*
X156100500Y-118105085D01*
X156100500Y-116947575D01*
X156085528Y-116790782D01*
X156026316Y-116589125D01*
X155930011Y-116402318D01*
X155930009Y-116402316D01*
X155930008Y-116402313D01*
X155800094Y-116237116D01*
X155800090Y-116237112D01*
X155641253Y-116099478D01*
X155459249Y-115994398D01*
X155459245Y-115994396D01*
X155459244Y-115994396D01*
X155260633Y-115925656D01*
X155052602Y-115895746D01*
X155052598Y-115895746D01*
X154842672Y-115905745D01*
X154638421Y-115955296D01*
X154638417Y-115955298D01*
X154447256Y-116042598D01*
X154447251Y-116042601D01*
X154276046Y-116164515D01*
X154276040Y-116164520D01*
X154131014Y-116316620D01*
X154017388Y-116493425D01*
X153939274Y-116688544D01*
X153899500Y-116894914D01*
X153899500Y-116894915D01*
X153899500Y-118052425D01*
X150653006Y-118052425D01*
X150755858Y-117900730D01*
X150824331Y-117728875D01*
X150854260Y-117546317D01*
X150844245Y-117361593D01*
X150794754Y-117183341D01*
X150708100Y-117019896D01*
X150645460Y-116946151D01*
X150588337Y-116878900D01*
X150509449Y-116818931D01*
X150441064Y-116766946D01*
X150273167Y-116689268D01*
X150273163Y-116689266D01*
X150092497Y-116649500D01*
X149953887Y-116649500D01*
X149953883Y-116649500D01*
X149816088Y-116664486D01*
X149640776Y-116723557D01*
X149640774Y-116723558D01*
X149482262Y-116818931D01*
X149482261Y-116818932D01*
X149347959Y-116946149D01*
X149244138Y-117099276D01*
X149175669Y-117271122D01*
X149145740Y-117453685D01*
X146100500Y-117453685D01*
X146100500Y-116947575D01*
X146085528Y-116790782D01*
X146026316Y-116589125D01*
X145930011Y-116402318D01*
X145930009Y-116402316D01*
X145930008Y-116402313D01*
X145800094Y-116237116D01*
X145800090Y-116237112D01*
X145641253Y-116099478D01*
X145459249Y-115994398D01*
X145459245Y-115994396D01*
X145459244Y-115994396D01*
X145260633Y-115925656D01*
X145052602Y-115895746D01*
X145052598Y-115895746D01*
X144842672Y-115905745D01*
X144638421Y-115955296D01*
X144638417Y-115955298D01*
X144447256Y-116042598D01*
X144447251Y-116042601D01*
X144276046Y-116164515D01*
X144276040Y-116164520D01*
X144131014Y-116316620D01*
X144017388Y-116493425D01*
X143939274Y-116688544D01*
X143899500Y-116894914D01*
X143899500Y-116894915D01*
X143899500Y-118052425D01*
X120000500Y-118052425D01*
X120000499Y-112000001D01*
X122614532Y-112000001D01*
X122634364Y-112226686D01*
X122634366Y-112226697D01*
X122693258Y-112446488D01*
X122693261Y-112446497D01*
X122789431Y-112652732D01*
X122789432Y-112652734D01*
X122919954Y-112839141D01*
X123080858Y-113000045D01*
X123080861Y-113000047D01*
X123267266Y-113130568D01*
X123473504Y-113226739D01*
X123693308Y-113285635D01*
X123855230Y-113299801D01*
X123919998Y-113305468D01*
X123920000Y-113305468D01*
X123920002Y-113305468D01*
X123976672Y-113300509D01*
X124146692Y-113285635D01*
X124366496Y-113226739D01*
X124572734Y-113130568D01*
X124759139Y-113000047D01*
X124920047Y-112839139D01*
X125050568Y-112652734D01*
X125146739Y-112446496D01*
X125205635Y-112226692D01*
X125225468Y-112000001D01*
X132774532Y-112000001D01*
X132794364Y-112226686D01*
X132794366Y-112226697D01*
X132853258Y-112446488D01*
X132853261Y-112446497D01*
X132949431Y-112652732D01*
X132949432Y-112652734D01*
X133079954Y-112839141D01*
X133240858Y-113000045D01*
X133240861Y-113000047D01*
X133427266Y-113130568D01*
X133633504Y-113226739D01*
X133853308Y-113285635D01*
X134015230Y-113299801D01*
X134079998Y-113305468D01*
X134080000Y-113305468D01*
X134080002Y-113305468D01*
X134136673Y-113300509D01*
X134306692Y-113285635D01*
X134526496Y-113226739D01*
X134732734Y-113130568D01*
X134919139Y-113000047D01*
X135080047Y-112839139D01*
X135210568Y-112652734D01*
X135306739Y-112446496D01*
X135365635Y-112226692D01*
X135385468Y-112000001D01*
X164614532Y-112000001D01*
X164634364Y-112226686D01*
X164634366Y-112226697D01*
X164693258Y-112446488D01*
X164693261Y-112446497D01*
X164789431Y-112652732D01*
X164789432Y-112652734D01*
X164919954Y-112839141D01*
X165080858Y-113000045D01*
X165080861Y-113000047D01*
X165267266Y-113130568D01*
X165473504Y-113226739D01*
X165693308Y-113285635D01*
X165855230Y-113299801D01*
X165919998Y-113305468D01*
X165920000Y-113305468D01*
X165920002Y-113305468D01*
X165976673Y-113300509D01*
X166146692Y-113285635D01*
X166366496Y-113226739D01*
X166572734Y-113130568D01*
X166759139Y-113000047D01*
X166920047Y-112839139D01*
X167050568Y-112652734D01*
X167146739Y-112446496D01*
X167205635Y-112226692D01*
X167225468Y-112000001D01*
X174774532Y-112000001D01*
X174794364Y-112226686D01*
X174794366Y-112226697D01*
X174853258Y-112446488D01*
X174853261Y-112446497D01*
X174949431Y-112652732D01*
X174949432Y-112652734D01*
X175079954Y-112839141D01*
X175240858Y-113000045D01*
X175240861Y-113000047D01*
X175427266Y-113130568D01*
X175633504Y-113226739D01*
X175853308Y-113285635D01*
X176015230Y-113299801D01*
X176079998Y-113305468D01*
X176080000Y-113305468D01*
X176080002Y-113305468D01*
X176136672Y-113300509D01*
X176306692Y-113285635D01*
X176526496Y-113226739D01*
X176732734Y-113130568D01*
X176919139Y-113000047D01*
X177080047Y-112839139D01*
X177210568Y-112652734D01*
X177306739Y-112446496D01*
X177365635Y-112226692D01*
X177385468Y-112000000D01*
X177365635Y-111773308D01*
X177306739Y-111553504D01*
X177210568Y-111347266D01*
X177080047Y-111160861D01*
X177080045Y-111160858D01*
X176919141Y-110999954D01*
X176732734Y-110869432D01*
X176732732Y-110869431D01*
X176526497Y-110773261D01*
X176526488Y-110773258D01*
X176306697Y-110714366D01*
X176306693Y-110714365D01*
X176306692Y-110714365D01*
X176306691Y-110714364D01*
X176306686Y-110714364D01*
X176080002Y-110694532D01*
X176079998Y-110694532D01*
X175853313Y-110714364D01*
X175853302Y-110714366D01*
X175633511Y-110773258D01*
X175633502Y-110773261D01*
X175427267Y-110869431D01*
X175427265Y-110869432D01*
X175240858Y-110999954D01*
X175079954Y-111160858D01*
X174949432Y-111347265D01*
X174949431Y-111347267D01*
X174853261Y-111553502D01*
X174853258Y-111553511D01*
X174794366Y-111773302D01*
X174794364Y-111773313D01*
X174774532Y-111999998D01*
X174774532Y-112000001D01*
X167225468Y-112000001D01*
X167225468Y-112000000D01*
X167205635Y-111773308D01*
X167146739Y-111553504D01*
X167050568Y-111347266D01*
X166920047Y-111160861D01*
X166920045Y-111160858D01*
X166759141Y-110999954D01*
X166572734Y-110869432D01*
X166572732Y-110869431D01*
X166366497Y-110773261D01*
X166366488Y-110773258D01*
X166146697Y-110714366D01*
X166146693Y-110714365D01*
X166146692Y-110714365D01*
X166146691Y-110714364D01*
X166146686Y-110714364D01*
X165920002Y-110694532D01*
X165919998Y-110694532D01*
X165693313Y-110714364D01*
X165693302Y-110714366D01*
X165473511Y-110773258D01*
X165473502Y-110773261D01*
X165267267Y-110869431D01*
X165267265Y-110869432D01*
X165080858Y-110999954D01*
X164919954Y-111160858D01*
X164789432Y-111347265D01*
X164789431Y-111347267D01*
X164693261Y-111553502D01*
X164693258Y-111553511D01*
X164634366Y-111773302D01*
X164634364Y-111773313D01*
X164614532Y-111999998D01*
X164614532Y-112000001D01*
X135385468Y-112000001D01*
X135385468Y-112000000D01*
X135365635Y-111773308D01*
X135306739Y-111553504D01*
X135210568Y-111347266D01*
X135080047Y-111160861D01*
X135080045Y-111160858D01*
X134919141Y-110999954D01*
X134732734Y-110869432D01*
X134732732Y-110869431D01*
X134526497Y-110773261D01*
X134526488Y-110773258D01*
X134306697Y-110714366D01*
X134306693Y-110714365D01*
X134306692Y-110714365D01*
X134306691Y-110714364D01*
X134306686Y-110714364D01*
X134080002Y-110694532D01*
X134079998Y-110694532D01*
X133853313Y-110714364D01*
X133853302Y-110714366D01*
X133633511Y-110773258D01*
X133633502Y-110773261D01*
X133427267Y-110869431D01*
X133427265Y-110869432D01*
X133240858Y-110999954D01*
X133079954Y-111160858D01*
X132949432Y-111347265D01*
X132949431Y-111347267D01*
X132853261Y-111553502D01*
X132853258Y-111553511D01*
X132794366Y-111773302D01*
X132794364Y-111773313D01*
X132774532Y-111999998D01*
X132774532Y-112000001D01*
X125225468Y-112000001D01*
X125225468Y-112000000D01*
X125205635Y-111773308D01*
X125146739Y-111553504D01*
X125050568Y-111347266D01*
X124920047Y-111160861D01*
X124920045Y-111160858D01*
X124759141Y-110999954D01*
X124572734Y-110869432D01*
X124572732Y-110869431D01*
X124366497Y-110773261D01*
X124366488Y-110773258D01*
X124146697Y-110714366D01*
X124146693Y-110714365D01*
X124146692Y-110714365D01*
X124146691Y-110714364D01*
X124146686Y-110714364D01*
X123920002Y-110694532D01*
X123919998Y-110694532D01*
X123693313Y-110714364D01*
X123693302Y-110714366D01*
X123473511Y-110773258D01*
X123473502Y-110773261D01*
X123267267Y-110869431D01*
X123267265Y-110869432D01*
X123080858Y-110999954D01*
X122919954Y-111160858D01*
X122789432Y-111347265D01*
X122789431Y-111347267D01*
X122693261Y-111553502D01*
X122693258Y-111553511D01*
X122634366Y-111773302D01*
X122634364Y-111773313D01*
X122614532Y-111999998D01*
X122614532Y-112000001D01*
X120000499Y-112000001D01*
X120000499Y-109680001D01*
X145294390Y-109680001D01*
X145314804Y-109965433D01*
X145375628Y-110245037D01*
X145375630Y-110245043D01*
X145375631Y-110245046D01*
X145379361Y-110255046D01*
X145475635Y-110513166D01*
X145612770Y-110764309D01*
X145612775Y-110764317D01*
X145784254Y-110993387D01*
X145784270Y-110993405D01*
X145986594Y-111195729D01*
X145986612Y-111195745D01*
X146215682Y-111367224D01*
X146215690Y-111367229D01*
X146466833Y-111504364D01*
X146466832Y-111504364D01*
X146466836Y-111504365D01*
X146466839Y-111504367D01*
X146734954Y-111604369D01*
X146734960Y-111604370D01*
X146734962Y-111604371D01*
X147014566Y-111665195D01*
X147014568Y-111665195D01*
X147014572Y-111665196D01*
X147268220Y-111683337D01*
X147299999Y-111685610D01*
X147300000Y-111685610D01*
X147300001Y-111685610D01*
X147328595Y-111683564D01*
X147585428Y-111665196D01*
X147819068Y-111614371D01*
X147865037Y-111604371D01*
X147865037Y-111604370D01*
X147865046Y-111604369D01*
X148133161Y-111504367D01*
X148384315Y-111367226D01*
X148613395Y-111195739D01*
X148815739Y-110993395D01*
X148987226Y-110764315D01*
X149124367Y-110513161D01*
X149224369Y-110245046D01*
X149285196Y-109965428D01*
X149304895Y-109690001D01*
X150664390Y-109690001D01*
X150684804Y-109975433D01*
X150745628Y-110255037D01*
X150845635Y-110523166D01*
X150982770Y-110774309D01*
X150982775Y-110774317D01*
X151154254Y-111003387D01*
X151154270Y-111003405D01*
X151356594Y-111205729D01*
X151356612Y-111205745D01*
X151585682Y-111377224D01*
X151585690Y-111377229D01*
X151836833Y-111514364D01*
X151836832Y-111514364D01*
X151836836Y-111514365D01*
X151836839Y-111514367D01*
X152104954Y-111614369D01*
X152104960Y-111614370D01*
X152104962Y-111614371D01*
X152384566Y-111675195D01*
X152384568Y-111675195D01*
X152384572Y-111675196D01*
X152638220Y-111693337D01*
X152669999Y-111695610D01*
X152670000Y-111695610D01*
X152670001Y-111695610D01*
X152698595Y-111693564D01*
X152955428Y-111675196D01*
X153001398Y-111665196D01*
X153235037Y-111614371D01*
X153235037Y-111614370D01*
X153235046Y-111614369D01*
X153503161Y-111514367D01*
X153754315Y-111377226D01*
X153983395Y-111205739D01*
X154185739Y-111003395D01*
X154357226Y-110774315D01*
X154494367Y-110523161D01*
X154594369Y-110255046D01*
X154655196Y-109975428D01*
X154675610Y-109690000D01*
X154655196Y-109404572D01*
X154653019Y-109394566D01*
X154594371Y-109124962D01*
X154594370Y-109124960D01*
X154594369Y-109124954D01*
X154494367Y-108856839D01*
X154488903Y-108846833D01*
X154357229Y-108605690D01*
X154357224Y-108605682D01*
X154185745Y-108376612D01*
X154185729Y-108376594D01*
X153983405Y-108174270D01*
X153983387Y-108174254D01*
X153754317Y-108002775D01*
X153754309Y-108002770D01*
X153503166Y-107865635D01*
X153503167Y-107865635D01*
X153395915Y-107825632D01*
X153235046Y-107765631D01*
X153235043Y-107765630D01*
X153235037Y-107765628D01*
X152955433Y-107704804D01*
X152670001Y-107684390D01*
X152669999Y-107684390D01*
X152384566Y-107704804D01*
X152104962Y-107765628D01*
X151836833Y-107865635D01*
X151585690Y-108002770D01*
X151585682Y-108002775D01*
X151356612Y-108174254D01*
X151356594Y-108174270D01*
X151154270Y-108376594D01*
X151154254Y-108376612D01*
X150982775Y-108605682D01*
X150982770Y-108605690D01*
X150845635Y-108856833D01*
X150745628Y-109124962D01*
X150684804Y-109404566D01*
X150664390Y-109689998D01*
X150664390Y-109690001D01*
X149304895Y-109690001D01*
X149305610Y-109680000D01*
X149285196Y-109394572D01*
X149226544Y-109124954D01*
X149224371Y-109114962D01*
X149224370Y-109114960D01*
X149224369Y-109114954D01*
X149124367Y-108846839D01*
X149091817Y-108787229D01*
X148987229Y-108595690D01*
X148987224Y-108595682D01*
X148815745Y-108366612D01*
X148815729Y-108366594D01*
X148613405Y-108164270D01*
X148613387Y-108164254D01*
X148384317Y-107992775D01*
X148384309Y-107992770D01*
X148133166Y-107855635D01*
X148133167Y-107855635D01*
X148025915Y-107815632D01*
X147865046Y-107755631D01*
X147865043Y-107755630D01*
X147865037Y-107755628D01*
X147585433Y-107694804D01*
X147300001Y-107674390D01*
X147299999Y-107674390D01*
X147014566Y-107694804D01*
X146734962Y-107755628D01*
X146466833Y-107855635D01*
X146215690Y-107992770D01*
X146215682Y-107992775D01*
X145986612Y-108164254D01*
X145986594Y-108164270D01*
X145784270Y-108366594D01*
X145784254Y-108366612D01*
X145612775Y-108595682D01*
X145612770Y-108595690D01*
X145475635Y-108846833D01*
X145375628Y-109114962D01*
X145314804Y-109394566D01*
X145294390Y-109679998D01*
X145294390Y-109680001D01*
X120000499Y-109680001D01*
X120000499Y-106000001D01*
X122614532Y-106000001D01*
X122634364Y-106226686D01*
X122634366Y-106226697D01*
X122693258Y-106446488D01*
X122693261Y-106446497D01*
X122789431Y-106652732D01*
X122789432Y-106652734D01*
X122919954Y-106839141D01*
X123080858Y-107000045D01*
X123080861Y-107000047D01*
X123267266Y-107130568D01*
X123473504Y-107226739D01*
X123693308Y-107285635D01*
X123855230Y-107299801D01*
X123919998Y-107305468D01*
X123920000Y-107305468D01*
X123920002Y-107305468D01*
X123976672Y-107300509D01*
X124146692Y-107285635D01*
X124366496Y-107226739D01*
X124572734Y-107130568D01*
X124759139Y-107000047D01*
X124920047Y-106839139D01*
X125050568Y-106652734D01*
X125146739Y-106446496D01*
X125205635Y-106226692D01*
X125225468Y-106000001D01*
X132774532Y-106000001D01*
X132794364Y-106226686D01*
X132794366Y-106226697D01*
X132853258Y-106446488D01*
X132853261Y-106446497D01*
X132949431Y-106652732D01*
X132949432Y-106652734D01*
X133079954Y-106839141D01*
X133240858Y-107000045D01*
X133240861Y-107000047D01*
X133427266Y-107130568D01*
X133633504Y-107226739D01*
X133853308Y-107285635D01*
X134015230Y-107299801D01*
X134079998Y-107305468D01*
X134080000Y-107305468D01*
X134080002Y-107305468D01*
X134136673Y-107300509D01*
X134306692Y-107285635D01*
X134526496Y-107226739D01*
X134732734Y-107130568D01*
X134776389Y-107100001D01*
X140884390Y-107100001D01*
X140904804Y-107385433D01*
X140965628Y-107665037D01*
X140965630Y-107665043D01*
X140965631Y-107665046D01*
X141036717Y-107855635D01*
X141065635Y-107933166D01*
X141202770Y-108184309D01*
X141202775Y-108184317D01*
X141374254Y-108413387D01*
X141374270Y-108413405D01*
X141576594Y-108615729D01*
X141576612Y-108615745D01*
X141805682Y-108787224D01*
X141805690Y-108787229D01*
X142056833Y-108924364D01*
X142056832Y-108924364D01*
X142056836Y-108924365D01*
X142056839Y-108924367D01*
X142324954Y-109024369D01*
X142324960Y-109024370D01*
X142324962Y-109024371D01*
X142604566Y-109085195D01*
X142604568Y-109085195D01*
X142604572Y-109085196D01*
X142858220Y-109103337D01*
X142889999Y-109105610D01*
X142890000Y-109105610D01*
X142890001Y-109105610D01*
X142918595Y-109103564D01*
X143175428Y-109085196D01*
X143409068Y-109034371D01*
X143455037Y-109024371D01*
X143455037Y-109024370D01*
X143455046Y-109024369D01*
X143723161Y-108924367D01*
X143974315Y-108787226D01*
X144203395Y-108615739D01*
X144405739Y-108413395D01*
X144577226Y-108184315D01*
X144714367Y-107933161D01*
X144814369Y-107665046D01*
X144875196Y-107385428D01*
X144894895Y-107110001D01*
X155094390Y-107110001D01*
X155114804Y-107395433D01*
X155175628Y-107675037D01*
X155175630Y-107675043D01*
X155175631Y-107675046D01*
X155246717Y-107865635D01*
X155275635Y-107943166D01*
X155412770Y-108194309D01*
X155412775Y-108194317D01*
X155584254Y-108423387D01*
X155584270Y-108423405D01*
X155786594Y-108625729D01*
X155786612Y-108625745D01*
X156015682Y-108797224D01*
X156015690Y-108797229D01*
X156266833Y-108934364D01*
X156266832Y-108934364D01*
X156266836Y-108934365D01*
X156266839Y-108934367D01*
X156534954Y-109034369D01*
X156534960Y-109034370D01*
X156534962Y-109034371D01*
X156814566Y-109095195D01*
X156814568Y-109095195D01*
X156814572Y-109095196D01*
X157068220Y-109113337D01*
X157099999Y-109115610D01*
X157100000Y-109115610D01*
X157100001Y-109115610D01*
X157128595Y-109113564D01*
X157385428Y-109095196D01*
X157431398Y-109085196D01*
X157665037Y-109034371D01*
X157665037Y-109034370D01*
X157665046Y-109034369D01*
X157933161Y-108934367D01*
X158184315Y-108797226D01*
X158413395Y-108625739D01*
X158615739Y-108423395D01*
X158787226Y-108194315D01*
X158924367Y-107943161D01*
X159024369Y-107675046D01*
X159085196Y-107395428D01*
X159105610Y-107110000D01*
X159085196Y-106824572D01*
X159083019Y-106814566D01*
X159024371Y-106544962D01*
X159024370Y-106544960D01*
X159024369Y-106544954D01*
X158924367Y-106276839D01*
X158918903Y-106266833D01*
X158787229Y-106025690D01*
X158787224Y-106025682D01*
X158768000Y-106000001D01*
X164614532Y-106000001D01*
X164634364Y-106226686D01*
X164634366Y-106226697D01*
X164693258Y-106446488D01*
X164693261Y-106446497D01*
X164789431Y-106652732D01*
X164789432Y-106652734D01*
X164919954Y-106839141D01*
X165080858Y-107000045D01*
X165080861Y-107000047D01*
X165267266Y-107130568D01*
X165473504Y-107226739D01*
X165693308Y-107285635D01*
X165855230Y-107299801D01*
X165919998Y-107305468D01*
X165920000Y-107305468D01*
X165920002Y-107305468D01*
X165976673Y-107300509D01*
X166146692Y-107285635D01*
X166366496Y-107226739D01*
X166572734Y-107130568D01*
X166759139Y-107000047D01*
X166920047Y-106839139D01*
X167050568Y-106652734D01*
X167146739Y-106446496D01*
X167205635Y-106226692D01*
X167225468Y-106000001D01*
X174774532Y-106000001D01*
X174794364Y-106226686D01*
X174794366Y-106226697D01*
X174853258Y-106446488D01*
X174853261Y-106446497D01*
X174949431Y-106652732D01*
X174949432Y-106652734D01*
X175079954Y-106839141D01*
X175240858Y-107000045D01*
X175240861Y-107000047D01*
X175427266Y-107130568D01*
X175633504Y-107226739D01*
X175853308Y-107285635D01*
X176015230Y-107299801D01*
X176079998Y-107305468D01*
X176080000Y-107305468D01*
X176080002Y-107305468D01*
X176136672Y-107300509D01*
X176306692Y-107285635D01*
X176526496Y-107226739D01*
X176732734Y-107130568D01*
X176919139Y-107000047D01*
X177080047Y-106839139D01*
X177210568Y-106652734D01*
X177306739Y-106446496D01*
X177365635Y-106226692D01*
X177385468Y-106000000D01*
X177365635Y-105773308D01*
X177306739Y-105553504D01*
X177210568Y-105347266D01*
X177080047Y-105160861D01*
X177080045Y-105160858D01*
X176919141Y-104999954D01*
X176732734Y-104869432D01*
X176732732Y-104869431D01*
X176526497Y-104773261D01*
X176526488Y-104773258D01*
X176306697Y-104714366D01*
X176306693Y-104714365D01*
X176306692Y-104714365D01*
X176306691Y-104714364D01*
X176306686Y-104714364D01*
X176080002Y-104694532D01*
X176079998Y-104694532D01*
X175853313Y-104714364D01*
X175853302Y-104714366D01*
X175633511Y-104773258D01*
X175633502Y-104773261D01*
X175427267Y-104869431D01*
X175427265Y-104869432D01*
X175240858Y-104999954D01*
X175079954Y-105160858D01*
X174949432Y-105347265D01*
X174949431Y-105347267D01*
X174853261Y-105553502D01*
X174853258Y-105553511D01*
X174794366Y-105773302D01*
X174794364Y-105773313D01*
X174774532Y-105999998D01*
X174774532Y-106000001D01*
X167225468Y-106000001D01*
X167225468Y-106000000D01*
X167205635Y-105773308D01*
X167146739Y-105553504D01*
X167050568Y-105347266D01*
X166920047Y-105160861D01*
X166920045Y-105160858D01*
X166759141Y-104999954D01*
X166572734Y-104869432D01*
X166572732Y-104869431D01*
X166366497Y-104773261D01*
X166366488Y-104773258D01*
X166146697Y-104714366D01*
X166146693Y-104714365D01*
X166146692Y-104714365D01*
X166146691Y-104714364D01*
X166146686Y-104714364D01*
X165920002Y-104694532D01*
X165919998Y-104694532D01*
X165693313Y-104714364D01*
X165693302Y-104714366D01*
X165473511Y-104773258D01*
X165473502Y-104773261D01*
X165267267Y-104869431D01*
X165267265Y-104869432D01*
X165080858Y-104999954D01*
X164919954Y-105160858D01*
X164789432Y-105347265D01*
X164789431Y-105347267D01*
X164693261Y-105553502D01*
X164693258Y-105553511D01*
X164634366Y-105773302D01*
X164634364Y-105773313D01*
X164614532Y-105999998D01*
X164614532Y-106000001D01*
X158768000Y-106000001D01*
X158615745Y-105796612D01*
X158615729Y-105796594D01*
X158413405Y-105594270D01*
X158413387Y-105594254D01*
X158184317Y-105422775D01*
X158184309Y-105422770D01*
X157933166Y-105285635D01*
X157933167Y-105285635D01*
X157825914Y-105245632D01*
X157665046Y-105185631D01*
X157665043Y-105185630D01*
X157665037Y-105185628D01*
X157385433Y-105124804D01*
X157100001Y-105104390D01*
X157099999Y-105104390D01*
X156814566Y-105124804D01*
X156534962Y-105185628D01*
X156266833Y-105285635D01*
X156015690Y-105422770D01*
X156015682Y-105422775D01*
X155786612Y-105594254D01*
X155786594Y-105594270D01*
X155584270Y-105796594D01*
X155584254Y-105796612D01*
X155412775Y-106025682D01*
X155412770Y-106025690D01*
X155275635Y-106276833D01*
X155175628Y-106544962D01*
X155114804Y-106824566D01*
X155094390Y-107109998D01*
X155094390Y-107110001D01*
X144894895Y-107110001D01*
X144895610Y-107100000D01*
X144875196Y-106814572D01*
X144839990Y-106652734D01*
X144814371Y-106534962D01*
X144814370Y-106534960D01*
X144814369Y-106534954D01*
X144714367Y-106266839D01*
X144582686Y-106025685D01*
X144577229Y-106015690D01*
X144577224Y-106015682D01*
X144405745Y-105786612D01*
X144405729Y-105786594D01*
X144203405Y-105584270D01*
X144203387Y-105584254D01*
X143974317Y-105412775D01*
X143974309Y-105412770D01*
X143723166Y-105275635D01*
X143723167Y-105275635D01*
X143615915Y-105235632D01*
X143455046Y-105175631D01*
X143455043Y-105175630D01*
X143455037Y-105175628D01*
X143175433Y-105114804D01*
X142890001Y-105094390D01*
X142889999Y-105094390D01*
X142604566Y-105114804D01*
X142324962Y-105175628D01*
X142056833Y-105275635D01*
X141805690Y-105412770D01*
X141805682Y-105412775D01*
X141576612Y-105584254D01*
X141576594Y-105584270D01*
X141374270Y-105786594D01*
X141374254Y-105786612D01*
X141202775Y-106015682D01*
X141202770Y-106015690D01*
X141065635Y-106266833D01*
X140965628Y-106534962D01*
X140904804Y-106814566D01*
X140884390Y-107099998D01*
X140884390Y-107100001D01*
X134776389Y-107100001D01*
X134919139Y-107000047D01*
X135080047Y-106839139D01*
X135210568Y-106652734D01*
X135306739Y-106446496D01*
X135365635Y-106226692D01*
X135385468Y-106000000D01*
X135365635Y-105773308D01*
X135306739Y-105553504D01*
X135210568Y-105347266D01*
X135080047Y-105160861D01*
X135080045Y-105160858D01*
X134919141Y-104999954D01*
X134732734Y-104869432D01*
X134732732Y-104869431D01*
X134526497Y-104773261D01*
X134526488Y-104773258D01*
X134306697Y-104714366D01*
X134306693Y-104714365D01*
X134306692Y-104714365D01*
X134306691Y-104714364D01*
X134306686Y-104714364D01*
X134080002Y-104694532D01*
X134079998Y-104694532D01*
X133853313Y-104714364D01*
X133853302Y-104714366D01*
X133633511Y-104773258D01*
X133633502Y-104773261D01*
X133427267Y-104869431D01*
X133427265Y-104869432D01*
X133240858Y-104999954D01*
X133079954Y-105160858D01*
X132949432Y-105347265D01*
X132949431Y-105347267D01*
X132853261Y-105553502D01*
X132853258Y-105553511D01*
X132794366Y-105773302D01*
X132794364Y-105773313D01*
X132774532Y-105999998D01*
X132774532Y-106000001D01*
X125225468Y-106000001D01*
X125225468Y-106000000D01*
X125205635Y-105773308D01*
X125146739Y-105553504D01*
X125050568Y-105347266D01*
X124920047Y-105160861D01*
X124920045Y-105160858D01*
X124759141Y-104999954D01*
X124572734Y-104869432D01*
X124572732Y-104869431D01*
X124366497Y-104773261D01*
X124366488Y-104773258D01*
X124146697Y-104714366D01*
X124146693Y-104714365D01*
X124146692Y-104714365D01*
X124146691Y-104714364D01*
X124146686Y-104714364D01*
X123920002Y-104694532D01*
X123919998Y-104694532D01*
X123693313Y-104714364D01*
X123693302Y-104714366D01*
X123473511Y-104773258D01*
X123473502Y-104773261D01*
X123267267Y-104869431D01*
X123267265Y-104869432D01*
X123080858Y-104999954D01*
X122919954Y-105160858D01*
X122789432Y-105347265D01*
X122789431Y-105347267D01*
X122693261Y-105553502D01*
X122693258Y-105553511D01*
X122634366Y-105773302D01*
X122634364Y-105773313D01*
X122614532Y-105999998D01*
X122614532Y-106000001D01*
X120000499Y-106000001D01*
X120000499Y-102700001D01*
X138314390Y-102700001D01*
X138334804Y-102985433D01*
X138395628Y-103265037D01*
X138495635Y-103533166D01*
X138632770Y-103784309D01*
X138632775Y-103784317D01*
X138804254Y-104013387D01*
X138804270Y-104013405D01*
X139006594Y-104215729D01*
X139006612Y-104215745D01*
X139235682Y-104387224D01*
X139235690Y-104387229D01*
X139486833Y-104524364D01*
X139486832Y-104524364D01*
X139486836Y-104524365D01*
X139486839Y-104524367D01*
X139754954Y-104624369D01*
X139754960Y-104624370D01*
X139754962Y-104624371D01*
X140034566Y-104685195D01*
X140034568Y-104685195D01*
X140034572Y-104685196D01*
X140288220Y-104703337D01*
X140319999Y-104705610D01*
X140320000Y-104705610D01*
X140320001Y-104705610D01*
X140348595Y-104703564D01*
X140605428Y-104685196D01*
X140885046Y-104624369D01*
X141153161Y-104524367D01*
X141404315Y-104387226D01*
X141633395Y-104215739D01*
X141835739Y-104013395D01*
X142007226Y-103784315D01*
X142144367Y-103533161D01*
X142244369Y-103265046D01*
X142305196Y-102985428D01*
X142325610Y-102700001D01*
X157674390Y-102700001D01*
X157694804Y-102985433D01*
X157755628Y-103265037D01*
X157855635Y-103533166D01*
X157992770Y-103784309D01*
X157992775Y-103784317D01*
X158164254Y-104013387D01*
X158164270Y-104013405D01*
X158366594Y-104215729D01*
X158366612Y-104215745D01*
X158595682Y-104387224D01*
X158595690Y-104387229D01*
X158846833Y-104524364D01*
X158846832Y-104524364D01*
X158846836Y-104524365D01*
X158846839Y-104524367D01*
X159114954Y-104624369D01*
X159114960Y-104624370D01*
X159114962Y-104624371D01*
X159394566Y-104685195D01*
X159394568Y-104685195D01*
X159394572Y-104685196D01*
X159648220Y-104703337D01*
X159679999Y-104705610D01*
X159680000Y-104705610D01*
X159680001Y-104705610D01*
X159708595Y-104703564D01*
X159965428Y-104685196D01*
X160245046Y-104624369D01*
X160513161Y-104524367D01*
X160764315Y-104387226D01*
X160993395Y-104215739D01*
X161195739Y-104013395D01*
X161367226Y-103784315D01*
X161504367Y-103533161D01*
X161604369Y-103265046D01*
X161665196Y-102985428D01*
X161685610Y-102700000D01*
X161665196Y-102414572D01*
X161604369Y-102134954D01*
X161504367Y-101866839D01*
X161481175Y-101824367D01*
X161367229Y-101615690D01*
X161367224Y-101615682D01*
X161195745Y-101386612D01*
X161195729Y-101386594D01*
X160993405Y-101184270D01*
X160993387Y-101184254D01*
X160764317Y-101012775D01*
X160764309Y-101012770D01*
X160513166Y-100875635D01*
X160513167Y-100875635D01*
X160399289Y-100833161D01*
X160245046Y-100775631D01*
X160245043Y-100775630D01*
X160245037Y-100775628D01*
X159965433Y-100714804D01*
X159680001Y-100694390D01*
X159679999Y-100694390D01*
X159394566Y-100714804D01*
X159114962Y-100775628D01*
X158846833Y-100875635D01*
X158595690Y-101012770D01*
X158595682Y-101012775D01*
X158366612Y-101184254D01*
X158366594Y-101184270D01*
X158164270Y-101386594D01*
X158164254Y-101386612D01*
X157992775Y-101615682D01*
X157992770Y-101615690D01*
X157855635Y-101866833D01*
X157755628Y-102134962D01*
X157694804Y-102414566D01*
X157674390Y-102699998D01*
X157674390Y-102700001D01*
X142325610Y-102700001D01*
X142325610Y-102700000D01*
X142305196Y-102414572D01*
X142244369Y-102134954D01*
X142144367Y-101866839D01*
X142121175Y-101824367D01*
X142007229Y-101615690D01*
X142007224Y-101615682D01*
X141835745Y-101386612D01*
X141835729Y-101386594D01*
X141633405Y-101184270D01*
X141633387Y-101184254D01*
X141404317Y-101012775D01*
X141404309Y-101012770D01*
X141153166Y-100875635D01*
X141153167Y-100875635D01*
X141039289Y-100833161D01*
X140885046Y-100775631D01*
X140885043Y-100775630D01*
X140885037Y-100775628D01*
X140605433Y-100714804D01*
X140320001Y-100694390D01*
X140319999Y-100694390D01*
X140034566Y-100714804D01*
X139754962Y-100775628D01*
X139486833Y-100875635D01*
X139235690Y-101012770D01*
X139235682Y-101012775D01*
X139006612Y-101184254D01*
X139006594Y-101184270D01*
X138804270Y-101386594D01*
X138804254Y-101386612D01*
X138632775Y-101615682D01*
X138632770Y-101615690D01*
X138495635Y-101866833D01*
X138395628Y-102134962D01*
X138334804Y-102414566D01*
X138314390Y-102699998D01*
X138314390Y-102700001D01*
X120000499Y-102700001D01*
X120000499Y-100000001D01*
X122534532Y-100000001D01*
X122554364Y-100226686D01*
X122554366Y-100226697D01*
X122613258Y-100446488D01*
X122613261Y-100446497D01*
X122709431Y-100652732D01*
X122709432Y-100652734D01*
X122839954Y-100839141D01*
X123000858Y-101000045D01*
X123000861Y-101000047D01*
X123187266Y-101130568D01*
X123393504Y-101226739D01*
X123613308Y-101285635D01*
X123775230Y-101299801D01*
X123839998Y-101305468D01*
X123840000Y-101305468D01*
X123840002Y-101305468D01*
X123896673Y-101300509D01*
X124066692Y-101285635D01*
X124286496Y-101226739D01*
X124492734Y-101130568D01*
X124679139Y-101000047D01*
X124840047Y-100839139D01*
X124970568Y-100652734D01*
X125066739Y-100446496D01*
X125125635Y-100226692D01*
X125145468Y-100000001D01*
X132694532Y-100000001D01*
X132714364Y-100226686D01*
X132714366Y-100226697D01*
X132773258Y-100446488D01*
X132773261Y-100446497D01*
X132869431Y-100652732D01*
X132869432Y-100652734D01*
X132999954Y-100839141D01*
X133160858Y-101000045D01*
X133160861Y-101000047D01*
X133347266Y-101130568D01*
X133553504Y-101226739D01*
X133773308Y-101285635D01*
X133935230Y-101299801D01*
X133999998Y-101305468D01*
X134000000Y-101305468D01*
X134000002Y-101305468D01*
X134056672Y-101300509D01*
X134226692Y-101285635D01*
X134446496Y-101226739D01*
X134652734Y-101130568D01*
X134839139Y-101000047D01*
X135000047Y-100839139D01*
X135130568Y-100652734D01*
X135226739Y-100446496D01*
X135285635Y-100226692D01*
X135305468Y-100000001D01*
X142344390Y-100000001D01*
X142364804Y-100285433D01*
X142425628Y-100565037D01*
X142425630Y-100565043D01*
X142425631Y-100565046D01*
X142525633Y-100833161D01*
X142525635Y-100833166D01*
X142662770Y-101084309D01*
X142662775Y-101084317D01*
X142834254Y-101313387D01*
X142834270Y-101313405D01*
X143036594Y-101515729D01*
X143036612Y-101515745D01*
X143265682Y-101687224D01*
X143265690Y-101687229D01*
X143516833Y-101824364D01*
X143516832Y-101824364D01*
X143516836Y-101824365D01*
X143516839Y-101824367D01*
X143784954Y-101924369D01*
X143784960Y-101924370D01*
X143784962Y-101924371D01*
X144064566Y-101985195D01*
X144064568Y-101985195D01*
X144064572Y-101985196D01*
X144318220Y-102003337D01*
X144349999Y-102005610D01*
X144350000Y-102005610D01*
X144350001Y-102005610D01*
X144378595Y-102003564D01*
X144635428Y-101985196D01*
X144915046Y-101924369D01*
X145183161Y-101824367D01*
X145434315Y-101687226D01*
X145663395Y-101515739D01*
X145865739Y-101313395D01*
X146037226Y-101084315D01*
X146174367Y-100833161D01*
X146274369Y-100565046D01*
X146335196Y-100285428D01*
X146355610Y-100000001D01*
X153644390Y-100000001D01*
X153664804Y-100285433D01*
X153725628Y-100565037D01*
X153725630Y-100565043D01*
X153725631Y-100565046D01*
X153825633Y-100833161D01*
X153825635Y-100833166D01*
X153962770Y-101084309D01*
X153962775Y-101084317D01*
X154134254Y-101313387D01*
X154134270Y-101313405D01*
X154336594Y-101515729D01*
X154336612Y-101515745D01*
X154565682Y-101687224D01*
X154565690Y-101687229D01*
X154816833Y-101824364D01*
X154816832Y-101824364D01*
X154816836Y-101824365D01*
X154816839Y-101824367D01*
X155084954Y-101924369D01*
X155084960Y-101924370D01*
X155084962Y-101924371D01*
X155364566Y-101985195D01*
X155364568Y-101985195D01*
X155364572Y-101985196D01*
X155618220Y-102003337D01*
X155649999Y-102005610D01*
X155650000Y-102005610D01*
X155650001Y-102005610D01*
X155678595Y-102003564D01*
X155935428Y-101985196D01*
X156215046Y-101924369D01*
X156483161Y-101824367D01*
X156734315Y-101687226D01*
X156963395Y-101515739D01*
X157165739Y-101313395D01*
X157337226Y-101084315D01*
X157474367Y-100833161D01*
X157574369Y-100565046D01*
X157635196Y-100285428D01*
X157655610Y-100000001D01*
X164614532Y-100000001D01*
X164634364Y-100226686D01*
X164634366Y-100226697D01*
X164693258Y-100446488D01*
X164693261Y-100446497D01*
X164789431Y-100652732D01*
X164789432Y-100652734D01*
X164919954Y-100839141D01*
X165080858Y-101000045D01*
X165080861Y-101000047D01*
X165267266Y-101130568D01*
X165473504Y-101226739D01*
X165693308Y-101285635D01*
X165855230Y-101299801D01*
X165919998Y-101305468D01*
X165920000Y-101305468D01*
X165920002Y-101305468D01*
X165976673Y-101300509D01*
X166146692Y-101285635D01*
X166366496Y-101226739D01*
X166572734Y-101130568D01*
X166759139Y-101000047D01*
X166920047Y-100839139D01*
X167050568Y-100652734D01*
X167146739Y-100446496D01*
X167205635Y-100226692D01*
X167225468Y-100000001D01*
X174774532Y-100000001D01*
X174794364Y-100226686D01*
X174794366Y-100226697D01*
X174853258Y-100446488D01*
X174853261Y-100446497D01*
X174949431Y-100652732D01*
X174949432Y-100652734D01*
X175079954Y-100839141D01*
X175240858Y-101000045D01*
X175240861Y-101000047D01*
X175427266Y-101130568D01*
X175633504Y-101226739D01*
X175853308Y-101285635D01*
X176015230Y-101299801D01*
X176079998Y-101305468D01*
X176080000Y-101305468D01*
X176080002Y-101305468D01*
X176136672Y-101300509D01*
X176306692Y-101285635D01*
X176526496Y-101226739D01*
X176732734Y-101130568D01*
X176919139Y-101000047D01*
X177080047Y-100839139D01*
X177210568Y-100652734D01*
X177306739Y-100446496D01*
X177365635Y-100226692D01*
X177385468Y-100000000D01*
X177365635Y-99773308D01*
X177306739Y-99553504D01*
X177210568Y-99347266D01*
X177080047Y-99160861D01*
X177080045Y-99160858D01*
X176919141Y-98999954D01*
X176732734Y-98869432D01*
X176732732Y-98869431D01*
X176526497Y-98773261D01*
X176526488Y-98773258D01*
X176306697Y-98714366D01*
X176306693Y-98714365D01*
X176306692Y-98714365D01*
X176306691Y-98714364D01*
X176306686Y-98714364D01*
X176080002Y-98694532D01*
X176079998Y-98694532D01*
X175853313Y-98714364D01*
X175853302Y-98714366D01*
X175633511Y-98773258D01*
X175633502Y-98773261D01*
X175427267Y-98869431D01*
X175427265Y-98869432D01*
X175240858Y-98999954D01*
X175079954Y-99160858D01*
X174949432Y-99347265D01*
X174949431Y-99347267D01*
X174853261Y-99553502D01*
X174853258Y-99553511D01*
X174794366Y-99773302D01*
X174794364Y-99773313D01*
X174774532Y-99999998D01*
X174774532Y-100000001D01*
X167225468Y-100000001D01*
X167225468Y-100000000D01*
X167205635Y-99773308D01*
X167146739Y-99553504D01*
X167050568Y-99347266D01*
X166920047Y-99160861D01*
X166920045Y-99160858D01*
X166759141Y-98999954D01*
X166572734Y-98869432D01*
X166572732Y-98869431D01*
X166366497Y-98773261D01*
X166366488Y-98773258D01*
X166146697Y-98714366D01*
X166146693Y-98714365D01*
X166146692Y-98714365D01*
X166146691Y-98714364D01*
X166146686Y-98714364D01*
X165920002Y-98694532D01*
X165919998Y-98694532D01*
X165693313Y-98714364D01*
X165693302Y-98714366D01*
X165473511Y-98773258D01*
X165473502Y-98773261D01*
X165267267Y-98869431D01*
X165267265Y-98869432D01*
X165080858Y-98999954D01*
X164919954Y-99160858D01*
X164789432Y-99347265D01*
X164789431Y-99347267D01*
X164693261Y-99553502D01*
X164693258Y-99553511D01*
X164634366Y-99773302D01*
X164634364Y-99773313D01*
X164614532Y-99999998D01*
X164614532Y-100000001D01*
X157655610Y-100000001D01*
X157655610Y-100000000D01*
X157635196Y-99714572D01*
X157600159Y-99553511D01*
X157574371Y-99434962D01*
X157574370Y-99434960D01*
X157574369Y-99434954D01*
X157474367Y-99166839D01*
X157451175Y-99124367D01*
X157337229Y-98915690D01*
X157337224Y-98915682D01*
X157165745Y-98686612D01*
X157165729Y-98686594D01*
X156963405Y-98484270D01*
X156963387Y-98484254D01*
X156734317Y-98312775D01*
X156734309Y-98312770D01*
X156483166Y-98175635D01*
X156483167Y-98175635D01*
X156369289Y-98133161D01*
X156215046Y-98075631D01*
X156215043Y-98075630D01*
X156215037Y-98075628D01*
X155935433Y-98014804D01*
X155650001Y-97994390D01*
X155649999Y-97994390D01*
X155364566Y-98014804D01*
X155084962Y-98075628D01*
X154816833Y-98175635D01*
X154565690Y-98312770D01*
X154565682Y-98312775D01*
X154336612Y-98484254D01*
X154336594Y-98484270D01*
X154134270Y-98686594D01*
X154134254Y-98686612D01*
X153962775Y-98915682D01*
X153962770Y-98915690D01*
X153825635Y-99166833D01*
X153725628Y-99434962D01*
X153664804Y-99714566D01*
X153644390Y-99999998D01*
X153644390Y-100000001D01*
X146355610Y-100000001D01*
X146355610Y-100000000D01*
X146335196Y-99714572D01*
X146300159Y-99553511D01*
X146274371Y-99434962D01*
X146274370Y-99434960D01*
X146274369Y-99434954D01*
X146174367Y-99166839D01*
X146151175Y-99124367D01*
X146037229Y-98915690D01*
X146037224Y-98915682D01*
X145865745Y-98686612D01*
X145865729Y-98686594D01*
X145663405Y-98484270D01*
X145663387Y-98484254D01*
X145434317Y-98312775D01*
X145434309Y-98312770D01*
X145183166Y-98175635D01*
X145183167Y-98175635D01*
X145069289Y-98133161D01*
X144915046Y-98075631D01*
X144915043Y-98075630D01*
X144915037Y-98075628D01*
X144635433Y-98014804D01*
X144350001Y-97994390D01*
X144349999Y-97994390D01*
X144064566Y-98014804D01*
X143784962Y-98075628D01*
X143516833Y-98175635D01*
X143265690Y-98312770D01*
X143265682Y-98312775D01*
X143036612Y-98484254D01*
X143036594Y-98484270D01*
X142834270Y-98686594D01*
X142834254Y-98686612D01*
X142662775Y-98915682D01*
X142662770Y-98915690D01*
X142525635Y-99166833D01*
X142425628Y-99434962D01*
X142364804Y-99714566D01*
X142344390Y-99999998D01*
X142344390Y-100000001D01*
X135305468Y-100000001D01*
X135305468Y-100000000D01*
X135285635Y-99773308D01*
X135226739Y-99553504D01*
X135130568Y-99347266D01*
X135000047Y-99160861D01*
X135000045Y-99160858D01*
X134839141Y-98999954D01*
X134652734Y-98869432D01*
X134652732Y-98869431D01*
X134446497Y-98773261D01*
X134446488Y-98773258D01*
X134226697Y-98714366D01*
X134226693Y-98714365D01*
X134226692Y-98714365D01*
X134226691Y-98714364D01*
X134226686Y-98714364D01*
X134000002Y-98694532D01*
X133999998Y-98694532D01*
X133773313Y-98714364D01*
X133773302Y-98714366D01*
X133553511Y-98773258D01*
X133553502Y-98773261D01*
X133347267Y-98869431D01*
X133347265Y-98869432D01*
X133160858Y-98999954D01*
X132999954Y-99160858D01*
X132869432Y-99347265D01*
X132869431Y-99347267D01*
X132773261Y-99553502D01*
X132773258Y-99553511D01*
X132714366Y-99773302D01*
X132714364Y-99773313D01*
X132694532Y-99999998D01*
X132694532Y-100000001D01*
X125145468Y-100000001D01*
X125145468Y-100000000D01*
X125125635Y-99773308D01*
X125066739Y-99553504D01*
X124970568Y-99347266D01*
X124840047Y-99160861D01*
X124840045Y-99160858D01*
X124679141Y-98999954D01*
X124492734Y-98869432D01*
X124492732Y-98869431D01*
X124286497Y-98773261D01*
X124286488Y-98773258D01*
X124066697Y-98714366D01*
X124066693Y-98714365D01*
X124066692Y-98714365D01*
X124066691Y-98714364D01*
X124066686Y-98714364D01*
X123840002Y-98694532D01*
X123839998Y-98694532D01*
X123613313Y-98714364D01*
X123613302Y-98714366D01*
X123393511Y-98773258D01*
X123393502Y-98773261D01*
X123187267Y-98869431D01*
X123187265Y-98869432D01*
X123000858Y-98999954D01*
X122839954Y-99160858D01*
X122709432Y-99347265D01*
X122709431Y-99347267D01*
X122613261Y-99553502D01*
X122613258Y-99553511D01*
X122554366Y-99773302D01*
X122554364Y-99773313D01*
X122534532Y-99999998D01*
X122534532Y-100000001D01*
X120000499Y-100000001D01*
X120000499Y-97300001D01*
X138314390Y-97300001D01*
X138334804Y-97585433D01*
X138395628Y-97865037D01*
X138395630Y-97865043D01*
X138395631Y-97865046D01*
X138495633Y-98133161D01*
X138495635Y-98133166D01*
X138632770Y-98384309D01*
X138632775Y-98384317D01*
X138804254Y-98613387D01*
X138804270Y-98613405D01*
X139006594Y-98815729D01*
X139006612Y-98815745D01*
X139235682Y-98987224D01*
X139235690Y-98987229D01*
X139486833Y-99124364D01*
X139486832Y-99124364D01*
X139486836Y-99124365D01*
X139486839Y-99124367D01*
X139754954Y-99224369D01*
X139754960Y-99224370D01*
X139754962Y-99224371D01*
X140034566Y-99285195D01*
X140034568Y-99285195D01*
X140034572Y-99285196D01*
X140288220Y-99303337D01*
X140319999Y-99305610D01*
X140320000Y-99305610D01*
X140320001Y-99305610D01*
X140348595Y-99303564D01*
X140605428Y-99285196D01*
X140885046Y-99224369D01*
X141153161Y-99124367D01*
X141404315Y-98987226D01*
X141633395Y-98815739D01*
X141835739Y-98613395D01*
X142007226Y-98384315D01*
X142144367Y-98133161D01*
X142244369Y-97865046D01*
X142305196Y-97585428D01*
X142325610Y-97300001D01*
X157674390Y-97300001D01*
X157694804Y-97585433D01*
X157755628Y-97865037D01*
X157755630Y-97865043D01*
X157755631Y-97865046D01*
X157855633Y-98133161D01*
X157855635Y-98133166D01*
X157992770Y-98384309D01*
X157992775Y-98384317D01*
X158164254Y-98613387D01*
X158164270Y-98613405D01*
X158366594Y-98815729D01*
X158366612Y-98815745D01*
X158595682Y-98987224D01*
X158595690Y-98987229D01*
X158846833Y-99124364D01*
X158846832Y-99124364D01*
X158846836Y-99124365D01*
X158846839Y-99124367D01*
X159114954Y-99224369D01*
X159114960Y-99224370D01*
X159114962Y-99224371D01*
X159394566Y-99285195D01*
X159394568Y-99285195D01*
X159394572Y-99285196D01*
X159648220Y-99303337D01*
X159679999Y-99305610D01*
X159680000Y-99305610D01*
X159680001Y-99305610D01*
X159708595Y-99303564D01*
X159965428Y-99285196D01*
X160245046Y-99224369D01*
X160513161Y-99124367D01*
X160764315Y-98987226D01*
X160993395Y-98815739D01*
X161195739Y-98613395D01*
X161367226Y-98384315D01*
X161504367Y-98133161D01*
X161604369Y-97865046D01*
X161665196Y-97585428D01*
X161685610Y-97300000D01*
X161665196Y-97014572D01*
X161604369Y-96734954D01*
X161504367Y-96466839D01*
X161367226Y-96215685D01*
X161367224Y-96215682D01*
X161195745Y-95986612D01*
X161195729Y-95986594D01*
X160993405Y-95784270D01*
X160993387Y-95784254D01*
X160764317Y-95612775D01*
X160764309Y-95612770D01*
X160513166Y-95475635D01*
X160513167Y-95475635D01*
X160405914Y-95435632D01*
X160245046Y-95375631D01*
X160245043Y-95375630D01*
X160245037Y-95375628D01*
X159965433Y-95314804D01*
X159680001Y-95294390D01*
X159679999Y-95294390D01*
X159394566Y-95314804D01*
X159114962Y-95375628D01*
X158846833Y-95475635D01*
X158595690Y-95612770D01*
X158595682Y-95612775D01*
X158366612Y-95784254D01*
X158366594Y-95784270D01*
X158164270Y-95986594D01*
X158164254Y-95986612D01*
X157992775Y-96215682D01*
X157992770Y-96215690D01*
X157855635Y-96466833D01*
X157755628Y-96734962D01*
X157694804Y-97014566D01*
X157674390Y-97299998D01*
X157674390Y-97300001D01*
X142325610Y-97300001D01*
X142325610Y-97300000D01*
X142305196Y-97014572D01*
X142244369Y-96734954D01*
X142144367Y-96466839D01*
X142007226Y-96215685D01*
X142007224Y-96215682D01*
X141835745Y-95986612D01*
X141835729Y-95986594D01*
X141633405Y-95784270D01*
X141633387Y-95784254D01*
X141404317Y-95612775D01*
X141404309Y-95612770D01*
X141153166Y-95475635D01*
X141153167Y-95475635D01*
X141045915Y-95435632D01*
X140885046Y-95375631D01*
X140885043Y-95375630D01*
X140885037Y-95375628D01*
X140605433Y-95314804D01*
X140320001Y-95294390D01*
X140319999Y-95294390D01*
X140034566Y-95314804D01*
X139754962Y-95375628D01*
X139486833Y-95475635D01*
X139235690Y-95612770D01*
X139235682Y-95612775D01*
X139006612Y-95784254D01*
X139006594Y-95784270D01*
X138804270Y-95986594D01*
X138804254Y-95986612D01*
X138632775Y-96215682D01*
X138632770Y-96215690D01*
X138495635Y-96466833D01*
X138395628Y-96734962D01*
X138334804Y-97014566D01*
X138314390Y-97299998D01*
X138314390Y-97300001D01*
X120000499Y-97300001D01*
X120000499Y-94000001D01*
X122614532Y-94000001D01*
X122634364Y-94226686D01*
X122634366Y-94226697D01*
X122693258Y-94446488D01*
X122693261Y-94446497D01*
X122789431Y-94652732D01*
X122789432Y-94652734D01*
X122919954Y-94839141D01*
X123080858Y-95000045D01*
X123080861Y-95000047D01*
X123267266Y-95130568D01*
X123473504Y-95226739D01*
X123693308Y-95285635D01*
X123855230Y-95299801D01*
X123919998Y-95305468D01*
X123920000Y-95305468D01*
X123920002Y-95305468D01*
X123976672Y-95300509D01*
X124146692Y-95285635D01*
X124366496Y-95226739D01*
X124572734Y-95130568D01*
X124759139Y-95000047D01*
X124920047Y-94839139D01*
X125050568Y-94652734D01*
X125146739Y-94446496D01*
X125205635Y-94226692D01*
X125225468Y-94000001D01*
X132774532Y-94000001D01*
X132794364Y-94226686D01*
X132794366Y-94226697D01*
X132853258Y-94446488D01*
X132853261Y-94446497D01*
X132949431Y-94652732D01*
X132949432Y-94652734D01*
X133079954Y-94839141D01*
X133240858Y-95000045D01*
X133240861Y-95000047D01*
X133427266Y-95130568D01*
X133633504Y-95226739D01*
X133853308Y-95285635D01*
X134015230Y-95299801D01*
X134079998Y-95305468D01*
X134080000Y-95305468D01*
X134080002Y-95305468D01*
X134136673Y-95300509D01*
X134306692Y-95285635D01*
X134526496Y-95226739D01*
X134732734Y-95130568D01*
X134919139Y-95000047D01*
X135080047Y-94839139D01*
X135210568Y-94652734D01*
X135306739Y-94446496D01*
X135365635Y-94226692D01*
X135385468Y-94000000D01*
X135365635Y-93773308D01*
X135306739Y-93553504D01*
X135210568Y-93347266D01*
X135080047Y-93160861D01*
X135080045Y-93160858D01*
X134919141Y-92999954D01*
X134762110Y-92890001D01*
X140894390Y-92890001D01*
X140914804Y-93175433D01*
X140975628Y-93455037D01*
X140975630Y-93455043D01*
X140975631Y-93455046D01*
X141012354Y-93553504D01*
X141075635Y-93723166D01*
X141212770Y-93974309D01*
X141212775Y-93974317D01*
X141384254Y-94203387D01*
X141384270Y-94203405D01*
X141586594Y-94405729D01*
X141586612Y-94405745D01*
X141815682Y-94577224D01*
X141815690Y-94577229D01*
X142066833Y-94714364D01*
X142066832Y-94714364D01*
X142066836Y-94714365D01*
X142066839Y-94714367D01*
X142334954Y-94814369D01*
X142334960Y-94814370D01*
X142334962Y-94814371D01*
X142614566Y-94875195D01*
X142614568Y-94875195D01*
X142614572Y-94875196D01*
X142868220Y-94893337D01*
X142899999Y-94895610D01*
X142900000Y-94895610D01*
X142900001Y-94895610D01*
X142928595Y-94893564D01*
X143185428Y-94875196D01*
X143465046Y-94814369D01*
X143733161Y-94714367D01*
X143984315Y-94577226D01*
X144213395Y-94405739D01*
X144415739Y-94203395D01*
X144587226Y-93974315D01*
X144724367Y-93723161D01*
X144824369Y-93455046D01*
X144885196Y-93175428D01*
X144905610Y-92890001D01*
X155094390Y-92890001D01*
X155114804Y-93175433D01*
X155175628Y-93455037D01*
X155175630Y-93455043D01*
X155175631Y-93455046D01*
X155212354Y-93553504D01*
X155275635Y-93723166D01*
X155412770Y-93974309D01*
X155412775Y-93974317D01*
X155584254Y-94203387D01*
X155584270Y-94203405D01*
X155786594Y-94405729D01*
X155786612Y-94405745D01*
X156015682Y-94577224D01*
X156015690Y-94577229D01*
X156266833Y-94714364D01*
X156266832Y-94714364D01*
X156266836Y-94714365D01*
X156266839Y-94714367D01*
X156534954Y-94814369D01*
X156534960Y-94814370D01*
X156534962Y-94814371D01*
X156814566Y-94875195D01*
X156814568Y-94875195D01*
X156814572Y-94875196D01*
X157068220Y-94893337D01*
X157099999Y-94895610D01*
X157100000Y-94895610D01*
X157100001Y-94895610D01*
X157128595Y-94893564D01*
X157385428Y-94875196D01*
X157665046Y-94814369D01*
X157933161Y-94714367D01*
X158184315Y-94577226D01*
X158413395Y-94405739D01*
X158615739Y-94203395D01*
X158767998Y-94000001D01*
X164614532Y-94000001D01*
X164634364Y-94226686D01*
X164634366Y-94226697D01*
X164693258Y-94446488D01*
X164693261Y-94446497D01*
X164789431Y-94652732D01*
X164789432Y-94652734D01*
X164919954Y-94839141D01*
X165080858Y-95000045D01*
X165080861Y-95000047D01*
X165267266Y-95130568D01*
X165473504Y-95226739D01*
X165693308Y-95285635D01*
X165855230Y-95299801D01*
X165919998Y-95305468D01*
X165920000Y-95305468D01*
X165920002Y-95305468D01*
X165976673Y-95300509D01*
X166146692Y-95285635D01*
X166366496Y-95226739D01*
X166572734Y-95130568D01*
X166759139Y-95000047D01*
X166920047Y-94839139D01*
X167050568Y-94652734D01*
X167146739Y-94446496D01*
X167205635Y-94226692D01*
X167225468Y-94000001D01*
X174774532Y-94000001D01*
X174794364Y-94226686D01*
X174794366Y-94226697D01*
X174853258Y-94446488D01*
X174853261Y-94446497D01*
X174949431Y-94652732D01*
X174949432Y-94652734D01*
X175079954Y-94839141D01*
X175240858Y-95000045D01*
X175240861Y-95000047D01*
X175427266Y-95130568D01*
X175633504Y-95226739D01*
X175853308Y-95285635D01*
X176015230Y-95299801D01*
X176079998Y-95305468D01*
X176080000Y-95305468D01*
X176080002Y-95305468D01*
X176136672Y-95300509D01*
X176306692Y-95285635D01*
X176526496Y-95226739D01*
X176732734Y-95130568D01*
X176919139Y-95000047D01*
X177080047Y-94839139D01*
X177210568Y-94652734D01*
X177306739Y-94446496D01*
X177365635Y-94226692D01*
X177385468Y-94000000D01*
X177365635Y-93773308D01*
X177306739Y-93553504D01*
X177210568Y-93347266D01*
X177080047Y-93160861D01*
X177080045Y-93160858D01*
X176919141Y-92999954D01*
X176732734Y-92869432D01*
X176732732Y-92869431D01*
X176526497Y-92773261D01*
X176526488Y-92773258D01*
X176306697Y-92714366D01*
X176306693Y-92714365D01*
X176306692Y-92714365D01*
X176306691Y-92714364D01*
X176306686Y-92714364D01*
X176080002Y-92694532D01*
X176079998Y-92694532D01*
X175853313Y-92714364D01*
X175853302Y-92714366D01*
X175633511Y-92773258D01*
X175633502Y-92773261D01*
X175427267Y-92869431D01*
X175427265Y-92869432D01*
X175240858Y-92999954D01*
X175079954Y-93160858D01*
X174949432Y-93347265D01*
X174949431Y-93347267D01*
X174853261Y-93553502D01*
X174853258Y-93553511D01*
X174794366Y-93773302D01*
X174794364Y-93773313D01*
X174774532Y-93999998D01*
X174774532Y-94000001D01*
X167225468Y-94000001D01*
X167225468Y-94000000D01*
X167205635Y-93773308D01*
X167146739Y-93553504D01*
X167050568Y-93347266D01*
X166920047Y-93160861D01*
X166920045Y-93160858D01*
X166759141Y-92999954D01*
X166572734Y-92869432D01*
X166572732Y-92869431D01*
X166366497Y-92773261D01*
X166366488Y-92773258D01*
X166146697Y-92714366D01*
X166146693Y-92714365D01*
X166146692Y-92714365D01*
X166146691Y-92714364D01*
X166146686Y-92714364D01*
X165920002Y-92694532D01*
X165919998Y-92694532D01*
X165693313Y-92714364D01*
X165693302Y-92714366D01*
X165473511Y-92773258D01*
X165473502Y-92773261D01*
X165267267Y-92869431D01*
X165267265Y-92869432D01*
X165080858Y-92999954D01*
X164919954Y-93160858D01*
X164789432Y-93347265D01*
X164789431Y-93347267D01*
X164693261Y-93553502D01*
X164693258Y-93553511D01*
X164634366Y-93773302D01*
X164634364Y-93773313D01*
X164614532Y-93999998D01*
X164614532Y-94000001D01*
X158767998Y-94000001D01*
X158787226Y-93974315D01*
X158924367Y-93723161D01*
X159024369Y-93455046D01*
X159085196Y-93175428D01*
X159105610Y-92890000D01*
X159085196Y-92604572D01*
X159024369Y-92324954D01*
X158924367Y-92056839D01*
X158891817Y-91997229D01*
X158787229Y-91805690D01*
X158787224Y-91805682D01*
X158615745Y-91576612D01*
X158615729Y-91576594D01*
X158413405Y-91374270D01*
X158413387Y-91374254D01*
X158184317Y-91202775D01*
X158184309Y-91202770D01*
X157933166Y-91065635D01*
X157933167Y-91065635D01*
X157825914Y-91025632D01*
X157665046Y-90965631D01*
X157665043Y-90965630D01*
X157665037Y-90965628D01*
X157385433Y-90904804D01*
X157100001Y-90884390D01*
X157099999Y-90884390D01*
X156814566Y-90904804D01*
X156534962Y-90965628D01*
X156266833Y-91065635D01*
X156015690Y-91202770D01*
X156015682Y-91202775D01*
X155786612Y-91374254D01*
X155786594Y-91374270D01*
X155584270Y-91576594D01*
X155584254Y-91576612D01*
X155412775Y-91805682D01*
X155412770Y-91805690D01*
X155275635Y-92056833D01*
X155175628Y-92324962D01*
X155114804Y-92604566D01*
X155094390Y-92889998D01*
X155094390Y-92890001D01*
X144905610Y-92890001D01*
X144905610Y-92890000D01*
X144885196Y-92604572D01*
X144824369Y-92324954D01*
X144724367Y-92056839D01*
X144691817Y-91997229D01*
X144587229Y-91805690D01*
X144587224Y-91805682D01*
X144415745Y-91576612D01*
X144415729Y-91576594D01*
X144213405Y-91374270D01*
X144213387Y-91374254D01*
X143984317Y-91202775D01*
X143984309Y-91202770D01*
X143733166Y-91065635D01*
X143733167Y-91065635D01*
X143625915Y-91025632D01*
X143465046Y-90965631D01*
X143465043Y-90965630D01*
X143465037Y-90965628D01*
X143185433Y-90904804D01*
X142900001Y-90884390D01*
X142899999Y-90884390D01*
X142614566Y-90904804D01*
X142334962Y-90965628D01*
X142066833Y-91065635D01*
X141815690Y-91202770D01*
X141815682Y-91202775D01*
X141586612Y-91374254D01*
X141586594Y-91374270D01*
X141384270Y-91576594D01*
X141384254Y-91576612D01*
X141212775Y-91805682D01*
X141212770Y-91805690D01*
X141075635Y-92056833D01*
X140975628Y-92324962D01*
X140914804Y-92604566D01*
X140894390Y-92889998D01*
X140894390Y-92890001D01*
X134762110Y-92890001D01*
X134732734Y-92869432D01*
X134732732Y-92869431D01*
X134526497Y-92773261D01*
X134526488Y-92773258D01*
X134306697Y-92714366D01*
X134306693Y-92714365D01*
X134306692Y-92714365D01*
X134306691Y-92714364D01*
X134306686Y-92714364D01*
X134080002Y-92694532D01*
X134079998Y-92694532D01*
X133853313Y-92714364D01*
X133853302Y-92714366D01*
X133633511Y-92773258D01*
X133633502Y-92773261D01*
X133427267Y-92869431D01*
X133427265Y-92869432D01*
X133240858Y-92999954D01*
X133079954Y-93160858D01*
X132949432Y-93347265D01*
X132949431Y-93347267D01*
X132853261Y-93553502D01*
X132853258Y-93553511D01*
X132794366Y-93773302D01*
X132794364Y-93773313D01*
X132774532Y-93999998D01*
X132774532Y-94000001D01*
X125225468Y-94000001D01*
X125225468Y-94000000D01*
X125205635Y-93773308D01*
X125146739Y-93553504D01*
X125050568Y-93347266D01*
X124920047Y-93160861D01*
X124920045Y-93160858D01*
X124759141Y-92999954D01*
X124572734Y-92869432D01*
X124572732Y-92869431D01*
X124366497Y-92773261D01*
X124366488Y-92773258D01*
X124146697Y-92714366D01*
X124146693Y-92714365D01*
X124146692Y-92714365D01*
X124146691Y-92714364D01*
X124146686Y-92714364D01*
X123920002Y-92694532D01*
X123919998Y-92694532D01*
X123693313Y-92714364D01*
X123693302Y-92714366D01*
X123473511Y-92773258D01*
X123473502Y-92773261D01*
X123267267Y-92869431D01*
X123267265Y-92869432D01*
X123080858Y-92999954D01*
X122919954Y-93160858D01*
X122789432Y-93347265D01*
X122789431Y-93347267D01*
X122693261Y-93553502D01*
X122693258Y-93553511D01*
X122634366Y-93773302D01*
X122634364Y-93773313D01*
X122614532Y-93999998D01*
X122614532Y-94000001D01*
X120000499Y-94000001D01*
X120000499Y-90320001D01*
X145294390Y-90320001D01*
X145314804Y-90605433D01*
X145375628Y-90885037D01*
X145375630Y-90885043D01*
X145375631Y-90885046D01*
X145471903Y-91143161D01*
X145475635Y-91153166D01*
X145612770Y-91404309D01*
X145612775Y-91404317D01*
X145784254Y-91633387D01*
X145784270Y-91633405D01*
X145986594Y-91835729D01*
X145986612Y-91835745D01*
X146215682Y-92007224D01*
X146215690Y-92007229D01*
X146466833Y-92144364D01*
X146466832Y-92144364D01*
X146466836Y-92144365D01*
X146466839Y-92144367D01*
X146734954Y-92244369D01*
X146734960Y-92244370D01*
X146734962Y-92244371D01*
X147014566Y-92305195D01*
X147014568Y-92305195D01*
X147014572Y-92305196D01*
X147268220Y-92323337D01*
X147299999Y-92325610D01*
X147300000Y-92325610D01*
X147300001Y-92325610D01*
X147328595Y-92323564D01*
X147585428Y-92305196D01*
X147631398Y-92295196D01*
X147865037Y-92244371D01*
X147865037Y-92244370D01*
X147865046Y-92244369D01*
X148133161Y-92144367D01*
X148384315Y-92007226D01*
X148613395Y-91835739D01*
X148815739Y-91633395D01*
X148987226Y-91404315D01*
X149124367Y-91153161D01*
X149224369Y-90885046D01*
X149285196Y-90605428D01*
X149305610Y-90320000D01*
X149304895Y-90310001D01*
X150664390Y-90310001D01*
X150684804Y-90595433D01*
X150745628Y-90875037D01*
X150745630Y-90875043D01*
X150745631Y-90875046D01*
X150816717Y-91065635D01*
X150845635Y-91143166D01*
X150982770Y-91394309D01*
X150982775Y-91394317D01*
X151154254Y-91623387D01*
X151154270Y-91623405D01*
X151356594Y-91825729D01*
X151356612Y-91825745D01*
X151585682Y-91997224D01*
X151585690Y-91997229D01*
X151836833Y-92134364D01*
X151836832Y-92134364D01*
X151836836Y-92134365D01*
X151836839Y-92134367D01*
X152104954Y-92234369D01*
X152104960Y-92234370D01*
X152104962Y-92234371D01*
X152384566Y-92295195D01*
X152384568Y-92295195D01*
X152384572Y-92295196D01*
X152638220Y-92313337D01*
X152669999Y-92315610D01*
X152670000Y-92315610D01*
X152670001Y-92315610D01*
X152698595Y-92313564D01*
X152955428Y-92295196D01*
X153189068Y-92244371D01*
X153235037Y-92234371D01*
X153235037Y-92234370D01*
X153235046Y-92234369D01*
X153503161Y-92134367D01*
X153754315Y-91997226D01*
X153983395Y-91825739D01*
X154185739Y-91623395D01*
X154357226Y-91394315D01*
X154494367Y-91143161D01*
X154594369Y-90875046D01*
X154655196Y-90595428D01*
X154675610Y-90310000D01*
X154655196Y-90024572D01*
X154596544Y-89754954D01*
X154594371Y-89744962D01*
X154594370Y-89744960D01*
X154594369Y-89744954D01*
X154494367Y-89476839D01*
X154389961Y-89285635D01*
X154357229Y-89225690D01*
X154357224Y-89225682D01*
X154185745Y-88996612D01*
X154185729Y-88996594D01*
X153983405Y-88794270D01*
X153983387Y-88794254D01*
X153754317Y-88622775D01*
X153754309Y-88622770D01*
X153503166Y-88485635D01*
X153503167Y-88485635D01*
X153395915Y-88445632D01*
X153235046Y-88385631D01*
X153235043Y-88385630D01*
X153235037Y-88385628D01*
X152955433Y-88324804D01*
X152670001Y-88304390D01*
X152669999Y-88304390D01*
X152384566Y-88324804D01*
X152104962Y-88385628D01*
X151836833Y-88485635D01*
X151585690Y-88622770D01*
X151585682Y-88622775D01*
X151356612Y-88794254D01*
X151356594Y-88794270D01*
X151154270Y-88996594D01*
X151154254Y-88996612D01*
X150982775Y-89225682D01*
X150982770Y-89225690D01*
X150845635Y-89476833D01*
X150745628Y-89744962D01*
X150684804Y-90024566D01*
X150664390Y-90309998D01*
X150664390Y-90310001D01*
X149304895Y-90310001D01*
X149285196Y-90034572D01*
X149283019Y-90024566D01*
X149224371Y-89754962D01*
X149224370Y-89754960D01*
X149224369Y-89754954D01*
X149124367Y-89486839D01*
X149118903Y-89476833D01*
X148987229Y-89235690D01*
X148987224Y-89235682D01*
X148815745Y-89006612D01*
X148815729Y-89006594D01*
X148613405Y-88804270D01*
X148613387Y-88804254D01*
X148384317Y-88632775D01*
X148384309Y-88632770D01*
X148133166Y-88495635D01*
X148133167Y-88495635D01*
X148001420Y-88446496D01*
X147865046Y-88395631D01*
X147865043Y-88395630D01*
X147865037Y-88395628D01*
X147585433Y-88334804D01*
X147300001Y-88314390D01*
X147299999Y-88314390D01*
X147014566Y-88334804D01*
X146734962Y-88395628D01*
X146466833Y-88495635D01*
X146215690Y-88632770D01*
X146215682Y-88632775D01*
X145986612Y-88804254D01*
X145986594Y-88804270D01*
X145784270Y-89006594D01*
X145784254Y-89006612D01*
X145612775Y-89235682D01*
X145612770Y-89235690D01*
X145475635Y-89486833D01*
X145375628Y-89754962D01*
X145314804Y-90034566D01*
X145294390Y-90319998D01*
X145294390Y-90320001D01*
X120000499Y-90320001D01*
X120000499Y-88000001D01*
X122534532Y-88000001D01*
X122554364Y-88226686D01*
X122554366Y-88226697D01*
X122613258Y-88446488D01*
X122613261Y-88446497D01*
X122709431Y-88652732D01*
X122709432Y-88652734D01*
X122839954Y-88839141D01*
X123000858Y-89000045D01*
X123000861Y-89000047D01*
X123187266Y-89130568D01*
X123393504Y-89226739D01*
X123613308Y-89285635D01*
X123775230Y-89299801D01*
X123839998Y-89305468D01*
X123840000Y-89305468D01*
X123840002Y-89305468D01*
X123896673Y-89300509D01*
X124066692Y-89285635D01*
X124286496Y-89226739D01*
X124492734Y-89130568D01*
X124679139Y-89000047D01*
X124840047Y-88839139D01*
X124970568Y-88652734D01*
X125066739Y-88446496D01*
X125125635Y-88226692D01*
X125145468Y-88000001D01*
X132694532Y-88000001D01*
X132714364Y-88226686D01*
X132714366Y-88226697D01*
X132773258Y-88446488D01*
X132773261Y-88446497D01*
X132869431Y-88652732D01*
X132869432Y-88652734D01*
X132999954Y-88839141D01*
X133160858Y-89000045D01*
X133160861Y-89000047D01*
X133347266Y-89130568D01*
X133553504Y-89226739D01*
X133773308Y-89285635D01*
X133935230Y-89299801D01*
X133999998Y-89305468D01*
X134000000Y-89305468D01*
X134000002Y-89305468D01*
X134056672Y-89300509D01*
X134226692Y-89285635D01*
X134446496Y-89226739D01*
X134652734Y-89130568D01*
X134839139Y-89000047D01*
X135000047Y-88839139D01*
X135130568Y-88652734D01*
X135226739Y-88446496D01*
X135285635Y-88226692D01*
X135305468Y-88000001D01*
X164534532Y-88000001D01*
X164554364Y-88226686D01*
X164554366Y-88226697D01*
X164613258Y-88446488D01*
X164613261Y-88446497D01*
X164709431Y-88652732D01*
X164709432Y-88652734D01*
X164839954Y-88839141D01*
X165000858Y-89000045D01*
X165000861Y-89000047D01*
X165187266Y-89130568D01*
X165393504Y-89226739D01*
X165613308Y-89285635D01*
X165775230Y-89299801D01*
X165839998Y-89305468D01*
X165840000Y-89305468D01*
X165840002Y-89305468D01*
X165896672Y-89300509D01*
X166066692Y-89285635D01*
X166286496Y-89226739D01*
X166492734Y-89130568D01*
X166679139Y-89000047D01*
X166840047Y-88839139D01*
X166970568Y-88652734D01*
X167066739Y-88446496D01*
X167125635Y-88226692D01*
X167145468Y-88000001D01*
X174694532Y-88000001D01*
X174714364Y-88226686D01*
X174714366Y-88226697D01*
X174773258Y-88446488D01*
X174773261Y-88446497D01*
X174869431Y-88652732D01*
X174869432Y-88652734D01*
X174999954Y-88839141D01*
X175160858Y-89000045D01*
X175160861Y-89000047D01*
X175347266Y-89130568D01*
X175553504Y-89226739D01*
X175773308Y-89285635D01*
X175935230Y-89299801D01*
X175999998Y-89305468D01*
X176000000Y-89305468D01*
X176000002Y-89305468D01*
X176056673Y-89300509D01*
X176226692Y-89285635D01*
X176446496Y-89226739D01*
X176652734Y-89130568D01*
X176839139Y-89000047D01*
X177000047Y-88839139D01*
X177130568Y-88652734D01*
X177226739Y-88446496D01*
X177285635Y-88226692D01*
X177305468Y-88000000D01*
X177285635Y-87773308D01*
X177226739Y-87553504D01*
X177130568Y-87347266D01*
X177000047Y-87160861D01*
X177000045Y-87160858D01*
X176839141Y-86999954D01*
X176652734Y-86869432D01*
X176652732Y-86869431D01*
X176446497Y-86773261D01*
X176446488Y-86773258D01*
X176226697Y-86714366D01*
X176226693Y-86714365D01*
X176226692Y-86714365D01*
X176226691Y-86714364D01*
X176226686Y-86714364D01*
X176000002Y-86694532D01*
X175999998Y-86694532D01*
X175773313Y-86714364D01*
X175773302Y-86714366D01*
X175553511Y-86773258D01*
X175553502Y-86773261D01*
X175347267Y-86869431D01*
X175347265Y-86869432D01*
X175160858Y-86999954D01*
X174999954Y-87160858D01*
X174869432Y-87347265D01*
X174869431Y-87347267D01*
X174773261Y-87553502D01*
X174773258Y-87553511D01*
X174714366Y-87773302D01*
X174714364Y-87773313D01*
X174694532Y-87999998D01*
X174694532Y-88000001D01*
X167145468Y-88000001D01*
X167145468Y-88000000D01*
X167125635Y-87773308D01*
X167066739Y-87553504D01*
X166970568Y-87347266D01*
X166840047Y-87160861D01*
X166840045Y-87160858D01*
X166679141Y-86999954D01*
X166492734Y-86869432D01*
X166492732Y-86869431D01*
X166286497Y-86773261D01*
X166286488Y-86773258D01*
X166066697Y-86714366D01*
X166066693Y-86714365D01*
X166066692Y-86714365D01*
X166066691Y-86714364D01*
X166066686Y-86714364D01*
X165840002Y-86694532D01*
X165839998Y-86694532D01*
X165613313Y-86714364D01*
X165613302Y-86714366D01*
X165393511Y-86773258D01*
X165393502Y-86773261D01*
X165187267Y-86869431D01*
X165187265Y-86869432D01*
X165000858Y-86999954D01*
X164839954Y-87160858D01*
X164709432Y-87347265D01*
X164709431Y-87347267D01*
X164613261Y-87553502D01*
X164613258Y-87553511D01*
X164554366Y-87773302D01*
X164554364Y-87773313D01*
X164534532Y-87999998D01*
X164534532Y-88000001D01*
X135305468Y-88000001D01*
X135305468Y-88000000D01*
X135285635Y-87773308D01*
X135226739Y-87553504D01*
X135130568Y-87347266D01*
X135000047Y-87160861D01*
X135000045Y-87160858D01*
X134839141Y-86999954D01*
X134652734Y-86869432D01*
X134652732Y-86869431D01*
X134446497Y-86773261D01*
X134446488Y-86773258D01*
X134226697Y-86714366D01*
X134226693Y-86714365D01*
X134226692Y-86714365D01*
X134226691Y-86714364D01*
X134226686Y-86714364D01*
X134000002Y-86694532D01*
X133999998Y-86694532D01*
X133773313Y-86714364D01*
X133773302Y-86714366D01*
X133553511Y-86773258D01*
X133553502Y-86773261D01*
X133347267Y-86869431D01*
X133347265Y-86869432D01*
X133160858Y-86999954D01*
X132999954Y-87160858D01*
X132869432Y-87347265D01*
X132869431Y-87347267D01*
X132773261Y-87553502D01*
X132773258Y-87553511D01*
X132714366Y-87773302D01*
X132714364Y-87773313D01*
X132694532Y-87999998D01*
X132694532Y-88000001D01*
X125145468Y-88000001D01*
X125145468Y-88000000D01*
X125125635Y-87773308D01*
X125066739Y-87553504D01*
X124970568Y-87347266D01*
X124840047Y-87160861D01*
X124840045Y-87160858D01*
X124679141Y-86999954D01*
X124492734Y-86869432D01*
X124492732Y-86869431D01*
X124286497Y-86773261D01*
X124286488Y-86773258D01*
X124066697Y-86714366D01*
X124066693Y-86714365D01*
X124066692Y-86714365D01*
X124066691Y-86714364D01*
X124066686Y-86714364D01*
X123840002Y-86694532D01*
X123839998Y-86694532D01*
X123613313Y-86714364D01*
X123613302Y-86714366D01*
X123393511Y-86773258D01*
X123393502Y-86773261D01*
X123187267Y-86869431D01*
X123187265Y-86869432D01*
X123000858Y-86999954D01*
X122839954Y-87160858D01*
X122709432Y-87347265D01*
X122709431Y-87347267D01*
X122613261Y-87553502D01*
X122613258Y-87553511D01*
X122554366Y-87773302D01*
X122554364Y-87773313D01*
X122534532Y-87999998D01*
X122534532Y-88000001D01*
X120000499Y-88000001D01*
X120000499Y-83052425D01*
X143899500Y-83052425D01*
X143914472Y-83209218D01*
X143973684Y-83410875D01*
X144023019Y-83506572D01*
X144069991Y-83597686D01*
X144199905Y-83762883D01*
X144199909Y-83762887D01*
X144358746Y-83900521D01*
X144540750Y-84005601D01*
X144540752Y-84005601D01*
X144540756Y-84005604D01*
X144739367Y-84074344D01*
X144947398Y-84104254D01*
X145157330Y-84094254D01*
X145361576Y-84044704D01*
X145447199Y-84005601D01*
X145552743Y-83957401D01*
X145552746Y-83957399D01*
X145552753Y-83957396D01*
X145723952Y-83835486D01*
X145793179Y-83762883D01*
X145868985Y-83683379D01*
X145924057Y-83597686D01*
X145982613Y-83506572D01*
X146060725Y-83311457D01*
X146100500Y-83105085D01*
X146100500Y-82453685D01*
X149145740Y-82453685D01*
X149155755Y-82638406D01*
X149155755Y-82638411D01*
X149205244Y-82816656D01*
X149205247Y-82816662D01*
X149291898Y-82980102D01*
X149354540Y-83053850D01*
X149411663Y-83121100D01*
X149558936Y-83233054D01*
X149726833Y-83310732D01*
X149726834Y-83310732D01*
X149726836Y-83310733D01*
X149781648Y-83322797D01*
X149907503Y-83350500D01*
X149907506Y-83350500D01*
X150046107Y-83350500D01*
X150046113Y-83350500D01*
X150183910Y-83335514D01*
X150359221Y-83276444D01*
X150517736Y-83181070D01*
X150652041Y-83053849D01*
X150653006Y-83052425D01*
X153899500Y-83052425D01*
X153914472Y-83209218D01*
X153973684Y-83410875D01*
X154023019Y-83506572D01*
X154069991Y-83597686D01*
X154199905Y-83762883D01*
X154199909Y-83762887D01*
X154358746Y-83900521D01*
X154540750Y-84005601D01*
X154540752Y-84005601D01*
X154540756Y-84005604D01*
X154739367Y-84074344D01*
X154947398Y-84104254D01*
X155157330Y-84094254D01*
X155361576Y-84044704D01*
X155447199Y-84005601D01*
X155552743Y-83957401D01*
X155552746Y-83957399D01*
X155552753Y-83957396D01*
X155723952Y-83835486D01*
X155793179Y-83762883D01*
X155868985Y-83683379D01*
X155924057Y-83597686D01*
X155982613Y-83506572D01*
X156060725Y-83311457D01*
X156100500Y-83105085D01*
X156100500Y-81947575D01*
X156085528Y-81790782D01*
X156026316Y-81589125D01*
X155930011Y-81402318D01*
X155930009Y-81402316D01*
X155930008Y-81402313D01*
X155800094Y-81237116D01*
X155800090Y-81237112D01*
X155641253Y-81099478D01*
X155459249Y-80994398D01*
X155459245Y-80994396D01*
X155459244Y-80994396D01*
X155260633Y-80925656D01*
X155052602Y-80895746D01*
X155052598Y-80895746D01*
X154842672Y-80905745D01*
X154638421Y-80955296D01*
X154638417Y-80955298D01*
X154447256Y-81042598D01*
X154447251Y-81042601D01*
X154276046Y-81164515D01*
X154276040Y-81164520D01*
X154131014Y-81316620D01*
X154017388Y-81493425D01*
X153939274Y-81688544D01*
X153899500Y-81894914D01*
X153899500Y-81894915D01*
X153899500Y-83052425D01*
X150653006Y-83052425D01*
X150755858Y-82900730D01*
X150824331Y-82728875D01*
X150854260Y-82546317D01*
X150844245Y-82361593D01*
X150794754Y-82183341D01*
X150708100Y-82019896D01*
X150645460Y-81946151D01*
X150588337Y-81878900D01*
X150509449Y-81818931D01*
X150441064Y-81766946D01*
X150273167Y-81689268D01*
X150273163Y-81689266D01*
X150092497Y-81649500D01*
X149953887Y-81649500D01*
X149953883Y-81649500D01*
X149816088Y-81664486D01*
X149640776Y-81723557D01*
X149640774Y-81723558D01*
X149482262Y-81818931D01*
X149482261Y-81818932D01*
X149347959Y-81946149D01*
X149244138Y-82099276D01*
X149175669Y-82271122D01*
X149145740Y-82453685D01*
X146100500Y-82453685D01*
X146100500Y-81947575D01*
X146085528Y-81790782D01*
X146026316Y-81589125D01*
X145930011Y-81402318D01*
X145930009Y-81402316D01*
X145930008Y-81402313D01*
X145800094Y-81237116D01*
X145800090Y-81237112D01*
X145641253Y-81099478D01*
X145459249Y-80994398D01*
X145459245Y-80994396D01*
X145459244Y-80994396D01*
X145260633Y-80925656D01*
X145052602Y-80895746D01*
X145052598Y-80895746D01*
X144842672Y-80905745D01*
X144638421Y-80955296D01*
X144638417Y-80955298D01*
X144447256Y-81042598D01*
X144447251Y-81042601D01*
X144276046Y-81164515D01*
X144276040Y-81164520D01*
X144131014Y-81316620D01*
X144017388Y-81493425D01*
X143939274Y-81688544D01*
X143899500Y-81894914D01*
X143899500Y-81894915D01*
X143899500Y-83052425D01*
X120000499Y-83052425D01*
X120000499Y-78067763D01*
X123145787Y-78067763D01*
X123175413Y-78337013D01*
X123175415Y-78337024D01*
X123243926Y-78599082D01*
X123243928Y-78599088D01*
X123349870Y-78848390D01*
X123421998Y-78966575D01*
X123490979Y-79079605D01*
X123490986Y-79079615D01*
X123664253Y-79287819D01*
X123664259Y-79287824D01*
X123865998Y-79468582D01*
X124091910Y-79618044D01*
X124337176Y-79733020D01*
X124337183Y-79733022D01*
X124337185Y-79733023D01*
X124596557Y-79811057D01*
X124596564Y-79811058D01*
X124596569Y-79811060D01*
X124864561Y-79850500D01*
X124864566Y-79850500D01*
X125067636Y-79850500D01*
X125119133Y-79846730D01*
X125270156Y-79835677D01*
X125382758Y-79810593D01*
X125534546Y-79776782D01*
X125534548Y-79776781D01*
X125534553Y-79776780D01*
X125787558Y-79680014D01*
X126023777Y-79547441D01*
X126238177Y-79381888D01*
X126426186Y-79186881D01*
X126583799Y-78966579D01*
X126657787Y-78822669D01*
X126707649Y-78725690D01*
X126707651Y-78725684D01*
X126707656Y-78725675D01*
X126795118Y-78469305D01*
X126844319Y-78202933D01*
X126854212Y-77932235D01*
X126824586Y-77662982D01*
X126769869Y-77453685D01*
X144145740Y-77453685D01*
X144155755Y-77638406D01*
X144155755Y-77638411D01*
X144205244Y-77816656D01*
X144205247Y-77816662D01*
X144291898Y-77980102D01*
X144354540Y-78053850D01*
X144411663Y-78121100D01*
X144558936Y-78233054D01*
X144726833Y-78310732D01*
X144726834Y-78310732D01*
X144726836Y-78310733D01*
X144781648Y-78322797D01*
X144907503Y-78350500D01*
X144907506Y-78350500D01*
X145046107Y-78350500D01*
X145046113Y-78350500D01*
X145183910Y-78335514D01*
X145359221Y-78276444D01*
X145517736Y-78181070D01*
X145652041Y-78053849D01*
X145755858Y-77900730D01*
X145824331Y-77728875D01*
X145854260Y-77546317D01*
X145844245Y-77361593D01*
X145824033Y-77288794D01*
X145813262Y-77250000D01*
X148424632Y-77250000D01*
X149201066Y-77250000D01*
X149268105Y-77269685D01*
X149313860Y-77322489D01*
X149323804Y-77391647D01*
X149312785Y-77427803D01*
X149300000Y-77454349D01*
X149300000Y-77545650D01*
X149312785Y-77572197D01*
X149324138Y-77641138D01*
X149296417Y-77705273D01*
X149238422Y-77744239D01*
X149201066Y-77750000D01*
X148428742Y-77750000D01*
X148455770Y-77861409D01*
X148543040Y-78052507D01*
X148664889Y-78223619D01*
X148664895Y-78223625D01*
X148816932Y-78368592D01*
X148993657Y-78482166D01*
X149188685Y-78560244D01*
X149394962Y-78600000D01*
X149750000Y-78600000D01*
X149750000Y-77824000D01*
X149769685Y-77756961D01*
X149822489Y-77711206D01*
X149874000Y-77700000D01*
X150126000Y-77700000D01*
X150193039Y-77719685D01*
X150238794Y-77772489D01*
X150250000Y-77824000D01*
X150250000Y-78600000D01*
X150552398Y-78600000D01*
X150709122Y-78585034D01*
X150709126Y-78585033D01*
X150910686Y-78525850D01*
X151097414Y-78429586D01*
X151262537Y-78299731D01*
X151262540Y-78299728D01*
X151400105Y-78140969D01*
X151400114Y-78140958D01*
X151505144Y-77959039D01*
X151505147Y-77959032D01*
X151573855Y-77760517D01*
X151573855Y-77760515D01*
X151575368Y-77750000D01*
X150798934Y-77750000D01*
X150731895Y-77730315D01*
X150686140Y-77677511D01*
X150676196Y-77608353D01*
X150687215Y-77572197D01*
X150699678Y-77546317D01*
X150700000Y-77545649D01*
X150700000Y-77454351D01*
X150699679Y-77453685D01*
X154145740Y-77453685D01*
X154155755Y-77638406D01*
X154155755Y-77638411D01*
X154205244Y-77816656D01*
X154205247Y-77816662D01*
X154291898Y-77980102D01*
X154354540Y-78053850D01*
X154411663Y-78121100D01*
X154558936Y-78233054D01*
X154726833Y-78310732D01*
X154726834Y-78310732D01*
X154726836Y-78310733D01*
X154781648Y-78322797D01*
X154907503Y-78350500D01*
X154907506Y-78350500D01*
X155046107Y-78350500D01*
X155046113Y-78350500D01*
X155183910Y-78335514D01*
X155359221Y-78276444D01*
X155517736Y-78181070D01*
X155637352Y-78067763D01*
X173145787Y-78067763D01*
X173175413Y-78337013D01*
X173175415Y-78337024D01*
X173243926Y-78599082D01*
X173243928Y-78599088D01*
X173349870Y-78848390D01*
X173421998Y-78966575D01*
X173490979Y-79079605D01*
X173490986Y-79079615D01*
X173664253Y-79287819D01*
X173664259Y-79287824D01*
X173865998Y-79468582D01*
X174091910Y-79618044D01*
X174337176Y-79733020D01*
X174337183Y-79733022D01*
X174337185Y-79733023D01*
X174596557Y-79811057D01*
X174596564Y-79811058D01*
X174596569Y-79811060D01*
X174864561Y-79850500D01*
X174864566Y-79850500D01*
X175067636Y-79850500D01*
X175119133Y-79846730D01*
X175270156Y-79835677D01*
X175382758Y-79810593D01*
X175534546Y-79776782D01*
X175534548Y-79776781D01*
X175534553Y-79776780D01*
X175787558Y-79680014D01*
X176023777Y-79547441D01*
X176238177Y-79381888D01*
X176426186Y-79186881D01*
X176583799Y-78966579D01*
X176657787Y-78822669D01*
X176707649Y-78725690D01*
X176707651Y-78725684D01*
X176707656Y-78725675D01*
X176795118Y-78469305D01*
X176844319Y-78202933D01*
X176854212Y-77932235D01*
X176824586Y-77662982D01*
X176756072Y-77400912D01*
X176650130Y-77151610D01*
X176509018Y-76920390D01*
X176457954Y-76859030D01*
X176335746Y-76712180D01*
X176335740Y-76712175D01*
X176134002Y-76531418D01*
X175908092Y-76381957D01*
X175821448Y-76341340D01*
X175662824Y-76266980D01*
X175662819Y-76266978D01*
X175662814Y-76266976D01*
X175403442Y-76188942D01*
X175403428Y-76188939D01*
X175287791Y-76171921D01*
X175135439Y-76149500D01*
X174932369Y-76149500D01*
X174932364Y-76149500D01*
X174729844Y-76164323D01*
X174729831Y-76164325D01*
X174465453Y-76223217D01*
X174465446Y-76223220D01*
X174212439Y-76319987D01*
X173976226Y-76452557D01*
X173761822Y-76618112D01*
X173573822Y-76813109D01*
X173573816Y-76813116D01*
X173416202Y-77033419D01*
X173416199Y-77033424D01*
X173292350Y-77274309D01*
X173292343Y-77274327D01*
X173204884Y-77530685D01*
X173204881Y-77530699D01*
X173184987Y-77638406D01*
X173156400Y-77793178D01*
X173155681Y-77797068D01*
X173155680Y-77797075D01*
X173145787Y-78067763D01*
X155637352Y-78067763D01*
X155652041Y-78053849D01*
X155755858Y-77900730D01*
X155824331Y-77728875D01*
X155854260Y-77546317D01*
X155844245Y-77361593D01*
X155824033Y-77288794D01*
X155794755Y-77183343D01*
X155794752Y-77183337D01*
X155708101Y-77019897D01*
X155588337Y-76878900D01*
X155509449Y-76818931D01*
X155441064Y-76766946D01*
X155273167Y-76689268D01*
X155273163Y-76689266D01*
X155092497Y-76649500D01*
X154953887Y-76649500D01*
X154953883Y-76649500D01*
X154816088Y-76664486D01*
X154640776Y-76723557D01*
X154640774Y-76723558D01*
X154482262Y-76818931D01*
X154482261Y-76818932D01*
X154347959Y-76946149D01*
X154244138Y-77099276D01*
X154175669Y-77271122D01*
X154145740Y-77453685D01*
X150699679Y-77453685D01*
X150687215Y-77427803D01*
X150675862Y-77358862D01*
X150703583Y-77294727D01*
X150761578Y-77255761D01*
X150798934Y-77250000D01*
X151571257Y-77250000D01*
X151544229Y-77138590D01*
X151456959Y-76947492D01*
X151335110Y-76776380D01*
X151335104Y-76776374D01*
X151183067Y-76631407D01*
X151006342Y-76517833D01*
X150811314Y-76439755D01*
X150605038Y-76400000D01*
X150250000Y-76400000D01*
X150250000Y-77176000D01*
X150230315Y-77243039D01*
X150177511Y-77288794D01*
X150126000Y-77300000D01*
X149874000Y-77300000D01*
X149806961Y-77280315D01*
X149761206Y-77227511D01*
X149750000Y-77176000D01*
X149750000Y-76400000D01*
X149447602Y-76400000D01*
X149290877Y-76414965D01*
X149290873Y-76414966D01*
X149089313Y-76474149D01*
X148902585Y-76570413D01*
X148737462Y-76700268D01*
X148737459Y-76700271D01*
X148599894Y-76859030D01*
X148599885Y-76859041D01*
X148494855Y-77040960D01*
X148494852Y-77040967D01*
X148426144Y-77239482D01*
X148426144Y-77239484D01*
X148424632Y-77250000D01*
X145813262Y-77250000D01*
X145794755Y-77183343D01*
X145794752Y-77183337D01*
X145708101Y-77019897D01*
X145588337Y-76878900D01*
X145509449Y-76818931D01*
X145441064Y-76766946D01*
X145273167Y-76689268D01*
X145273163Y-76689266D01*
X145092497Y-76649500D01*
X144953887Y-76649500D01*
X144953883Y-76649500D01*
X144816088Y-76664486D01*
X144640776Y-76723557D01*
X144640774Y-76723558D01*
X144482262Y-76818931D01*
X144482261Y-76818932D01*
X144347959Y-76946149D01*
X144244138Y-77099276D01*
X144175669Y-77271122D01*
X144145740Y-77453685D01*
X126769869Y-77453685D01*
X126756072Y-77400912D01*
X126650130Y-77151610D01*
X126509018Y-76920390D01*
X126457954Y-76859030D01*
X126335746Y-76712180D01*
X126335740Y-76712175D01*
X126134002Y-76531418D01*
X125908092Y-76381957D01*
X125821448Y-76341340D01*
X125662824Y-76266980D01*
X125662819Y-76266978D01*
X125662814Y-76266976D01*
X125403442Y-76188942D01*
X125403428Y-76188939D01*
X125287791Y-76171921D01*
X125135439Y-76149500D01*
X124932369Y-76149500D01*
X124932364Y-76149500D01*
X124729844Y-76164323D01*
X124729831Y-76164325D01*
X124465453Y-76223217D01*
X124465446Y-76223220D01*
X124212439Y-76319987D01*
X123976226Y-76452557D01*
X123761822Y-76618112D01*
X123573822Y-76813109D01*
X123573816Y-76813116D01*
X123416202Y-77033419D01*
X123416199Y-77033424D01*
X123292350Y-77274309D01*
X123292343Y-77274327D01*
X123204884Y-77530685D01*
X123204881Y-77530699D01*
X123184987Y-77638406D01*
X123156400Y-77793178D01*
X123155681Y-77797068D01*
X123155680Y-77797075D01*
X123145787Y-78067763D01*
X120000499Y-78067763D01*
X120000499Y-78000000D01*
X120002193Y-77959039D01*
X120009477Y-77782923D01*
X120018160Y-77584059D01*
X120018573Y-77579140D01*
X120045487Y-77363223D01*
X120071884Y-77162726D01*
X120072669Y-77158114D01*
X120117191Y-76945778D01*
X120161160Y-76747451D01*
X120162253Y-76743235D01*
X120224112Y-76535457D01*
X120285324Y-76341320D01*
X120286673Y-76337488D01*
X120365469Y-76135551D01*
X120443499Y-75947170D01*
X120445033Y-75943771D01*
X120526837Y-75776441D01*
X120540249Y-75749007D01*
X120575615Y-75681068D01*
X120634494Y-75567960D01*
X120636207Y-75564891D01*
X120686729Y-75480104D01*
X120747211Y-75378601D01*
X120856972Y-75206313D01*
X120858765Y-75203656D01*
X120984856Y-75027054D01*
X121041155Y-74953685D01*
X144145740Y-74953685D01*
X144155755Y-75138406D01*
X144155755Y-75138411D01*
X144205244Y-75316656D01*
X144205247Y-75316662D01*
X144291898Y-75480102D01*
X144366559Y-75568000D01*
X144411663Y-75621100D01*
X144558936Y-75733054D01*
X144726833Y-75810732D01*
X144726834Y-75810732D01*
X144726836Y-75810733D01*
X144781648Y-75822797D01*
X144907503Y-75850500D01*
X144907506Y-75850500D01*
X145046107Y-75850500D01*
X145046113Y-75850500D01*
X145183910Y-75835514D01*
X145359221Y-75776444D01*
X145517736Y-75681070D01*
X145652041Y-75553849D01*
X145755858Y-75400730D01*
X145824331Y-75228875D01*
X145854260Y-75046317D01*
X145849238Y-74953685D01*
X154145740Y-74953685D01*
X154155755Y-75138406D01*
X154155755Y-75138411D01*
X154205244Y-75316656D01*
X154205247Y-75316662D01*
X154291898Y-75480102D01*
X154366559Y-75568000D01*
X154411663Y-75621100D01*
X154558936Y-75733054D01*
X154726833Y-75810732D01*
X154726834Y-75810732D01*
X154726836Y-75810733D01*
X154781648Y-75822797D01*
X154907503Y-75850500D01*
X154907506Y-75850500D01*
X155046107Y-75850500D01*
X155046113Y-75850500D01*
X155183910Y-75835514D01*
X155359221Y-75776444D01*
X155517736Y-75681070D01*
X155652041Y-75553849D01*
X155755858Y-75400730D01*
X155824331Y-75228875D01*
X155854260Y-75046317D01*
X155844245Y-74861593D01*
X155819126Y-74771122D01*
X155794755Y-74683343D01*
X155794752Y-74683337D01*
X155708101Y-74519897D01*
X155588337Y-74378900D01*
X155550835Y-74350392D01*
X155441064Y-74266946D01*
X155273167Y-74189268D01*
X155273163Y-74189266D01*
X155092497Y-74149500D01*
X154953887Y-74149500D01*
X154953883Y-74149500D01*
X154816088Y-74164486D01*
X154640776Y-74223557D01*
X154640774Y-74223558D01*
X154482262Y-74318931D01*
X154482261Y-74318932D01*
X154347959Y-74446149D01*
X154244138Y-74599276D01*
X154175669Y-74771122D01*
X154145740Y-74953685D01*
X145849238Y-74953685D01*
X145844245Y-74861593D01*
X145819126Y-74771122D01*
X145794755Y-74683343D01*
X145794752Y-74683337D01*
X145708101Y-74519897D01*
X145588337Y-74378900D01*
X145550835Y-74350392D01*
X145441064Y-74266946D01*
X145273167Y-74189268D01*
X145273163Y-74189266D01*
X145092497Y-74149500D01*
X144953887Y-74149500D01*
X144953883Y-74149500D01*
X144816088Y-74164486D01*
X144640776Y-74223557D01*
X144640774Y-74223558D01*
X144482262Y-74318931D01*
X144482261Y-74318932D01*
X144347959Y-74446149D01*
X144244138Y-74599276D01*
X144175669Y-74771122D01*
X144145740Y-74953685D01*
X121041155Y-74953685D01*
X121109313Y-74864861D01*
X121111135Y-74862601D01*
X121251448Y-74696933D01*
X121390563Y-74545115D01*
X121545115Y-74390563D01*
X121696933Y-74251448D01*
X121862601Y-74111135D01*
X121864861Y-74109313D01*
X122027054Y-73984856D01*
X122203656Y-73858765D01*
X122206313Y-73856972D01*
X122378601Y-73747211D01*
X122564900Y-73636201D01*
X122567960Y-73634494D01*
X122685284Y-73573419D01*
X122749007Y-73540249D01*
X122823655Y-73503755D01*
X122943771Y-73445033D01*
X122947170Y-73443499D01*
X123135551Y-73365469D01*
X123337488Y-73286673D01*
X123341320Y-73285324D01*
X123535457Y-73224112D01*
X123743235Y-73162253D01*
X123747451Y-73161160D01*
X123945778Y-73117191D01*
X124158114Y-73072669D01*
X124162726Y-73071884D01*
X124363223Y-73045487D01*
X124579138Y-73018574D01*
X124584061Y-73018160D01*
X124782569Y-73009493D01*
X125000000Y-73000500D01*
X125000500Y-73000500D01*
X143499901Y-73000500D01*
X147675500Y-73000500D01*
X147742539Y-73020185D01*
G37*
%TD.AperFunction*%
%TD*%
M02*
