%TF.GenerationSoftware,KiCad,Pcbnew,7.0.7*%
%TF.CreationDate,2024-06-01T16:44:26-07:00*%
%TF.ProjectId,Impedance Selector,496d7065-6461-46e6-9365-2053656c6563,rev?*%
%TF.SameCoordinates,Original*%
%TF.FileFunction,Copper,L2,Bot*%
%TF.FilePolarity,Positive*%
%FSLAX46Y46*%
G04 Gerber Fmt 4.6, Leading zero omitted, Abs format (unit mm)*
G04 Created by KiCad (PCBNEW 7.0.7) date 2024-06-01 16:44:26*
%MOMM*%
%LPD*%
G01*
G04 APERTURE LIST*
%TA.AperFunction,ComponentPad*%
%ADD10C,3.000000*%
%TD*%
%TA.AperFunction,ComponentPad*%
%ADD11O,1.600000X1.600000*%
%TD*%
%TA.AperFunction,ComponentPad*%
%ADD12C,1.600000*%
%TD*%
%TA.AperFunction,ComponentPad*%
%ADD13O,1.200000X2.200000*%
%TD*%
%TA.AperFunction,ComponentPad*%
%ADD14O,2.200000X1.200000*%
%TD*%
%TA.AperFunction,Conductor*%
%ADD15C,0.400000*%
%TD*%
G04 APERTURE END LIST*
D10*
%TO.P,SW1,1,1*%
%TO.N,Net-(J2-PadT)*%
X152670000Y-90310000D03*
%TO.P,SW1,2,2*%
%TO.N,Net-(R1L1-Pad1)*%
X157100000Y-92890000D03*
%TO.P,SW1,3,3*%
%TO.N,Net-(R2L1-Pad1)*%
X159680000Y-97300000D03*
%TO.P,SW1,4,4*%
%TO.N,Net-(R3L1-Pad1)*%
X159680000Y-102700000D03*
%TO.P,SW1,5,5*%
%TO.N,Net-(R4L1-Pad1)*%
X157100000Y-107110000D03*
%TO.P,SW1,6,6*%
%TO.N,Net-(R5L1-Pad1)*%
X152670000Y-109690000D03*
%TO.P,SW1,7,7*%
%TO.N,Net-(J2-PadR)*%
X147300000Y-109680000D03*
%TO.P,SW1,8,8*%
%TO.N,Net-(R1R1-Pad1)*%
X142890000Y-107100000D03*
%TO.P,SW1,9,9*%
%TO.N,Net-(R2R1-Pad1)*%
X140320000Y-102700000D03*
%TO.P,SW1,10,10*%
%TO.N,Net-(R3R1-Pad1)*%
X140320000Y-97300000D03*
%TO.P,SW1,11,11*%
%TO.N,Net-(R4R1-Pad1)*%
X142900000Y-92890000D03*
%TO.P,SW1,12,12*%
%TO.N,Net-(R5R1-Pad1)*%
X147300000Y-90320000D03*
%TO.P,SW1,13,13*%
%TO.N,Net-(J1-PadT)*%
X155650000Y-100000000D03*
%TO.P,SW1,14,14*%
%TO.N,Net-(J1-PadR)*%
X144350000Y-100000000D03*
%TD*%
D11*
%TO.P,R2 L,1*%
%TO.N,Net-(R2L1-Pad1)*%
X165920000Y-94000000D03*
D12*
%TO.P,R2 L,2*%
%TO.N,Net-(J2-PadT)*%
X176080000Y-94000000D03*
%TD*%
D11*
%TO.P,R4 L,1*%
%TO.N,Net-(R4L1-Pad1)*%
X165920000Y-106000000D03*
D12*
%TO.P,R4 L,2*%
%TO.N,Net-(J2-PadT)*%
X176080000Y-106000000D03*
%TD*%
%TO.P,R3 R,1*%
%TO.N,Net-(R3R1-Pad1)*%
X134000000Y-100000000D03*
D11*
%TO.P,R3 R,2*%
%TO.N,Net-(J2-PadR)*%
X123840000Y-100000000D03*
%TD*%
D13*
%TO.P,J2,R*%
%TO.N,Net-(J2-PadR)*%
X155000000Y-117500000D03*
D14*
%TO.P,J2,S*%
%TO.N,GND*%
X150000000Y-122500000D03*
D13*
%TO.P,J2,T*%
%TO.N,Net-(J2-PadT)*%
X145000000Y-117500000D03*
%TD*%
D12*
%TO.P,R4 R,1*%
%TO.N,Net-(R4R1-Pad1)*%
X134080000Y-94000000D03*
D11*
%TO.P,R4 R,2*%
%TO.N,Net-(J2-PadR)*%
X123920000Y-94000000D03*
%TD*%
D13*
%TO.P,J1,R*%
%TO.N,Net-(J1-PadR)*%
X145000000Y-82500000D03*
D14*
%TO.P,J1,S*%
%TO.N,GND*%
X150000000Y-77500000D03*
D13*
%TO.P,J1,T*%
%TO.N,Net-(J1-PadT)*%
X155000000Y-82500000D03*
%TD*%
D11*
%TO.P,R2 R,2*%
%TO.N,Net-(J2-PadR)*%
X123920000Y-106000000D03*
D12*
%TO.P,R2 R,1*%
%TO.N,Net-(R2R1-Pad1)*%
X134080000Y-106000000D03*
%TD*%
%TO.P,R1 L,2*%
%TO.N,Net-(J2-PadT)*%
X176000000Y-88000000D03*
D11*
%TO.P,R1 L,1*%
%TO.N,Net-(R1L1-Pad1)*%
X165840000Y-88000000D03*
%TD*%
%TO.P,R5 L,1*%
%TO.N,Net-(R5L1-Pad1)*%
X165920000Y-112000000D03*
D12*
%TO.P,R5 L,2*%
%TO.N,Net-(J2-PadT)*%
X176080000Y-112000000D03*
%TD*%
%TO.P,R5 R,1*%
%TO.N,Net-(R5R1-Pad1)*%
X134000000Y-88000000D03*
D11*
%TO.P,R5 R,2*%
%TO.N,Net-(J2-PadR)*%
X123840000Y-88000000D03*
%TD*%
%TO.P,R3 L,1*%
%TO.N,Net-(R3L1-Pad1)*%
X165920000Y-100000000D03*
D12*
%TO.P,R3 L,2*%
%TO.N,Net-(J2-PadT)*%
X176080000Y-100000000D03*
%TD*%
D11*
%TO.P,R1 R,2*%
%TO.N,Net-(J2-PadR)*%
X123920000Y-112000000D03*
D12*
%TO.P,R1 R,1*%
%TO.N,Net-(R1R1-Pad1)*%
X134080000Y-112000000D03*
%TD*%
D15*
%TO.N,Net-(J1-PadR)*%
X145000000Y-82500000D02*
X145000000Y-84500000D01*
X149500000Y-94850000D02*
X144350000Y-100000000D01*
X149500000Y-89000000D02*
X149500000Y-94850000D01*
X145000000Y-84500000D02*
X149500000Y-89000000D01*
%TO.N,Net-(J1-PadT)*%
X155000000Y-84500000D02*
X155000000Y-82500000D01*
X150500000Y-89000000D02*
X155000000Y-84500000D01*
X155650000Y-100000000D02*
X150500000Y-94850000D01*
X150500000Y-94850000D02*
X150500000Y-89000000D01*
%TO.N,Net-(J2-PadR)*%
X123920000Y-106000000D02*
X123920000Y-100080000D01*
X147300000Y-109680000D02*
X155000000Y-117380000D01*
X123840000Y-88000000D02*
X123840000Y-93920000D01*
X155000000Y-117380000D02*
X155000000Y-117500000D01*
X147300000Y-109680000D02*
X141980000Y-115000000D01*
X126920000Y-115000000D02*
X123920000Y-112000000D01*
X141980000Y-115000000D02*
X126920000Y-115000000D01*
X123840000Y-93920000D02*
X123920000Y-94000000D01*
X123920000Y-112000000D02*
X123920000Y-106000000D01*
X123920000Y-94000000D02*
X123920000Y-99920000D01*
%TO.N,Net-(J2-PadT)*%
X176080000Y-94000000D02*
X176080000Y-100000000D01*
X160000000Y-116000000D02*
X156000000Y-120000000D01*
X176080000Y-113920000D02*
X174000000Y-116000000D01*
X176000000Y-93920000D02*
X176080000Y-94000000D01*
X176080000Y-112000000D02*
X176080000Y-113920000D01*
X176080000Y-100000000D02*
X176080000Y-106000000D01*
X156000000Y-120000000D02*
X147500000Y-120000000D01*
X176000000Y-85000000D02*
X175000000Y-84000000D01*
X158980000Y-84000000D02*
X152670000Y-90310000D01*
X176000000Y-88000000D02*
X176000000Y-85000000D01*
X175000000Y-84000000D02*
X158980000Y-84000000D01*
X176080000Y-106000000D02*
X176080000Y-112000000D01*
X147500000Y-120000000D02*
X145000000Y-117500000D01*
X174000000Y-116000000D02*
X160000000Y-116000000D01*
X176000000Y-88000000D02*
X176000000Y-93920000D01*
%TO.N,Net-(R1L1-Pad1)*%
X165840000Y-88000000D02*
X161990000Y-88000000D01*
X161990000Y-88000000D02*
X157100000Y-92890000D01*
%TO.N,Net-(R2L1-Pad1)*%
X165920000Y-94000000D02*
X162980000Y-94000000D01*
X162980000Y-94000000D02*
X159680000Y-97300000D01*
%TO.N,Net-(R3L1-Pad1)*%
X162380000Y-100000000D02*
X159680000Y-102700000D01*
X165920000Y-100000000D02*
X162380000Y-100000000D01*
%TO.N,Net-(R4L1-Pad1)*%
X165920000Y-106000000D02*
X163920000Y-108000000D01*
X157990000Y-108000000D02*
X157100000Y-107110000D01*
X163920000Y-108000000D02*
X157990000Y-108000000D01*
%TO.N,Net-(R5L1-Pad1)*%
X165920000Y-112000000D02*
X154980000Y-112000000D01*
X154980000Y-112000000D02*
X152670000Y-109690000D01*
%TO.N,Net-(R1R1-Pad1)*%
X134080000Y-112000000D02*
X137990000Y-112000000D01*
X137990000Y-112000000D02*
X142890000Y-107100000D01*
%TO.N,Net-(R2R1-Pad1)*%
X134080000Y-106000000D02*
X137020000Y-106000000D01*
X137020000Y-106000000D02*
X140320000Y-102700000D01*
%TO.N,Net-(R3R1-Pad1)*%
X137620000Y-100000000D02*
X140320000Y-97300000D01*
X134000000Y-100000000D02*
X137620000Y-100000000D01*
%TO.N,Net-(R4R1-Pad1)*%
X134080000Y-94000000D02*
X136000000Y-94000000D01*
X137110000Y-92890000D02*
X142900000Y-92890000D01*
X136000000Y-94000000D02*
X137110000Y-92890000D01*
%TO.N,Net-(R5R1-Pad1)*%
X134000000Y-88000000D02*
X144980000Y-88000000D01*
X144980000Y-88000000D02*
X147300000Y-90320000D01*
%TD*%
M02*
